<svg width="65" height="57" viewBox="0 0 65 57" fill="none" xmlns="http://www.w3.org/2000/svg">
    <path d="M33.9573 28.3085C33.4403 28.019 32.8406 27.8555 32.2033 27.8555C31.566 27.8555 30.9663 28.019 30.4493 28.3085C29.3383 28.9251 28.5901 30.1095 28.5901 31.4687C28.5901 32.8279 29.3383 34.0122 30.4493 34.6288V39.3944C30.4493 40.3616 31.2361 41.1484 32.2033 41.1484C33.1705 41.1484 33.9573 40.3616 33.9573 39.3944V34.6288C35.0683 34.0122 35.8165 32.8279 35.8165 31.4687C35.8175 30.1095 35.0683 28.9261 33.9573 28.3085Z" fill="white"/>
    <path d="M35.7846 19.8529C35.7846 17.878 34.1782 16.2716 32.2033 16.2716C30.2285 16.2716 28.6221 17.878 28.6221 19.8529V23.4134H35.7846V19.8529Z" fill="white"/>
    <path d="M48.2052 0.588135H16.2042L0.203308 28.3L6.29613 38.8511L16.2042 56.0119H48.2052L58.1133 38.8511L64.2033 28.3L48.2052 0.588135ZM45.4859 42.7773C45.4859 44.3329 44.2254 45.5925 42.6735 45.5925H21.735C20.1793 45.5925 18.9198 44.332 18.9198 42.7773V26.2274C18.9198 24.6718 20.1803 23.4122 21.735 23.4122H23.3602V19.8517C23.3602 14.9752 27.3277 11.0076 32.2042 11.0076C37.0808 11.0076 41.0483 14.9752 41.0483 19.8517V23.4122H42.6735C44.2263 23.4122 45.4859 24.6727 45.4859 26.2274V42.7773Z" fill="white"/>
</svg>
