<svg width="41" height="33" viewBox="0 0 41 33" fill="none" xmlns="http://www.w3.org/2000/svg">
    <path d="M39.6241 12.7695C39.4698 12.3766 39.2172 11.9486 38.8243 11.5908V4.79206C38.5506 2.14696 36.4107 0 33.7586 0H5.20967C2.56456 0 0.417603 2.14696 0.417603 4.79206V28.1279C0.417603 30.773 2.56456 32.92 5.20967 32.92H33.7586C36.4037 32.92 38.5506 30.773 38.8243 28.1279V21.3292C39.2172 20.9714 39.4698 20.5434 39.6241 20.1505C40.01 19.1612 40.01 17.9474 40.003 16.6565V16.2565C40.01 14.9726 40.01 13.7588 39.6241 12.7695ZM36.3967 13.1203C37.2246 13.1203 37.3298 13.3869 37.421 13.6255C37.6455 14.2008 37.6455 15.1971 37.6385 16.2565V16.6565C37.6385 17.7159 37.6385 18.7192 37.421 19.2875C37.3298 19.5261 37.2246 19.7927 36.3967 19.7927H24.9953C23.1571 19.7927 21.6556 18.2982 21.6556 16.453C21.6556 14.6147 23.1501 13.1133 24.9953 13.1133H36.3967V13.1203ZM33.7586 30.5555H5.20967C3.86957 30.5555 2.78206 29.468 2.78206 28.1279V4.79206C2.78206 3.45197 3.86957 2.36446 5.20967 2.36446H33.7586C35.0987 2.36446 36.1862 3.45197 36.1862 4.79206V10.7558H24.9953C21.8521 10.7558 19.2912 13.3167 19.2912 16.46C19.2912 19.6033 21.8521 22.1642 24.9953 22.1642H36.1862V28.1279C36.1862 29.468 35.0987 30.5555 33.7586 30.5555Z" fill="white"/>
    <path d="M23.7676 16.46C23.7676 17.302 24.4552 17.9895 25.2971 17.9895C26.1391 17.9895 26.8266 17.309 26.8266 16.46C26.8266 15.6181 26.1391 14.9305 25.2971 14.9305C24.4552 14.9305 23.7676 15.6181 23.7676 16.46Z" fill="white"/>
</svg>
