<svg width="163" height="22" viewBox="0 0 163 22" fill="none" xmlns="http://www.w3.org/2000/svg">
    <path d="M125.771 0H125.276V21.8722H125.771V0Z" fill="#BBBBBB"/>
    <path d="M135.314 15.7821H137.221V10.1944L141.474 15.7821H143.122V6.99243H141.215V12.4075L137.095 6.99243H135.314V15.7821Z" fill="#BBBBBB"/>
    <path d="M146.411 15.7821H148.341V12.3761H152.532V10.6182H148.341V8.75037H153.097V6.99243H146.403V15.7821H146.411Z" fill="#BBBBBB"/>
    <path d="M157.884 15.7821H159.815V8.77391H162.491V6.99243H155.208V8.77391H157.884V15.7821Z" fill="#BBBBBB"/>
    <path d="M9.47244 0L0 5.47V16.41L9.47244 21.88L18.9449 16.41V5.47L9.47244 0ZM18.113 15.9313L9.47244 20.9226L0.831879 15.9313V5.95657L9.47244 0.965294L18.113 5.95657V15.9313Z" fill="#1E2236"/>
    <path d="M13.1845 4.72437H5.73681L4.87354 8.52276H14.0791L13.1845 4.72437Z" fill="#1E2236"/>
    <path d="M7.06321 13.7417V11.2225L4.85794 9.81775L2.3623 11.6699L5.76045 17.5872H7.11814L8.72697 16.0961V15.3427L7.06321 13.7417Z" fill="#1E2236"/>
    <path d="M11.8897 9.0957H7.07104L7.87938 11.2146L7.63609 13.5847H9.47251L11.3246 13.5769L11.097 11.2146L11.8897 9.0957Z" fill="#1E2236"/>
    <path d="M14.095 9.802L11.9133 11.2225V13.7417L10.2495 15.3426V16.096L11.8505 17.5714H13.1925L16.5828 11.6698L14.095 9.802Z" fill="#1E2236"/>
    <path d="M29.5475 15.994C27.044 15.994 25.1919 14.032 25.1919 11.6227C25.1919 9.21341 27.044 7.20435 29.5632 7.20435C31.1563 7.20435 32.1452 7.79294 32.9299 8.65621L31.7371 9.95112C31.1485 9.33113 30.5285 8.8995 29.5553 8.8995C28.1506 8.8995 27.1303 10.1081 27.1303 11.5992C27.1303 13.1138 28.1663 14.3303 29.6495 14.3303C30.5599 14.3303 31.2269 13.8986 31.8312 13.2786L32.9927 14.4244C32.1687 15.3426 31.1956 15.994 29.5475 15.994Z" fill="#1E2236"/>
    <path d="M36.6576 15.994H34.7271V7.22785H36.6576V9.284C37.1834 8.02049 38.1566 7.16507 39.6398 7.22785V9.26831H39.53C37.8427 9.26831 36.6576 10.367 36.6576 12.6037V15.994Z" fill="#1E2236"/>
    <path d="M49.7479 7.21216L45.4786 18.3562H43.5245L44.4584 16.0018L40.8013 7.21216H42.8574L45.3531 13.7024L47.7467 7.21216H49.7479Z" fill="#1E2236"/>
    <path d="M55.8851 15.9783C54.496 15.9783 53.6171 15.2798 53.0285 14.495V18.3562H51.0979V7.21216H53.0285V8.78959C53.6485 7.91062 54.5274 7.21216 55.8851 7.21216C57.8785 7.21216 59.8091 8.78959 59.8091 11.5991C59.8091 14.4009 57.8942 15.9783 55.8851 15.9783ZM55.4378 8.88377C54.1272 8.88377 52.9814 9.95108 52.9814 11.5991C52.9814 13.2472 54.1272 14.3145 55.4378 14.3145C56.7641 14.3145 57.8471 13.2786 57.8471 11.5991C57.8471 9.93539 56.7484 8.88377 55.4378 8.88377Z" fill="#1E2236"/>
    <path d="M64.039 9.04087V13.1689C64.039 13.9144 64.4157 14.2205 65.0749 14.2205H65.8283V15.947H64.5098C63.1051 15.947 62.1084 15.3192 62.1084 13.4749V9.04087H61.0332V7.38496H62.1084V5.06982H64.039V7.38496H65.8361V9.04087H64.039Z" fill="#1E2236"/>
    <path d="M71.934 15.994C69.3677 15.994 67.4685 14.032 67.4685 11.6227C67.4685 9.19772 69.3834 7.20435 71.9654 7.20435C74.5473 7.20435 76.4465 9.16633 76.4465 11.5913C76.4544 14.0006 74.5395 15.994 71.934 15.994ZM71.934 8.8995C70.3879 8.8995 69.3991 10.1081 69.3991 11.5992C69.3991 13.0981 70.4664 14.3303 71.9654 14.3303C73.5271 14.3303 74.5159 13.1217 74.5159 11.6384C74.5238 10.1316 73.4486 8.8995 71.934 8.8995Z" fill="#1E2236"/>
    <path d="M94.9049 15.994C92.3387 15.994 90.4395 14.032 90.4395 11.6227C90.4395 9.19772 92.3543 7.20435 94.9363 7.20435C97.5183 7.20435 99.4175 9.16633 99.4175 11.5913C99.4175 14.0006 97.5026 15.994 94.9049 15.994ZM94.9049 8.8995C93.3589 8.8995 92.37 10.1081 92.37 11.5992C92.37 13.0981 93.4374 14.3303 94.9363 14.3303C96.498 14.3303 97.4869 13.1217 97.4869 11.6384C97.4869 10.1316 96.4196 8.8995 94.9049 8.8995Z" fill="#1E2236"/>
    <path d="M110.891 7.21216C112.728 7.21216 113.842 8.37365 113.842 10.4377V16.0018H111.911V11.0262C111.911 9.68425 111.291 8.97009 110.208 8.97009C109.157 8.97009 108.403 9.69995 108.403 11.0576V16.0018H106.473V11.0106C106.473 9.69995 105.837 8.97009 104.762 8.97009C103.687 8.97009 102.957 9.77058 102.957 11.0733V16.0018H101.026V7.21216H102.957V8.66402C103.498 7.91062 104.236 7.21216 105.523 7.21216C106.732 7.21216 107.579 7.80075 108.027 8.69542C108.717 7.80075 109.612 7.21216 110.891 7.21216Z" fill="#1E2236"/>
    <path d="M79.9861 14.2283V15.2014C79.9861 15.2407 79.9626 15.2799 79.9312 15.2956L79.0914 15.7822C79.0522 15.8057 79.013 15.8057 78.9816 15.7822L78.1418 15.2956C78.1105 15.2799 78.0869 15.2407 78.0869 15.2014V14.2283C78.0869 14.189 78.1105 14.1498 78.1418 14.1341L78.9816 13.6475C79.013 13.624 79.0601 13.624 79.0914 13.6475L79.9312 14.1341C79.9626 14.1498 79.9861 14.189 79.9861 14.2283Z" fill="#1E2236"/>
    <path d="M85.8561 15.9863C83.3526 15.9392 81.5397 13.938 81.5868 11.5365C81.6339 9.12718 83.5253 7.15735 86.0445 7.20444C87.6376 7.23583 88.6186 7.84797 89.3798 8.71909L88.1555 9.99045C87.5748 9.35477 86.9627 8.91529 85.9895 8.89959C84.5847 8.87605 83.541 10.0689 83.5174 11.5522C83.486 13.0668 84.4984 14.299 85.9817 14.3304C86.892 14.346 87.567 13.9301 88.1869 13.318L89.3327 14.4873C88.4852 15.382 87.5042 16.0177 85.8561 15.9863Z" fill="#1E2236"/>
</svg>
