<svg width="53" height="59" viewBox="0 0 53 59" fill="none" xmlns="http://www.w3.org/2000/svg">
    <path d="M14.585 58.3338C14.9328 57.8757 15.2778 57.4148 15.6341 56.9623C15.7047 56.8718 15.8094 56.804 15.9112 56.7503C16.6379 56.3572 17.4184 56.0886 18.1819 55.7803C18.8803 55.4976 19.5533 55.1469 20.2291 54.8076C20.3649 54.7397 20.4836 54.604 20.5713 54.4739C21.5186 53.0459 22.0332 51.4397 22.48 49.8053C22.7487 48.8213 22.9409 47.8259 23.0456 46.8135C23.1106 46.1688 23.088 45.5241 23.0088 44.885C22.9438 44.3591 22.8278 43.8388 22.7458 43.3156C22.7176 43.146 22.6327 43.0922 22.4687 43.0668C20.8371 42.8321 19.2451 42.4334 17.7096 41.8226C15.9988 41.1411 14.4266 40.2362 13.1089 38.9326C12.0456 37.8779 11.2624 36.6535 10.9145 35.1802C10.9089 35.1604 10.8947 35.1406 10.8721 35.0954C10.8325 35.1519 10.8014 35.1943 10.7703 35.2368C10.742 35.2763 10.7138 35.3188 10.6629 35.3499C10.6714 35.3272 10.677 35.299 10.6912 35.282C10.858 35.0897 10.8552 34.872 10.8127 34.6316C10.6629 33.7691 10.7138 32.9095 10.9089 32.0584C10.9174 32.0244 10.9202 31.9933 10.923 31.9594C10.923 31.9509 10.9145 31.9424 10.8976 31.9141C10.5413 32.3581 10.1906 32.7936 9.84 33.2319C9.82303 33.2234 9.80889 33.2149 9.79193 33.2064C9.82303 33.1442 9.84565 33.0735 9.88807 33.0198C10.2331 32.5787 10.5837 32.1432 10.9259 31.7021C10.9796 31.6314 11.0361 31.555 11.0644 31.473C11.6187 29.7962 12.6112 28.4021 13.8922 27.2116C14.4916 26.6545 15.1562 26.171 15.7924 25.6563C15.8377 25.6196 15.8885 25.5856 15.9366 25.5489C15.931 25.5347 15.9225 25.5206 15.9168 25.5065C15.6256 25.6083 15.3315 25.7044 15.0431 25.8147C14.3842 26.0692 13.796 26.4453 13.2389 26.8779C12.2888 27.6188 11.3642 28.3879 10.5724 29.3041C10.4706 29.4229 10.3858 29.5784 10.349 29.7283C9.68165 32.426 8.98319 35.1152 8.1179 37.7563C7.46752 39.7357 6.66444 41.6529 5.61252 43.457C5.36085 43.8868 5.04131 44.2855 4.71047 44.6588C4.357 45.0575 4.22409 45.0349 3.93001 44.5966C3.35598 43.7454 2.91485 42.8236 2.51896 41.8791C1.4529 39.3313 0.796864 36.6704 0.398152 33.9445C0.0531666 31.5946 -0.0429768 29.2334 0.0164059 26.861C0.0644776 25.0003 0.188898 23.1481 0.395324 21.2988C0.703548 18.5559 1.28889 15.8723 2.18812 13.2623C2.8894 11.2292 3.72075 9.25258 4.85185 7.41455C5.74542 5.96109 6.81148 4.64901 8.14335 3.56881C8.77677 3.05416 9.47239 2.65262 10.284 2.48296C11.087 2.31329 11.842 2.44337 12.515 2.91278C12.894 3.17576 13.2644 3.46701 13.5839 3.79503C14.5652 4.80171 15.5238 5.83384 16.4909 6.85748C16.522 6.88859 16.5446 6.931 16.5757 6.97342C16.816 6.75003 17.0338 6.54643 17.2544 6.34566C18.1819 5.50016 19.1687 4.74233 20.2857 4.16264C21.5412 3.50943 22.8618 3.28038 24.2615 3.53205C24.5217 3.58012 24.7846 3.62254 25.042 3.68758C25.3163 3.75544 25.5114 3.93076 25.6188 4.19375C25.7093 4.41431 25.797 4.63487 25.879 4.85544C26.0345 5.27112 26.2324 5.66417 26.5152 6.00916C26.6029 6.11661 26.6368 6.2269 26.6368 6.36546C26.634 13.0559 26.634 19.7492 26.634 26.4396C26.634 37.0776 26.634 47.7128 26.634 58.3508C22.6101 58.3338 18.5975 58.3338 14.585 58.3338ZM10.4734 29.2278C10.5271 29.1769 10.5611 29.1458 10.5894 29.1175C11.1408 28.5746 11.6724 28.0119 12.2464 27.4972C12.894 26.9175 13.5698 26.3661 14.3305 25.9335C14.8988 25.6111 15.5096 25.3905 16.1402 25.2209C16.2024 25.2039 16.2957 25.153 16.3014 25.1106C16.3382 24.8052 16.3551 24.497 16.3806 24.1887C15.4898 24.0728 14.6443 23.8296 13.8158 23.5299C12.9816 23.2273 12.2294 22.789 11.6073 22.0934C11.2906 24.5054 11.005 26.8694 10.4734 29.2278Z" fill="white"/>
    <path d="M27.9121 58.3338C27.9121 40.0666 27.9121 21.8021 27.9121 3.49531C28.291 3.56883 28.653 3.63952 29.0206 3.71022C28.8905 3.44158 28.7604 3.1786 28.6388 2.90997C28.5738 2.76575 28.5172 2.61871 28.4777 2.46601C28.4381 2.31897 28.4946 2.19172 28.636 2.12668C28.7746 2.06164 28.9131 2.09275 29.0008 2.21434C29.4815 2.88452 30.2054 3.3002 30.7314 3.90816C30.7653 3.89402 30.7823 3.89402 30.7851 3.88554C31.0848 3.22667 31.5938 2.71768 32.0406 2.16627C32.1764 1.9966 32.3291 1.95984 32.4733 2.01923C32.6175 2.08144 32.6853 2.21151 32.6684 2.43208C32.6401 2.80251 32.609 3.17577 32.5779 3.54621C32.5722 3.62821 32.5638 3.71022 32.5581 3.80353C32.7221 3.65649 32.8607 3.50379 33.0247 3.39351C33.2057 3.27192 33.4008 3.1475 33.61 3.09377C34.1049 2.96369 34.611 2.87321 35.1116 2.77141C35.1653 2.7601 35.2331 2.75161 35.2784 2.77423C35.3858 2.82231 35.5301 2.86755 35.5725 2.95521C35.6092 3.02873 35.5527 3.18991 35.4848 3.26626C35.2134 3.57166 35.0437 3.92795 34.9249 4.32101C35.0069 4.21356 35.0974 4.10893 35.1738 3.99865C35.5979 3.37937 36.2059 3.10225 36.9326 3.01742C37.4473 2.95804 37.9591 2.86755 38.4709 2.77423C38.8216 2.7092 38.9431 2.7601 39.0761 3.10508C39.1439 3.05984 39.2033 3.01177 39.2683 2.97218C39.6275 2.7601 39.9866 2.54801 40.3514 2.34442C40.4334 2.29917 40.5295 2.27372 40.6228 2.25393C40.7727 2.22282 40.9084 2.26241 40.9904 2.4038C41.0724 2.54519 41.0187 2.66961 40.9282 2.79403C40.8038 2.96087 40.6935 3.13619 40.5776 3.30868C40.555 3.34261 40.5465 3.38786 40.5521 3.43875C40.6172 3.36241 40.6709 3.27192 40.7473 3.21253C40.948 3.05135 41.1431 2.87038 41.3722 2.7601C41.7143 2.59326 42.0169 2.68657 42.2714 2.96935C42.2997 3.00328 42.3308 3.03439 42.3647 3.07398C42.902 2.6385 43.428 2.20303 43.9624 1.77887C44.5704 1.29815 45.1896 0.837228 45.9192 0.548797C46.2642 0.410238 46.6007 0.246229 46.94 0.096358C47.186 -0.0110964 47.4434 -0.0139241 47.7063 0.0171811C48.0485 0.0539418 48.3935 0.0680805 48.7328 0.113324C48.9025 0.135946 49.0721 0.192501 49.2277 0.271678C49.3775 0.348027 49.4284 0.506381 49.3917 0.667563C49.3436 0.873988 49.2984 1.09172 49.1966 1.27553C48.3454 2.83644 47.4914 4.40019 46.6177 5.94697C46.2868 6.53231 46.1171 7.16007 45.9673 7.80762C45.8683 8.23461 45.7156 8.65029 45.5997 9.07163C45.5516 9.24977 45.5318 9.43358 45.5064 9.61738C45.4837 9.78987 45.4639 9.96519 45.4555 10.1405C45.4526 10.1886 45.4894 10.2593 45.529 10.2876C46.3094 10.8022 46.9598 11.4469 47.4575 12.2359C47.6583 12.5554 47.8166 12.9004 47.9721 13.2454C48.2521 13.8562 48.5009 14.4811 48.7922 15.0862C48.9449 15.4058 49.1626 15.6914 49.3436 15.9968C49.3888 16.0731 49.4228 16.1778 49.4115 16.2626C49.3888 16.4323 49.1881 16.5001 49.0212 16.3955C48.8912 16.3163 48.7781 16.2117 48.6536 16.124C48.5829 16.076 48.5009 16.0392 48.4048 16.0251C48.4218 16.0477 48.4387 16.076 48.4585 16.0957C49.1428 16.7546 49.649 17.5407 50.0788 18.3806C50.3079 18.8274 50.3559 19.3194 50.404 19.8086C50.4181 19.9698 50.3644 20.114 50.2145 20.196C50.0618 20.2808 49.9205 20.2327 49.7876 20.1423C49.1485 19.7153 48.4331 19.5117 47.6752 19.424C47.6922 19.4353 47.7092 19.4523 47.729 19.4579C48.6225 19.7492 49.2135 20.3939 49.7253 21.1404C50.0675 21.6381 50.4238 22.1273 50.7914 22.6052C50.9158 22.7664 51.094 22.888 51.2608 23.0124C51.3994 23.117 51.521 23.3631 51.4785 23.5129C51.4333 23.6741 51.2891 23.7731 51.0572 23.7448C50.6302 23.6967 50.2089 23.6176 49.7847 23.5667C49.6518 23.5497 49.5161 23.5638 49.3832 23.5808C49.2503 23.6006 49.2361 23.6939 49.3295 23.7674C49.4963 23.8975 49.6716 24.0248 49.8611 24.1181C50.1184 24.2481 50.3927 24.3415 50.6557 24.4546C51.4418 24.7967 51.9847 25.3849 52.2929 26.1767C52.4711 26.6319 52.6125 27.1042 52.7199 27.5821C52.7906 27.8931 52.5842 28.0571 52.2562 28.0373C51.733 28.0034 51.2071 27.9695 50.684 27.961C50.305 27.9553 49.9431 28.0628 49.6207 28.2579C49.4737 28.3455 49.3521 28.4728 49.205 28.5916C49.4313 28.7301 49.6349 28.8404 49.8215 28.9733C50.2259 29.2646 50.5906 29.5954 50.7009 30.1129C50.7546 30.3674 50.7716 30.6275 50.5397 30.8142C50.469 30.8736 50.3729 30.9216 50.2824 30.9358C49.5415 31.0545 48.8007 31.1507 48.0457 31.0008C47.7459 30.9414 47.4207 30.998 47.1069 31.0008C47.1012 31.0234 47.0955 31.0432 47.0899 31.0658C47.1238 31.1054 47.1578 31.145 47.1945 31.1818C47.9297 31.9538 48.0174 32.8558 47.7205 33.8285C47.6837 33.9501 47.613 34.0661 47.5367 34.1707C47.3387 34.4337 47.0277 34.4252 46.8467 34.1509C46.7534 34.0095 46.6912 33.8483 46.6007 33.707C46.4423 33.4609 46.2698 33.2234 46.0832 32.9548C46.2161 33.4525 46.3377 33.9021 46.4565 34.3517C46.4734 34.4167 46.4763 34.4874 46.4734 34.5525C46.4621 34.7504 46.3971 34.9201 46.2076 35.0134C46.021 35.1067 45.8315 35.0756 45.6817 34.9455C45.3791 34.6825 45.0794 34.4167 44.8022 34.1255C44.3894 33.6956 43.8974 33.4242 43.3233 33.2856C43.1819 33.2517 43.0999 33.28 43.0264 33.4129C42.5627 34.2386 42.0904 35.0614 41.621 35.8871C41.3043 36.447 40.9367 36.9645 40.4419 37.383C40.357 37.4566 40.275 37.5357 40.2015 37.6206C39.4069 38.5622 38.3748 39.1108 37.1843 39.3398C36.2653 39.518 35.3321 39.6254 34.4046 39.7555C33.873 39.8319 33.3414 39.8941 32.7815 39.9648C32.7815 40.0694 32.7843 40.1797 32.7815 40.29C32.7306 41.7095 33.101 43.0385 33.6609 44.328C34.0398 45.1961 34.611 45.9115 35.3519 46.4969C35.7648 46.8249 36.2285 47.0483 36.7403 47.1812C37.1447 47.2886 37.5491 47.3961 37.945 47.5262C39.274 47.9645 40.4814 48.6148 41.3976 49.6979C42.3534 50.829 43.0377 52.1156 43.4251 53.5521C43.5269 53.9282 43.6344 54.3014 43.7418 54.6775C43.8521 55.0621 43.8889 55.4495 43.8493 55.851C43.821 56.1366 43.8351 56.4251 43.838 56.7107C43.8465 57.2536 43.8578 57.7937 43.8691 58.3366C38.536 58.3338 33.2226 58.3338 27.9121 58.3338Z" fill="white"/>
    <circle cx="21" cy="18" r="2" fill="#FB2D88"/>
    <circle cx="34" cy="18" r="2" fill="#FB2D88"/>
</svg>
