<svg width="106" height="98" viewBox="0 0 106 98" fill="none" xmlns="http://www.w3.org/2000/svg">
    <path d="M86.5972 98C66.7216 98 46.8459 98 26.9655 98C26.9607 97.8834 26.9462 97.7668 26.9462 97.6551C26.9703 95.469 27.173 93.2926 27.4142 91.1211C27.7422 88.148 28.3645 85.2429 29.339 82.4205C30.4534 79.1948 31.9055 76.144 33.9654 73.4089C35.842 70.9168 38.1914 69.1436 41.274 68.4878C42.4077 68.2449 43.5655 68.0943 44.6606 67.9048C44.6558 67.9048 44.5786 67.8708 44.5014 67.8465C41.1968 66.632 38.0322 65.1212 35.0557 63.2266C32.6918 61.7255 30.4148 60.1126 28.5382 57.9945C28.5093 57.9605 28.4658 57.9363 28.4176 57.8974C28.3645 58.0091 28.3211 58.1063 28.2729 58.1986C27.7663 59.1702 27.3129 60.1758 26.7484 61.1085C23.8732 65.879 20.2406 69.984 15.9133 73.4769C14.9774 74.2348 13.9933 74.9197 12.8548 75.3375C12.0443 75.6387 11.5571 75.3861 11.2966 74.5651C11.2628 74.4534 11.2291 74.3416 11.2049 74.2299C10.8672 72.6899 10.8286 71.1305 10.901 69.5614C10.9203 69.1922 10.9637 68.8278 11.0023 68.376C10.8962 68.5266 10.8431 68.6044 10.7852 68.6821C9.54541 70.3727 8.26701 72.0244 6.65091 73.3798C5.76326 74.123 4.82737 74.7449 3.65992 74.944C2.75297 75.0995 2.02452 74.8274 1.45527 74.1133C1.31055 73.9336 1.18512 73.7344 1.07416 73.5304C0.461491 72.3839 0.2637 71.1257 0.152744 69.8529C-0.189773 65.9471 0.0562601 62.0704 0.765414 58.2229C1.50834 54.1713 2.71438 50.2509 4.06515 46.3743C5.37733 42.619 7.01272 39.0096 8.95204 35.541C10.8479 32.1404 12.9223 28.8612 15.3682 25.825C18.9381 21.3848 22.8891 17.3381 27.4865 13.957C34.9158 8.48689 43.1024 4.994 52.3455 4.21673C52.4709 4.20701 52.606 4.14871 52.7121 4.07584C53.1704 3.76979 53.6094 3.43459 54.0677 3.1334C56.0215 1.84603 58.0863 0.79185 60.3874 0.276905C60.9856 0.140881 61.6031 0.0923016 62.2109 0C62.4811 0 62.7513 0 63.0214 0C62.6114 1.3991 62.1965 2.7982 61.7623 4.27502C61.936 4.17786 62.0276 4.12442 62.1145 4.07099C63.4218 3.30343 64.7533 2.57473 66.2343 2.20066C66.6444 2.09865 67.0737 2.06464 67.5368 1.99177C67.4886 2.16666 67.4645 2.25896 67.4404 2.35612C67.2667 3.16254 67.0592 3.95925 66.929 4.77053C66.7843 5.65469 67.0592 6.42225 67.7443 7.01978C67.9903 7.23839 68.2363 7.45214 68.4872 7.66589C70.9909 9.78397 73.2873 12.1061 75.3231 14.6905C75.5402 14.9626 75.6366 15.4338 76.2011 15.2735C76.119 15.4046 76.0805 15.4727 76.0708 15.4824C76.8282 15.6913 77.5856 15.8953 78.314 16.0993C78.261 16.007 78.1886 15.8904 78.1163 15.7739C78.2127 15.735 78.2562 15.7301 78.2803 15.7496C78.8254 16.1479 79.3947 16.522 79.8964 16.9689C80.1858 17.2264 80.4319 17.3187 80.7937 17.173C80.9963 17.0904 81.2279 17.0855 81.4449 17.0466C81.4498 17.0758 81.4546 17.1049 81.4642 17.1341C81.1555 17.241 80.8516 17.3527 80.4994 17.479C80.9046 17.7559 81.2664 18.0134 81.6379 18.2514C81.7054 18.2951 81.8502 18.2709 81.9225 18.2271C82.2843 18.0037 82.6558 17.7899 82.979 17.5179C83.4856 17.0904 83.9535 16.6191 84.4215 16.1819C84.3009 17.2264 83.968 18.2028 83.0948 18.9364C84.6 18.368 85.7722 17.4644 86.2546 15.8322C86.3801 17.1001 86.0424 18.232 85.3381 19.2619C85.4056 19.2376 85.4683 19.2084 85.5117 19.1647C85.9314 18.7275 86.3463 18.2854 86.7757 17.8531C86.8432 17.7851 86.959 17.7608 87.0555 17.717C87.0699 17.8191 87.123 17.9405 87.0844 18.0231C86.9252 18.3729 86.7757 18.7421 86.5537 19.053C85.6323 20.3404 84.4552 21.2828 82.8536 21.652C82.979 22.3321 82.8102 22.9782 82.5449 23.6243C83.6303 23.5758 84.6675 23.5272 85.7095 23.4786C87.8563 23.3814 89.9644 23.5612 92.0051 24.2948C95.3868 25.5141 98.2331 27.5496 100.722 30.1195C100.901 30.3041 101.07 30.5032 101.267 30.717C100.693 30.9065 100.153 31.0862 99.6128 31.2659C99.0821 31.4408 98.5515 31.6206 97.987 31.81C101.663 34.0059 104.205 37.1344 106 40.9528C104.953 40.054 103.815 39.5002 102.483 39.9083C102.502 40.8265 102.584 41.7106 102.522 42.585C102.392 44.4845 101.813 46.2722 100.997 47.9823C99.854 50.3821 98.3489 52.539 96.6073 54.526C93.4378 58.1451 89.7908 61.1911 85.695 63.6881C83.0224 65.3155 80.2051 66.632 77.2672 67.6959C77.108 67.7542 76.944 67.8417 76.833 67.9631C76.1962 68.6481 75.4967 69.2505 74.72 69.7703C74.6525 69.8189 74.585 69.8723 74.5126 69.9257C74.8165 69.9257 75.1011 69.9355 75.3858 69.9257C76.9343 69.8577 78.3382 70.2658 79.5201 71.2714C80.1328 71.7961 80.731 72.3693 81.223 73.0057C83.3505 75.765 84.6675 78.9227 85.4587 82.299C86.216 85.5344 86.3945 88.8476 86.5055 92.1607C86.5972 94.0942 86.5779 96.0471 86.5972 98ZM31.3217 27.535C31.341 27.5642 31.3603 27.5933 31.3796 27.6225C31.3893 27.6225 31.3989 27.6273 31.4038 27.6273C33.9027 26.4954 36.4884 25.6258 39.1755 25.0672C39.2382 25.0526 39.3299 24.9846 39.3347 24.936C39.3733 24.5668 39.3878 24.1927 39.4167 23.809C39.2865 23.9158 39.19 24.0324 39.0694 24.0859C38.7317 24.2316 38.3843 24.3433 38.0418 24.4745C36.4836 25.0915 34.8337 25.4607 33.3768 26.3302C32.6966 26.7286 32.0068 27.1318 31.3217 27.535Z" fill="#1E2236"/>
    <path d="M56.9463 30C59.3803 30 61.3251 30.6292 62.7808 31.8876C64.2603 33.1461 65 34.8652 65 37.0449C65 39.3146 64.2364 41.0225 62.7092 42.1685C61.182 43.3146 59.1536 43.8876 56.6242 43.8876L56.481 46.5506H52.9374L52.7584 41.2584H53.9396C56.2543 41.2584 58.0201 40.9663 59.2371 40.382C60.478 39.7978 61.0984 38.6854 61.0984 37.0449C61.0984 35.8539 60.7286 34.9213 59.9888 34.2472C59.2729 33.573 58.2707 33.236 56.9821 33.236C55.6935 33.236 54.6793 33.5618 53.9396 34.2135C53.1999 34.8652 52.83 35.7753 52.83 36.9438H49C49 35.5955 49.3221 34.3933 49.9664 33.3371C50.6107 32.2809 51.5295 31.4607 52.7226 30.8764C53.9396 30.2921 55.3475 30 56.9463 30ZM54.6555 54C53.9157 54 53.2953 53.764 52.7942 53.2921C52.2931 52.8202 52.0425 52.236 52.0425 51.5393C52.0425 50.8427 52.2931 50.2584 52.7942 49.7865C53.2953 49.3146 53.9157 49.0787 54.6555 49.0787C55.3714 49.0787 55.9799 49.3146 56.481 49.7865C56.9821 50.2584 57.2327 50.8427 57.2327 51.5393C57.2327 52.236 56.9821 52.8202 56.481 53.2921C55.9799 53.764 55.3714 54 54.6555 54Z" fill="white"/>
</svg>
