<svg width="34" height="28" viewBox="0 0 34 28" fill="none" xmlns="http://www.w3.org/2000/svg">
    <path d="M33.1857 3.34142C33.1012 3.51598 32.9781 3.66481 32.8642 3.81915C32.0428 4.93263 31.0782 5.90279 29.9666 6.7278C29.9445 6.74433 29.9243 6.76271 29.9022 6.77557C29.8453 6.80864 29.8269 6.85274 29.8306 6.92073C29.8471 7.24411 29.8434 7.5675 29.8416 7.89089C29.8379 8.63688 29.7791 9.3792 29.6836 10.1178C29.509 11.4739 29.1912 12.7986 28.7428 14.0904C27.8811 16.569 26.6022 18.8089 24.8695 20.7823C22.7767 23.1672 20.2429 24.9165 17.2553 25.9987C16.1124 26.4121 14.9401 26.708 13.7421 26.899C13.1449 26.9946 12.5423 27.0589 11.9377 27.103C11.2377 27.1544 10.5395 27.1636 9.83757 27.1434C9.13751 27.1232 8.44113 27.0644 7.74658 26.9689C6.57982 26.809 5.43694 26.5444 4.31795 26.1769C3.17323 25.8003 2.07262 25.3189 1.01793 24.7364C0.711083 24.5674 0.409746 24.3891 0.11392 24.2035C0.073497 24.1778 0.0367485 24.1503 0 24.1117C2.87924 24.4057 5.59312 23.8838 8.13795 22.5094C8.79575 22.1548 9.41864 21.7451 10.0305 21.2618C8.16735 21.181 6.59084 20.5122 5.29546 19.2113C4.54211 18.4542 4.00742 17.5613 3.66382 16.5213C4.18565 16.5966 4.68727 16.6572 5.19256 16.6315C5.69785 16.6076 6.19763 16.5452 6.68455 16.3963C4.87836 15.9719 3.43966 15.0109 2.40335 13.4711C1.53976 12.1868 1.24577 10.7665 1.26782 9.64746C1.31192 9.6199 1.34499 9.65665 1.37807 9.67319C1.94951 9.97453 2.54851 10.1932 3.18058 10.3255C3.55358 10.4026 3.93025 10.4504 4.33265 10.4633C2.40886 9.05949 1.37623 7.19818 1.3303 4.82239C1.30641 3.58764 1.62796 2.43741 2.23798 1.36619C2.29678 1.38273 2.31699 1.42499 2.34455 1.45806C3.52786 2.88942 4.88755 4.12784 6.42547 5.16966C8.01852 6.25007 9.73651 7.07139 11.5758 7.641C12.5239 7.93498 13.4904 8.1518 14.4716 8.29696C15.0356 8.37964 15.6016 8.43293 16.1712 8.47519C16.331 8.48621 16.3292 8.48621 16.298 8.33003C16.1528 7.60792 16.1142 6.88214 16.2024 6.14901C16.377 4.6956 16.9502 3.42227 17.9333 2.34003C18.9328 1.23941 20.1676 0.541188 21.6247 0.236175C22.2126 0.113068 22.808 0.0708071 23.4051 0.109393C24.8769 0.204939 26.1906 0.715743 27.3354 1.65099C27.5301 1.81085 27.7194 1.97622 27.8884 2.1618C27.9527 2.23162 28.017 2.24448 28.1016 2.22611C28.9449 2.04604 29.7681 1.79615 30.5656 1.46541C31.126 1.2339 31.668 0.963795 32.1935 0.66062C32.2211 0.645921 32.245 0.623872 32.278 0.622034C32.2799 0.936234 31.6643 2.11035 31.1627 2.74242C30.6593 3.37817 30.0603 3.90735 29.3473 4.34833C29.4227 4.36487 29.4705 4.35017 29.5182 4.34282C29.566 4.33547 29.6156 4.33363 29.6652 4.32628C30.8467 4.14989 31.9877 3.83202 33.0865 3.3598C33.1159 3.34694 33.1416 3.3304 33.1765 3.33407L33.1857 3.34142Z" fill="white"/>
</svg>
