<?xml version="1.0" encoding="utf-8"?>
<!-- Generator: Adobe Illustrator 24.3.0, SVG Export Plug-In . SVG Version: 6.00 Build 0)  -->
<svg version="1.1" id="Layer_1" xmlns="http://www.w3.org/2000/svg" xmlns:xlink="http://www.w3.org/1999/xlink" x="0px" y="0px"
	 viewBox="0 0 16 16" style="enable-background:new 0 0 16 16;" xml:space="preserve">
<style type="text/css">
	.st0{fill:#FB2D88;}
</style>
<path class="st0" d="M15.8,7.6c-0.1-0.2-0.2-0.4-0.5-0.5C15.2,7,15.1,7,15.1,7c-0.1,0-0.1-0.1-0.2-0.1c0,0,0,0,0-0.1
	c0,0,0.1,0,0.1,0c0.1,0,0.2,0,0.4,0.1c0.1,0,0.1,0,0.1-0.1c0,0,0-0.1-0.1-0.1c0,0-0.1-0.1-0.1-0.1c-0.1-0.1-0.2-0.3-0.3-0.4
	c-0.1-0.2-0.3-0.4-0.6-0.5c0,0,0,0,0,0c0.2,0,0.4,0.1,0.6,0.2c0,0,0.1,0,0.1,0c0,0,0.1-0.1,0.1-0.1c0-0.1,0-0.3-0.1-0.4
	c-0.1-0.2-0.3-0.5-0.5-0.7c0,0,0,0,0,0c0,0,0.1,0,0.1,0c0,0,0.1,0.1,0.1,0.1c0,0,0.1,0,0.1,0c0,0,0-0.1,0-0.1
	c-0.1-0.1-0.1-0.2-0.2-0.3c-0.1-0.2-0.2-0.4-0.2-0.5c0-0.1-0.1-0.2-0.1-0.3C14.2,3.3,14,3.1,13.8,3c0,0,0,0,0,0c0-0.1,0-0.1,0-0.2
	c0-0.1,0-0.1,0-0.2c0-0.1,0.1-0.2,0.1-0.4c0-0.2,0.1-0.4,0.2-0.5c0.3-0.4,0.5-0.9,0.7-1.4c0-0.1,0-0.1,0.1-0.2c0,0,0-0.1,0-0.1
	c0,0-0.1,0-0.1,0c-0.1,0-0.2,0-0.3,0c-0.1,0-0.2,0-0.2,0c-0.1,0-0.2,0.1-0.3,0.1c-0.2,0.1-0.4,0.2-0.6,0.4c-0.2,0.1-0.3,0.2-0.5,0.4
	c0,0,0,0,0,0c-0.1-0.1-0.2-0.1-0.3-0.1c-0.1,0-0.1,0.1-0.2,0.1c0,0,0,0-0.1,0.1c0,0,0,0,0,0c0,0,0.1-0.1,0.1-0.1c0,0,0-0.1,0-0.1
	c0,0-0.1-0.1-0.1,0c0,0-0.1,0-0.1,0c-0.1,0.1-0.2,0.1-0.3,0.2c0,0,0,0-0.1,0c0-0.1-0.1-0.1-0.2-0.1c-0.1,0-0.3,0.1-0.4,0.1
	c-0.2,0-0.4,0.1-0.5,0.3c0,0,0,0.1-0.1,0.1c0-0.1,0.1-0.2,0.2-0.3c0,0,0-0.1,0-0.1c0,0-0.1,0-0.1-0.1c0,0,0,0,0,0
	c-0.1,0-0.3,0.1-0.4,0.1c-0.1,0-0.1,0.1-0.2,0.1c0,0-0.1,0.1-0.1,0.1c0,0,0-0.1,0-0.1c0-0.1,0-0.2,0-0.3c0-0.1,0-0.1-0.1-0.1
	c0,0-0.1,0-0.1,0C9.8,0.8,9.6,0.9,9.5,1.1c0,0,0,0,0,0C9.4,1,9.2,0.8,9,0.6c0,0-0.1,0-0.1,0c0,0-0.1,0.1,0,0.1c0,0,0,0.1,0,0.1
	C9,0.9,9,1,9,1.1C8.9,1.1,8.8,1,8.7,1c0,5,0,10,0,15h4.6c0-0.1,0-0.1,0-0.2c0-0.1-0.1-0.2-0.1-0.3c-0.1-0.4-0.3-0.8-0.6-1.1
	c-0.3-0.3-0.6-0.5-1-0.6c-0.1,0-0.2-0.1-0.3-0.1c-0.1,0-0.3-0.1-0.4-0.2c-0.2-0.2-0.4-0.4-0.5-0.6c-0.2-0.4-0.3-0.8-0.3-1.2
	c0,0,0-0.1,0-0.1c0.2,0,0.3,0,0.5-0.1c0.3,0,0.5-0.1,0.8-0.1c0.3-0.1,0.6-0.2,0.9-0.5c0,0,0,0,0.1-0.1c0.1-0.1,0.2-0.3,0.3-0.4
	c0.1-0.2,0.3-0.5,0.4-0.7c0,0,0,0,0.1,0c0.2,0,0.3,0.1,0.4,0.2c0.1,0.1,0.2,0.2,0.3,0.2c0,0,0.1,0,0.2,0c0.1,0,0.1-0.1,0.1-0.1
	c0,0,0,0,0-0.1C14,9.8,14,9.7,14,9.5c0.1,0.1,0.1,0.1,0.1,0.2c0,0,0,0.1,0.1,0.1c0.1,0.1,0.1,0.1,0.2,0c0,0,0-0.1,0.1-0.1
	c0.1-0.3,0.1-0.5-0.2-0.8c0,0,0,0,0,0c0,0,0,0,0,0c0.1,0,0.2,0,0.3,0c0.2,0,0.4,0,0.6,0c0,0,0.1,0,0.1,0c0.1-0.1,0.1-0.1,0-0.2
	c0-0.1-0.1-0.2-0.3-0.3c-0.1,0-0.1-0.1-0.2-0.1c0,0,0.1-0.1,0.1-0.1c0.1-0.1,0.2-0.1,0.3-0.1c0.2,0,0.3,0,0.5,0c0.1,0,0.2,0,0.1-0.1
	C15.9,7.8,15.8,7.7,15.8,7.6z M10.5,6.1c-0.5,0-0.9-0.4-0.9-0.9s0.4-0.9,0.9-0.9s0.9,0.4,0.9,0.9S11,6.1,10.5,6.1z"/>
<path class="st0" d="M1.5,12.9c0.1-0.1,0.2-0.2,0.3-0.3C2,12,2.3,11.5,2.5,10.9c0.3-0.8,0.5-1.5,0.6-2.3c0,0,0-0.1,0.1-0.1
	C3.4,8.2,3.7,8,3.9,7.8c0.2-0.1,0.3-0.2,0.5-0.3c0.1,0,0.2-0.1,0.3-0.1c0,0,0,0,0,0c0,0,0,0,0,0C4.5,7.6,4.3,7.7,4.1,7.9
	C3.8,8.2,3.5,8.6,3.3,9.1c0,0,0,0,0,0.1C3.2,9.3,3.1,9.4,3,9.5c0,0,0,0,0,0.1c0,0,0,0,0,0c0.1-0.1,0.2-0.3,0.3-0.4c0,0,0,0,0,0
	c0,0,0,0,0,0c-0.1,0.2-0.1,0.5,0,0.7c0,0.1,0,0.1,0,0.2c0,0,0,0,0,0c0,0,0,0,0,0c0,0,0,0,0,0c0,0,0,0,0,0c0.1,0.4,0.3,0.8,0.6,1.1
	c0.4,0.4,0.8,0.6,1.3,0.8c0.4,0.2,0.9,0.3,1.4,0.4c0,0,0.1,0,0.1,0.1c0,0.2,0.1,0.3,0.1,0.5c0,0.2,0,0.4,0,0.6
	c0,0.3-0.1,0.6-0.2,0.9c-0.1,0.5-0.3,0.9-0.6,1.3c0,0-0.1,0.1-0.1,0.1c-0.1,0.1-0.2,0.1-0.3,0.2h2.2c0-2.8,0-5.6,0-8.4
	c0-1.9,0-3.9,0-5.8c0,0,0-0.1,0-0.1C7.7,1.6,7.6,1.5,7.6,1.4c0-0.1,0-0.1-0.1-0.2c0-0.1-0.1-0.1-0.2-0.1C7.3,1,7.2,1,7.1,1
	C6.7,0.9,6.3,1,6,1.2C5.6,1.4,5.4,1.6,5.1,1.8C5,1.9,5,2,4.9,2c0,0,0,0,0,0C4.6,1.7,4.3,1.4,4,1.1C3.9,1,3.8,0.9,3.7,0.8
	C3.5,0.7,3.3,0.7,3.1,0.7C2.8,0.8,2.6,0.9,2.5,1c-0.4,0.3-0.7,0.7-1,1.1C1.2,2.7,0.9,3.2,0.7,3.8C0.5,4.6,0.3,5.4,0.2,6.2
	C0.2,6.7,0.1,7.2,0.1,7.8c0,0.7,0,1.4,0.1,2c0.1,0.8,0.3,1.6,0.6,2.3c0.1,0.3,0.2,0.5,0.4,0.8C1.3,13,1.4,13,1.5,12.9z M6.2,4.3
	c0.5,0,0.9,0.4,0.9,0.9S6.7,6.1,6.2,6.1c-0.5,0-0.9-0.4-0.9-0.9S5.7,4.3,6.2,4.3z M3.5,6.4c0.2,0.2,0.4,0.3,0.6,0.4
	C4.3,6.9,4.6,7,4.8,7c0,0.1,0,0.2,0,0.3c0,0,0,0,0,0c-0.2,0-0.4,0.1-0.5,0.2C4,7.6,3.8,7.8,3.6,7.9C3.5,8.1,3.3,8.3,3.2,8.4
	c0,0,0,0,0,0C3.3,7.8,3.4,7.1,3.5,6.4z"/>
</svg>
