<svg width="136" height="185" viewBox="0 0 136 185" fill="none" xmlns="http://www.w3.org/2000/svg">
    <path d="M31.6292 133.228C32.3492 141.428 34.5092 149.638 38.7392 156.748C40.8392 160.268 43.4492 163.498 46.5392 166.198C49.9892 169.218 53.9092 171.368 58.0792 173.238C59.1692 173.728 60.2792 174.188 61.3892 174.618C62.0992 174.788 62.8092 174.978 63.5092 175.168C64.6992 175.488 65.8892 175.808 67.0992 176.048C68.3192 176.288 69.5692 176.428 70.8092 176.508C71.2792 176.538 71.7492 176.538 72.2092 176.518C72.9692 176.418 73.7292 176.258 74.4692 176.058C74.6092 176.008 74.7492 175.948 74.8892 175.888C74.9592 175.858 75.0292 175.858 75.0892 175.878C75.8692 175.638 76.6392 175.348 77.3892 175.018C77.8192 174.828 78.2392 174.618 78.6592 174.408C78.9892 174.238 79.3092 174.058 79.6292 173.868C79.7092 173.818 79.7992 173.778 79.8792 173.728C82.3792 172.268 84.6592 170.418 86.7192 168.398C88.8492 166.308 90.6992 163.988 92.3792 161.528C92.3792 161.538 92.3692 161.538 92.3692 161.548C92.8392 160.858 93.2992 160.168 93.7492 159.458C93.8992 160.088 94.2192 160.708 94.4892 161.258C94.5192 161.318 94.5592 161.378 94.5892 161.448C94.6692 161.588 94.7492 161.738 94.8192 161.878C94.8592 161.948 94.8892 162.018 94.9292 162.088C94.9292 162.098 94.9192 162.098 94.9192 162.108C95.0292 162.368 95.1192 162.648 95.2192 162.918C96.1992 164.608 96.8392 166.478 97.5192 168.288C97.8692 169.218 98.1892 170.148 98.3192 171.128C98.3792 171.598 98.4092 172.058 98.4092 172.528C98.4092 173.008 98.3592 173.478 98.3992 173.958C98.5192 175.598 99.4392 177.038 100.899 177.818C102.759 178.808 104.929 178.698 106.879 178.078C107.619 177.848 108.369 177.558 109.139 177.328C109.309 177.278 109.479 177.238 109.649 177.188C109.729 177.168 109.819 177.148 109.899 177.128C110.059 177.098 110.219 177.068 110.379 177.038C110.469 177.028 110.559 177.008 110.639 176.998C110.809 176.978 110.969 176.968 111.139 176.968C111.219 176.968 111.299 176.958 111.379 176.958C111.619 176.958 111.869 176.978 112.109 177.028C112.369 177.388 112.629 177.758 112.799 178.158C112.849 178.288 112.889 178.418 112.909 178.558C112.919 178.588 112.919 178.628 112.919 178.668C112.929 178.768 112.949 178.878 112.949 178.988C112.959 179.238 112.949 179.498 112.939 179.748C112.939 180.258 112.989 180.768 113.189 181.248C113.389 181.708 113.679 182.108 114.009 182.458C114.669 183.348 115.729 183.938 116.839 184.158C117.759 184.488 118.819 184.508 119.689 184.208C121.449 183.598 122.909 182.378 124.479 181.418C126.149 180.388 127.929 179.548 129.639 178.588C130.469 178.128 131.299 177.638 132.189 177.288C132.789 177.058 133.419 176.898 133.959 176.548C134.069 176.478 134.169 176.388 134.259 176.298C134.289 176.268 134.319 176.228 134.349 176.188C134.399 176.128 134.449 176.068 134.489 175.998C134.519 175.948 134.549 175.898 134.569 175.848C134.599 175.788 134.619 175.728 134.629 175.658C134.649 175.598 134.659 175.548 134.669 175.478C134.669 175.468 134.679 175.458 134.679 175.448C134.679 175.448 134.669 175.448 134.669 175.458C134.679 175.348 134.679 175.228 134.659 175.108C134.609 174.848 134.449 174.598 134.239 174.418C134.449 174.248 134.639 174.058 134.759 173.818C134.939 173.478 135.009 173.048 134.859 172.678C134.809 172.548 134.719 172.438 134.629 172.338C135.109 171.918 135.539 171.358 135.339 170.718C135.269 170.488 135.129 170.308 134.949 170.188C135.129 169.958 135.279 169.698 135.329 169.418C135.409 168.988 135.259 168.538 134.949 168.228C134.789 168.068 134.589 167.978 134.389 167.948C134.439 167.838 134.469 167.738 134.499 167.638C134.599 167.278 134.599 166.888 134.409 166.558C134.179 166.158 133.719 165.978 133.269 165.948C132.739 165.898 132.229 166.118 131.819 166.438C131.619 166.598 131.419 166.788 131.249 166.988C131.109 167.158 130.989 167.338 130.849 167.498C130.809 167.488 130.779 167.498 130.749 167.518C130.249 167.968 129.579 167.998 128.949 168.108C128.189 168.248 127.469 168.518 126.729 168.718C126.049 168.898 125.349 168.988 124.659 169.088C123.969 169.188 123.269 169.258 122.579 169.318C121.379 169.418 120.079 169.458 118.909 169.118C118.399 168.968 117.929 168.698 117.589 168.288C117.249 167.888 117.029 167.378 116.839 166.888C116.789 166.618 116.739 166.348 116.689 166.078C116.479 165.028 116.259 163.978 116.139 162.918C116.019 161.828 115.929 160.728 115.859 159.628C115.709 157.428 115.599 155.228 115.409 153.028C115.029 148.638 114.409 144.268 113.759 139.918C113.209 136.238 112.599 132.548 111.519 128.988C110.989 127.238 110.349 125.518 109.509 123.888C108.829 122.568 108.079 121.258 107.169 120.078C107.179 120.078 107.179 120.088 107.189 120.088C107.009 119.858 106.829 119.628 106.639 119.418C106.059 118.758 105.409 118.108 104.649 117.648C103.979 117.238 103.239 116.998 102.469 116.898C102.489 116.818 102.509 116.738 102.539 116.658C103.059 115.048 104.199 113.808 105.699 113.048C106.999 112.398 108.469 112.138 109.919 112.098C109.879 111.928 109.829 111.768 109.789 111.598H109.799C109.719 111.248 109.629 110.908 109.519 110.558C109.429 110.278 109.339 109.988 109.249 109.698C109.239 109.658 109.219 109.618 109.209 109.578C109.129 109.328 109.039 109.068 108.949 108.808C108.929 108.758 108.909 108.698 108.889 108.648C108.799 108.408 108.699 108.168 108.599 107.938C108.569 107.878 108.539 107.808 108.509 107.748C108.449 107.618 108.399 107.488 108.329 107.368C108.319 107.368 108.319 107.368 108.309 107.368C108.239 107.238 108.179 107.108 108.109 106.988C108.069 106.998 108.019 107.008 107.969 107.018C107.649 107.078 107.319 107.138 106.999 107.228C106.999 107.228 106.999 107.228 106.989 107.228C105.169 107.458 103.389 107.998 101.789 108.898C101.809 108.458 101.719 108.018 101.549 107.608C101.479 107.438 101.379 107.268 101.279 107.108C101.299 107.098 101.309 107.088 101.329 107.078C101.739 106.638 101.629 105.898 101.489 105.378C101.319 104.758 101.029 104.168 100.729 103.608C100.419 103.048 100.029 102.508 99.5592 102.058C99.4292 101.858 99.2892 101.668 99.1292 101.488C98.9792 101.318 98.8092 101.148 98.6392 101.008C97.9692 100.428 97.1892 99.998 96.3492 99.748C96.3692 99.698 96.3892 99.658 96.4092 99.608C96.7292 98.858 97.0192 98.098 97.3292 97.338C98.1792 95.248 98.8992 93.108 99.5892 90.958C100.139 89.238 100.649 87.488 101.019 85.718C101.799 85.858 102.559 85.728 103.229 85.178C104.219 84.378 104.919 83.148 105.479 82.028C106.019 80.938 106.459 79.788 106.699 78.588C106.899 77.608 107.039 76.478 106.599 75.538C106.349 75.018 105.919 74.658 105.419 74.538C105.439 74.488 105.459 74.438 105.469 74.388C105.499 74.198 105.479 74.008 105.449 73.828C105.379 73.468 105.229 73.108 104.979 72.838C104.949 72.798 104.909 72.778 104.869 72.748C104.799 72.698 104.729 72.648 104.649 72.618C104.579 72.588 104.499 72.558 104.419 72.548C104.399 72.548 104.379 72.548 104.359 72.538C104.299 72.528 104.229 72.518 104.169 72.518C104.079 72.518 103.989 72.528 103.899 72.558C103.839 72.568 103.789 72.598 103.729 72.618C103.729 72.588 103.719 72.558 103.709 72.528C103.619 72.158 103.329 71.818 103.019 71.608C102.849 71.498 102.659 71.408 102.449 71.378C102.309 71.358 102.109 71.338 101.979 71.428C101.469 70.898 101.009 70.318 100.779 69.608C100.519 68.788 100.659 67.918 100.889 67.108C101.149 66.178 101.559 65.308 102.019 64.458C102.869 62.898 103.849 61.418 104.579 59.798C105.839 56.988 106.519 53.898 106.779 50.848C107.049 47.668 106.859 44.438 106.059 41.348C105.859 40.588 105.629 39.848 105.349 39.108C105.359 39.098 105.369 39.078 105.359 39.048C105.179 38.258 104.919 37.478 104.609 36.728C103.279 33.508 100.839 30.808 98.1492 28.648C95.2592 26.318 91.8892 24.678 88.4592 23.328C84.7192 21.858 80.7792 20.838 76.7592 20.618C73.3092 20.428 69.7992 20.848 66.5592 22.098C65.4492 22.528 64.3892 23.078 63.3592 23.688C63.3892 23.668 63.4092 23.638 63.4392 23.618C63.2492 23.728 63.0792 23.848 62.8892 23.958C62.7492 24.048 62.6092 24.128 62.4792 24.218C61.9692 24.558 61.4692 24.918 60.9792 25.298C60.8692 25.388 60.7492 25.478 60.6392 25.568C60.1292 25.978 59.6392 26.408 59.1692 26.858C57.0692 28.908 55.3592 31.328 54.0992 33.978C52.8092 36.688 51.9692 39.598 51.6092 42.578C51.1792 46.178 51.5192 49.788 52.2092 53.338C52.6092 55.388 53.1292 57.408 53.6292 59.438C54.1292 61.458 54.6492 63.518 54.8192 65.598C55.0192 68.118 54.0692 70.458 52.6192 72.458C51.6192 73.478 50.5692 74.448 49.5492 75.448C47.5292 77.418 45.5892 79.428 43.9692 81.748C42.3692 84.038 41.0392 86.498 39.8392 89.018C37.3792 94.188 35.4892 99.618 34.1092 105.168C31.8792 114.338 30.7992 123.838 31.6292 133.228ZM96.9892 117.868C96.9092 117.898 96.8292 117.928 96.7392 117.958C93.7692 119.118 91.0992 120.908 88.6292 122.908C87.5992 122.818 86.5692 122.738 85.5392 122.728C85.5092 122.708 85.4792 122.688 85.4492 122.678C84.8492 122.328 84.1992 122.068 83.5192 121.908C83.5292 121.558 83.5392 121.208 83.5292 120.848C83.4992 119.958 83.4092 119.018 83.1292 118.168C83.3192 118.058 83.4992 117.948 83.6792 117.838C86.4492 116.138 88.9092 113.958 91.1292 111.578C91.4292 111.758 91.7492 111.908 92.0892 112.008C92.6992 112.188 93.3492 112.178 93.9592 112.028C94.5592 111.878 95.1092 111.578 95.6592 111.288C95.9792 111.118 96.2992 110.958 96.6392 110.828C96.6392 111.188 96.7092 111.558 96.8292 111.868C96.8892 112.028 96.9692 112.188 97.0692 112.328C97.0892 112.358 97.1092 112.388 97.1292 112.418C97.2292 112.558 97.3492 112.688 97.4792 112.798C97.5692 112.868 97.6692 112.938 97.7692 112.998C97.8792 113.058 97.9992 113.088 98.1092 113.128C97.8292 113.928 97.6392 114.768 97.4792 115.588C97.3392 116.328 97.1892 117.098 96.9892 117.868ZM72.1392 78.658C72.7792 78.658 73.3992 78.988 73.9392 79.298C74.5192 79.638 75.0892 79.998 75.6692 80.328C77.8992 81.618 80.2092 82.818 82.7192 83.458C85.1592 84.078 87.7492 84.058 90.1092 83.108C91.4892 82.548 92.7292 81.728 93.8292 80.748C93.8492 80.858 93.8792 80.958 93.8992 81.038C93.9692 81.268 94.0592 81.488 94.1692 81.708C93.7692 82.328 93.3892 82.968 92.9992 83.588C91.5392 85.908 90.0692 88.218 88.5492 90.508C88.2492 90.958 87.9492 91.418 87.6392 91.868C87.2992 91.708 86.9692 91.538 86.6392 91.348C85.1792 90.488 83.8392 89.428 82.4092 88.508C80.9292 87.548 79.4392 86.598 78.0392 85.518C76.6292 84.438 75.2392 83.338 73.7792 82.328C73.1192 81.868 72.4592 81.468 71.7092 81.168C71.4692 81.068 71.2192 80.978 70.9692 80.878C70.7892 80.808 70.6192 80.738 70.4392 80.658C70.3892 80.638 70.3392 80.618 70.2892 80.588C70.0892 80.498 69.8992 80.398 69.7092 80.278C69.7492 80.188 69.7892 80.108 69.8392 80.018C69.8592 79.988 69.8592 79.968 69.8492 79.938C70.3992 79.208 71.2192 78.658 72.1392 78.658Z" fill="#01193C"/>
    <path d="M83.8441 0.147633C84.2193 0.17853 84.5944 0.209427 84.9717 0.250096C84.5956 1.2019 84.2097 2.15583 83.8336 3.10763C83.5648 3.80066 83.308 4.50133 83.0249 5.26914C83.202 5.18964 83.2933 5.13905 83.3966 5.09611C84.8617 4.39846 86.3396 3.75943 87.9259 3.38336C88.6859 3.20765 89.4447 3.07316 90.2273 3.18933C89.9272 4.11434 89.6326 5.01768 89.35 5.92867C88.9264 7.32064 89.1706 8.53651 90.2803 9.54351C90.6109 9.83995 90.911 10.184 91.2339 10.4923C96.973 16.2635 101.294 22.9473 104.078 30.6105C104.179 30.8854 104.302 30.9813 104.6 30.988C106.405 31.0045 108.217 31.009 110.021 31.0667C112.792 31.1491 115.487 31.6368 118.018 32.8256C121.018 34.2399 123.612 36.1926 125.908 38.5583C126.793 39.4711 127.602 40.4616 128.508 41.472C127.048 41.8205 125.704 42.1336 124.313 42.4671C128.559 45.5137 131.336 49.5758 133.123 54.3961C131.941 53.2001 130.623 52.4124 128.86 52.7757C128.87 53.2444 128.91 53.7066 128.896 54.1599C128.857 56.0514 128.39 57.8521 127.672 59.5845C126.311 62.8793 124.231 65.6861 121.811 68.2496C118.503 71.7638 114.722 74.7055 110.614 77.227C105.008 80.6684 98.9759 83.0461 92.5393 84.3656C91.1475 84.6482 89.7294 84.9978 88.316 85.0395C86.1811 85.1052 84.0393 84.9983 81.9107 84.858C77.6557 84.587 73.418 84.0665 69.1913 83.5028C65.5662 83.023 61.9798 82.3915 58.4765 81.3428C56.3197 80.6968 54.1816 79.9956 52.173 78.949C48.7672 77.1728 45.5949 75.0593 42.6138 72.6483C40.5017 70.9385 38.478 69.1173 36.842 66.915C36.7978 66.8529 36.734 66.7952 36.6563 66.72C36.5667 66.8726 36.5042 67.009 36.418 67.1301C35.3908 68.6637 34.4328 70.2334 33.332 71.7114C31.088 74.7074 28.4377 77.3415 25.6297 79.8155C23.3705 81.8016 20.997 83.6385 18.3722 85.1209C17.5057 85.6063 16.5486 85.958 15.6004 86.2565C14.814 86.4994 14.3015 86.1197 14.0804 85.3389C13.9906 85.0207 13.9302 84.6961 13.8991 84.3651C13.7043 82.2481 13.8294 80.1433 14.2332 78.0495C14.251 77.9433 14.2786 77.8349 14.2942 77.719C14.1562 77.7899 14.0755 77.8894 13.9927 77.9791C12.3185 79.8787 10.6022 81.7261 8.50258 83.176C7.34721 83.9802 6.14039 84.642 4.69293 84.7627C3.69794 84.8463 2.86512 84.5466 2.2535 83.7587C2.02483 83.4605 1.82887 83.1245 1.68389 82.7876C1.05337 81.3488 0.944976 79.8168 0.936422 78.2733C0.923373 73.2307 1.7006 68.2923 3.11514 63.4608C4.48256 58.7419 6.3416 54.2127 8.38038 49.757C10.3402 45.5027 12.6485 41.4386 15.2835 37.5592C17.9589 33.6302 20.8451 29.8701 24.1507 26.4383C27.8746 22.5777 31.8447 19.0013 36.2508 15.9235C40.6841 12.8296 45.3563 10.1749 50.4212 8.24316C57.2246 5.64642 64.2317 4.07989 71.5559 4.20463C71.6991 4.20416 71.8511 4.15058 71.9794 4.08172C72.7666 3.65449 73.5333 3.18053 74.3344 2.77071C76.6814 1.5638 79.1215 0.643647 81.7458 0.287219C82.4327 0.199057 83.1367 0.189065 83.8441 0.147633ZM43.4065 30.2696C43.4226 30.2968 43.429 30.3261 43.4473 30.3631C43.4864 30.3546 43.5233 30.3363 43.5624 30.3278C46.692 29.2371 49.8918 28.4688 53.1844 28.0794C53.2744 28.07 53.4125 27.999 53.429 27.934C53.5198 27.5049 53.5673 27.0647 53.6398 26.5986C53.4809 26.7151 53.373 26.8307 53.2384 26.8702C52.2957 27.1471 51.3658 27.4826 50.4095 27.6499C48.6575 27.9699 46.9964 28.5669 45.3686 29.2693C44.6949 29.5593 44.0598 29.9329 43.4065 30.2696Z" fill="#01193C"/>
</svg>
