<svg id="eNZnr3yBRAk1" xmlns="http://www.w3.org/2000/svg" xmlns:xlink="http://www.w3.org/1999/xlink" viewBox="0 0 485.57 362.27" shape-rendering="geometricPrecision" text-rendering="geometricPrecision"><g id="eNZnr3yBRAk2" opacity="0"><g><path d="M271.08,296.6c2.55.73,4.56,1.15,6.41,1.94.6.26.77,1.5,1.13,2.3-.69.21-1.37.61-2.06.61-2.94,0-4.57-1.23-5.48-4.85Z" fill="#fff"/></g></g><g id="eNZnr3yBRAk5" opacity="0"><g><path d="M293.05,301.72c-3.73,1.71-18.38-.34-20.37-2.73c3.24-2.43,18.33-.51,20.37,2.73Z" fill="#fff"/><path d="M195.1,243.85c-3.03,1.41-6.05,2.82-9.08,4.23-.1-.2-.19-.4-.29-.6c3-1.44,5.99-2.88,8.99-4.31.13.22.25.45.38.68Z" fill="#fff"/></g></g><g id="eNZnr3yBRAk9" opacity="0"><g><path d="M280.7,299.03c4.52-2.81,34.77,1.86,37.53,5.8-4.2,2.28-35.76-2.6-37.53-5.8Z" fill="#fff"/><path d="M163.62,257.97c9.68-4.67,19.37-9.33,29.05-14c.15.31.29.61.44.92-9.64,4.75-19.29,9.5-28.93,14.24-.19-.38-.37-.77-.56-1.16Z" fill="#fff"/></g></g><g id="eNZnr3yBRAk13" opacity="0"><g><path d="M296.42,299.75c1.05-.15,2.12-.47,3.16-.41c14.54.86,29.1,1.48,43.6,2.82c5.45.5,10.76,2.62,16.07,4.23c1.49.45,2.74,1.7,4.1,2.58-.09.36-.18.72-.27,1.08-1.7.14-3.43.53-5.11.37-12.28-1.21-24.55-2.41-36.8-3.86-6.54-.78-13.04-1.95-19.52-3.19-1.95-.37-3.74-1.58-5.61-2.41.13-.41.25-.81.38-1.21Z" fill="#fff"/><path d="M180.38,251.05c-21.04,10.04-39.82,24.34-61.67,32.84c1.57-3.68,56.22-32.66,61.67-32.84Z" fill="#fff"/><path d="M286.76,299.18c1.79-.22,3.3.1,4.1,1.82-.14.3-.28.61-.42.91-1.37-.6-2.75-1.2-4.12-1.8.14-.3.29-.61.44-.93Z" fill="#fff"/></g></g><g id="eNZnr3yBRAk18" opacity="0"><g><path d="M353.84,302.99c4.58-.38,8.66-.56,12.69-1.09c7.55-.99,15.11-2.03,22.6-3.38c2.37-.43,4.71-1.65,6.79-2.94c3.77-2.34,4.48-6.8,1.32-9.9-2.97-2.91-6.38-5.46-9.86-7.77-13.81-9.16-29.18-15.15-44.35-21.54-1.19-.5-2.28-1.21-3.42-1.82.06-.37.12-.74.19-1.11c1.6-.13,3.25-.58,4.79-.34c5.84.89,11.7,1.73,17.44,3.07c20.92,4.91,41.05,12.15,60.24,21.82c5.7,2.88,10.98,6.65,16.26,10.29c1.84,1.27,3.36,3.22,4.58,5.15c2.31,3.66,1.61,7.34-2.28,9.12-4.55,2.08-9.43,3.65-14.32,4.77-14.16,3.24-28.6,3.4-43.01,2.66-7.17-.37-14.31-1.46-21.44-2.44-3.51-.47-6.5-2.23-8.22-4.55Z" fill="#fff"/><path d="M125.17,282.36c-3.12,2.21-6.3,4.33-9.35,6.64-9.48,7.2-19.01,14.35-28.29,21.8-3.17,2.55-5.77,5.85-8.43,8.98-1.14,1.34-1.98,3.03-2.59,4.69-1.12,3.07-.05,5.36,3.12,6.17c2.45.63,5.11.98,7.62.77c8.88-.75,17.74-1.82,26.61-2.7.93-.09,1.91.26,2.87.41-.41.98-.59,2.16-1.26,2.92-4.81,5.46-11.17,8.75-17.53,11.9-15.64,7.75-32.4,11.56-49.63,13.49-3.19.36-6.54.11-9.71-.46-4.95-.9-6.67-4.1-4.26-8.46c2.13-3.85,4.82-7.53,7.84-10.73c9.7-10.27,20.88-18.78,32.54-26.71c14.24-9.69,28.63-19.15,43.99-27.02c1.94-1,4.04-1.68,6.07-2.52.12.28.25.56.39.83Z" fill="#fff"/><path d="M331.26,302.91c3.59-1.72,13.73.83,15.82,3.97-3.39,2.06-13.92-.58-15.82-3.97Z" fill="#fff"/><path d="M134.72,274.51c4.05-3.22,8.64-5.4,13.79-7.09-1.45,2.37-10.02,6.8-13.79,7.09Z" fill="#fff"/><path d="M254.38,257.04c2.11.42,3.58.71,5.61,1.12-2.52,1.66-3.68,1.43-5.61-1.12Z" fill="#fff"/></g></g><g id="eNZnr3yBRAk25" opacity="0"><g><path d="M42.95,351.41c.96-1,1.8-2.16,2.9-2.98c7.4-5.49,15.36-9.96,24.2-12.73c1.3-.4,2.69-.78,4.02-.72c14.87.58,29.27-2.29,43.24-6.83c16.78-5.45,33.3-11.72,49.88-17.77c10.3-3.76,20.48-7.84,30.77-11.63c2.47-.91,5.13-1.38,7.74-1.77c1.86-.28,2.79,1.05,1.71,2.51-1.25,1.7-2.9,3.5-4.77,4.29-13.21,5.52-26.48,10.88-39.8,16.12-17.71,6.96-35.42,13.95-53.26,20.57-15.36,5.7-30.97,10.68-47.29,12.91-3.47.47-7.02.76-10.51.6-2.89-.13-5.75-1.04-8.62-1.6-.07-.32-.14-.65-.21-.97Z" fill="#fff"/><path d="M432.36,290.34c-2.93-.18-5.89-.15-8.78-.58-10.02-1.49-19.54-4.56-28.16-9.95-17.06-10.67-35.52-18.19-54.53-24.47-27.7-9.15-55.9-16.26-84.76-20.67-3.29-.5-6.6-.9-9.9-1.39-.69-.1-1.36-.4-2.04-.6.03-.3.06-.59.1-.89c3.16.19,6.33.21,9.46.6c40.23,5.1,79.43,14.8,118.1,26.72c15.56,4.8,30.97,10.14,45.28,18.03c4.97,2.74,9.34,6.59,13.94,9.99.69.51,1.12,1.38,1.67,2.08-.12.38-.25.76-.38,1.13Z" fill="#fff"/><path d="M400.62,300.96c2.57-.66,5.25-2.15,7.68-1.81c5.01.71,9.89,2.35,14.78,3.74.64.18,1.5,1.23,1.43,1.78-.08.63-1.02,1.53-1.69,1.63-1.92.29-3.95.58-5.83.24-4.53-.81-9.01-1.93-13.48-3.05-1.05-.26-1.98-1.01-2.96-1.54.03-.33.05-.66.07-.99Z" fill="#fff"/><path d="M76.18,316.09c-3.33,6.23-18.86,15.76-24.2,14.85c1.25-3.77,19.19-14.78,24.2-14.85Z" fill="#fff"/><path d="M349.66,307.52c-4.56.09-8.26-.4-11.52-3.13c2.73-1.51,8.03-.16,11.52,3.13Z" fill="#fff"/><path d="M269.17,260.06c-4.33-.37-8.67-.74-13-1.11.04-.48.08-.95.12-1.43c4.33.32,8.65.65,12.98.97-.04.53-.07,1.05-.1,1.57Z" fill="#fff"/><path d="M132.33,275.52c2.95-1.49,5.9-2.97,8.85-4.46.16.33.33.66.49.99-2.98,1.43-5.95,2.86-8.93,4.29-.13-.27-.27-.54-.41-.82Z" fill="#fff"/></g></g><g id="eNZnr3yBRAk34" opacity="0"><g><path d="M164.6,315.35c1.15-1.03,2.13-2.39,3.46-3.04c6-2.92,11.96-5.99,18.19-8.33c8.41-3.17,16.96-6.03,25.61-8.46c12.42-3.49,25.17-5.28,38.07-5.59c2.29-.06,4.74.74,6.88,1.67c2.33,1.02,2.23,3.05-.12,4.11-1.53.68-3.28,1-4.96,1.17-6.57.66-13.14,1.29-19.72,1.75-11.98.84-23.5,3.6-34.81,7.54-9.55,3.33-19.19,6.38-28.81,9.5-1.06.34-2.23.33-3.35.49-.15-.27-.3-.54-.44-.81Z" fill="#fff"/><path d="M214.17,235.88c3.11-1.05,6.15-2.38,9.33-3.08c10.33-2.3,20.72-1.74,31.09-.16c7,1.06,13.97,2.29,20.95,3.48c1.29.22,2.54.64,3.81.97-.05.29-.11.57-.16.86-3.4-.49-6.8-1.03-10.21-1.45-10.83-1.32-21.65-3.22-32.52-3.62-6.15-.23-12.4,2.05-18.6,3.22-1.14.22-2.26.55-3.39.83-.1-.36-.2-.7-.3-1.05Z" fill="#fff"/><path d="M288.61,261.71c-9.41-.36-18.23-1.08-27.5-2.82c3.07-1.98,24.54.26,27.5,2.82Z" fill="#fff"/><path d="M408.97,299.58c3.69-1.49,13.69.86,16.32,3.84-3.52,1.81-14.01-.65-16.32-3.84Z" fill="#fff"/><path d="M52.07,331.93c4.56-3.96,9.6-7.05,15.72-8.89-1.18,3.16-11.1,8.83-15.72,8.89Z" fill="#fff"/><path d="M144.99,321.27c-3.47,4.08-8.14,5.95-13.07,7.35c3.44-4.08,7.97-6.23,13.07-7.35Z" fill="#fff"/><path d="M194.27,230.84c-7.97,2.66-15.94,5.33-23.91,7.99-.11-.33-.22-.66-.32-1c8.02-2.58,16.04-5.17,24.06-7.75.06.26.11.51.17.76Z" fill="#fff"/><path d="M108.21,335.55c3.01-1.84,6.02-3.68,9.04-5.52-.43,2.9-5.51,6.21-8.56,6.33-.17-.27-.33-.54-.48-.81Z" fill="#fff"/><path d="M304.33,242.87c4.43.86,8.86,1.72,13.29,2.58-.08.39-.15.79-.23,1.18-4.43-.88-8.85-1.76-13.28-2.64.08-.38.15-.75.22-1.12Z" fill="#fff"/><path d="M338.31,252.11c3.05.59,6.1,1.17,9.16,1.76-.08.41-.15.83-.23,1.24-3.05-.59-6.11-1.18-9.16-1.77.08-.41.16-.82.23-1.23Z" fill="#fff"/><path d="M72.2,345.13c2.4-1.4,4.81-2.79,7.21-4.19.21.36.42.73.63,1.09-2.44,1.37-4.88,2.75-7.32,4.12-.18-.34-.35-.68-.52-1.02Z" fill="#fff"/><path d="M395.8,272.72c-2.83-.63-5.66-1.27-8.49-1.9.07-.35.15-.71.22-1.06c2.83.62,5.67,1.23,8.5,1.85-.07.37-.15.74-.23,1.11Z" fill="#fff"/><path d="M343.81,304.21c1.97.62,3.95,1.24,5.92,1.86-.13.42-.26.83-.38,1.25-1.98-.6-3.96-1.2-5.94-1.8.14-.44.27-.87.4-1.31Z" fill="#fff"/></g></g><g id="eNZnr3yBRAk49" opacity="0"><g><path d="M238.52,290.39c8.06,0,16.13-.34,24.16.06c13.95.69,27.89,1.75,41.83,2.82c8.27.63,16.29,2.41,23.58,6.61.86.5,1.43,1.5,2.13,2.26-.99.36-1.96.96-2.97,1.03-11.48.77-22.75-1.23-34.02-2.95-14.84-2.26-29.69-4.43-44.73-4.74-3.85-.08-7.72.14-11.57,0-1.7-.06-4.12-.01-4.22-2.24-.03-.7,2.75-1.56,4.28-2.28.45-.21,1.01-.16,1.52-.23.01-.1.01-.22.01-.34Z" fill="#fff"/><path d="M272.89,258.58c1.84.01,3.69-.06,5.52.03c7.1.35,14.19.74,21.28,1.13c5.37.3,10.77.44,16.11,1.03c2.95.33,5.8,1.44,8.61,2.49-3.82,2.36-48.19-1.57-51.52-4.68Z" fill="#fff"/><path d="M226.8,233.07c-5.95,2.13-12.29,3.93-18.24,6.63-9.8,4.44-19.32,9.5-28.99,14.23-4.68,2.29-9.42,4.47-14.16,6.63-.89.41-1.93.49-3.17.79c4.77-6.48,57.89-29.43,64.56-28.28Z" fill="#fff"/><path d="M128.94,253.56c17.75-7.55,35.8-14.27,54.45-19.36-17.75,5.87-34.11,15.34-52.3,20.06-.64.17-1.35.05-2.02.06-.04-.26-.08-.51-.13-.76Z" fill="#fff"/><path d="M138.08,324.66c3.2-1.66,6.39-3.32,9.59-4.98.19.36.39.73.58,1.09-2.85,2.31-5.86,4.32-9.58,5.05-.2-.38-.4-.77-.59-1.16Z" fill="#fff"/><path d="M424.66,302.93c-3.26-.91-6.51-1.83-9.77-2.74.09-.34.19-.68.28-1.02c3.5.2,6.81,1.1,9.92,2.77-.15.33-.29.66-.43.99Z" fill="#fff"/><path d="M211.05,298.46c.85-2.3,3.67-3.32,6.54-2.55-.9,2.01-3.22,2.96-6.54,2.55Z" fill="#fff"/><path d="M61.7,328.76c-2.95,1.52-5.91,3.05-8.86,4.57-.18-.33-.36-.67-.55-1c2.93-1.52,5.87-3.04,8.8-4.55.2.32.41.65.61.98Z" fill="#fff"/><path d="M111.22,334.54c2.31-1.46,4.61-2.91,6.92-4.37.21.33.42.65.63.98-2.31,1.51-4.62,3.02-6.93,4.53-.21-.39-.41-.77-.62-1.14Z" fill="#fff"/><path d="M200.56,300.42c-1.17,2.24-2.51,3.14-4.89,2.74.84-2.34,2.43-2.81,4.89-2.74Z" fill="#fff"/><path d="M302.17,242.3c2.48.53,4.95,1.05,7.43,1.58-.06.3-.13.6-.19.91-2.47-.56-4.93-1.12-7.4-1.68.05-.27.11-.54.16-.81Z" fill="#fff"/><path d="M343.75,254.05c-2.25-.44-4.51-.89-6.76-1.33.06-.29.11-.58.17-.87c2.26.41,4.52.83,6.77,1.24-.05.32-.12.64-.18.96Z" fill="#fff"/></g></g><g id="eNZnr3yBRAk63" opacity="0"><g><path d="M135.5,253.82c-2.04,1.15-4.11,2.26-6.12,3.45-7.88,4.66-15.84,9.2-23.58,14.09-2.7,1.71-5.07,4.1-7.2,6.53-2.75,3.15-1.76,6.09,2.39,6.61c8.12,1.02,15.96.8,23.62-3.41c18.98-10.44,38.25-20.37,57.46-30.4c4.76-2.48,9.74-4.53,14.82-6.42-21.87,11.84-43.68,23.76-64.43,37.86c2.1-.16,4.2-.31,6.3-.47.12.23.24.46.36.69-.7.74-1.26,1.76-2.12,2.19-5.74,2.84-11.38,6.03-17.37,8.21-13.51,4.91-27.59,7.6-41.85,9.22-3.81.43-7.7.29-11.55.27-1.26-.01-2.56-.35-3.77-.75-3.17-1.04-4.36-3.3-2.39-5.91c2.6-3.44,5.55-6.88,9.04-9.32c7.43-5.19,15.04-10.27,23.08-14.41c11.62-6,23.67-11.18,35.58-16.59c2.31-1.05,4.86-1.56,7.29-2.31.15.3.3.58.44.87Z" fill="#fff"/><path d="M321.49,228.61c1.55-.21,3.09-.56,4.64-.62c10.76-.38,21.35,1.19,31.87,3.2c12.22,2.34,24.25,5.43,35.61,10.64c2.78,1.27,5.5,2.87,7.89,4.77c4.37,3.48,3.98,7.5-1.11,9.74-3.96,1.74-8.21,3.04-12.47,3.88-20.82,4.12-41.83,4.78-62.94,2.76-2.05-.2-4.05-.99-6.07-1.51.01-.31.02-.62.04-.93.74-.1,1.48-.23,2.22-.3c9.54-.98,19.1-1.76,28.6-3.01c3.51-.46,7.05-1.63,10.26-3.14c5.13-2.41,5.46-6.11.57-8.82-6.42-3.54-13.16-6.59-19.97-9.31-5.47-2.18-11.27-3.55-16.91-5.3-.77-.24-1.52-.58-2.27-.88.02-.39.03-.78.04-1.17Z" fill="#fff"/><path d="M392.96,307.26c-2.21.31-4.43.88-6.64.87-17.1-.07-34.02-2.32-50.93-4.64-13.76-1.88-27.5-3.85-41.23-5.96-3.62-.55-7.15-1.68-10.7-2.67-.78-.22-1.43-.93-2.13-1.41.07-.32.14-.64.22-.96c3.35.02,6.71-.14,10.05.08c13.43.87,26.84,2.02,40.27,2.75c10.35.57,20.75.34,31.08,1.08c9.27.67,18.15,3.4,26.65,7.23c1.26.57,2.36,1.49,3.54,2.24-.06.48-.12.94-.18,1.39Z" fill="#fff"/><path d="M299.93,259.79c3.79.58,7.58,1.17,11.37,1.75-2.5,2.14-10.02.98-11.65-1.09.1-.23.19-.45.28-.66Z" fill="#fff"/><path d="M155.44,245.21c-3.78,1.33-7.57,2.67-11.35,4-.14-.4-.27-.8-.41-1.19c3.82-1.32,7.64-2.65,11.46-3.97.11.38.21.77.3,1.16Z" fill="#fff"/><path d="M149.04,320.84c-1.86,1.05-3.72,2.1-5.58,3.16-.21-.37-.42-.73-.63-1.1c1.85-1.07,3.7-2.14,5.55-3.21.22.38.44.77.66,1.15Z" fill="#fff"/><path d="M194.16,214.45c-2.54.35-5.07.7-7.61,1.05-.02-.13-.03-.25-.05-.38c2.52-.35,5.04-.7,7.57-1.05.03.13.06.25.09.38Z" fill="#fff"/><path d="M257.69,292.84c-.47.34-1.02,1.02-1.39.94-1.05-.24-2.02-.8-3.02-1.23.4-.44.82-1.26,1.2-1.24c1.05.05,2.08.46,3.12.72.03.27.06.54.09.81Z" fill="#fff"/></g></g><g id="eNZnr3yBRAk73" opacity="0"><g><path d="M211.83,259.88c-.94.73-1.77,1.75-2.83,2.14-14.4,5.29-28.81,10.53-43.25,15.71-7.74,2.78-15.49,5.57-23.32,8.09-8.4,2.69-16.83,5.36-25.38,7.47-5.15,1.27-9.08,4.24-13.14,7.21-7.33,5.36-14.38,11.14-22,16.06-5.13,3.32-11,5.52-16.6,8.08-1.12.51-2.53.4-4.02.12c10.69-10.54,23.46-18.11,35.81-26.42-9.01.71-17.98,2.92-26.96.6-.11-.26-.22-.52-.33-.78c1.28-.85,2.49-1.81,3.84-2.52c9.83-5.21,20.12-8.56,31.43-8.49c4.34.03,8.7-.81,13.03-1.41c1.14-.16,2.25-.8,3.29-1.37c7.44-4.08,14.85-8.21,22.3-12.28c1.23-.67,2.57-1.14,3.86-1.7.11.2.21.4.32.6-6.13,3.91-12.25,7.82-18.38,11.73.13.27.26.55.39.82c13.97-2.82,27.52-7.19,41.07-11.59c13.44-4.37,26.48-9.97,40.24-13.31.2.42.42.83.63,1.24Z" fill="#fff"/><path d="M241.29,221.24c3.72-.17,7.45-.52,11.17-.48c6.75.06,13.52.12,20.25.58c12.79.86,25.63,1.51,38.33,3.16c16.54,2.14,33.02,4.91,49.44,7.91c9.43,1.72,18.68,4.46,27.33,8.76c2.41,1.2,4.53,3.02,6.66,4.72.62.49.78,1.56,1.15,2.36-.77.29-1.55.86-2.32.84-4.51-.12-9.04-.18-13.53-.63-6.99-.7-13.41-3.24-19.63-6.46-10.74-5.56-22.4-8.49-34.12-11.11-16.56-3.7-33.35-5.95-50.25-7.17-10.56-.76-21.16-.91-31.74-1.35-.91-.04-1.82-.22-2.73-.33c0-.27,0-.54-.01-.8Z" fill="#fff"/><path d="M341.77,297.98c1.26-.08,2.08-.18,2.89-.18c13.65.06,27.25-.44,40.71-3.07c4.42-.87,8.97-1.98,13.39-1.75c8.33.42,16.34,2.72,23.83,6.56.53.27,1.04.62,1.49,1c1.69,1.41,1.64,2.59-.48,3.01-5.27,1.04-10.61,2.16-15.95,2.39-15.98.66-31.85-1.06-47.69-2.92-5.33-.63-10.57-2.01-15.84-3.09-.56-.12-1.09-.48-1.6-.79-.18-.13-.27-.41-.75-1.16Z" fill="#fff"/><path d="M382.38,259.22c-2.81,2.56-16.59,2.19-20.81-.56c4.74-3.23,17.13-2.9,20.81.56Z" fill="#fff"/><path d="M94.37,275.39c-5.42,6.86-13.22,8.51-20.87,10.47-.19-.41-.38-.83-.57-1.24c6.25-5,13.96-6.86,21.44-9.23Z" fill="#fff"/><path d="M167.23,217.66c7.98-1.1,15.96-2.21,23.94-3.31.03.19.05.38.08.57-7.96,1.1-15.92,2.2-23.88,3.3-.05-.19-.1-.37-.14-.56Z" fill="#fff"/><path d="M268.31,232.28c-5.77.13-11.53.25-17.3.38-.01-.32-.01-.64-.02-.96c5.78-.11,11.55-.22,17.33-.33c0,.3-.01.61-.01.91Z" fill="#fff"/><path d="M312.09,262.98c-2.27-.36-4.54-.72-6.81-1.08.06-.42.12-.83.18-1.25c2.27.36,4.54.73,6.8,1.09-.06.41-.12.82-.17,1.24Z" fill="#fff"/><path d="M149.39,247.44c-2.36.76-4.72,1.52-7.08,2.28-.08-.24-.16-.48-.25-.72c2.34-.81,4.69-1.62,7.03-2.44.1.3.2.59.3.88Z" fill="#fff"/><path d="M309.89,296.01c1.42.52,2.85,1.05,4.27,1.57-.12.35-.24.7-.36,1.05-1.44-.46-2.88-.91-4.32-1.37.13-.42.27-.84.41-1.25Z" fill="#fff"/></g></g><g id="eNZnr3yBRAk85" opacity="0"><g><path d="M392.53,297.21c1.63-1.58,2.69-2.64,3.79-3.67c1-.94,2.48-1.65,2.95-2.79c1.64-3.96,5.12-3.85,8.02-3.19c6.63,1.52,13.16,3.58,19.6,5.78c1.6.55,2.72,2.49,4.05,3.8-1.57,1.01-3.02,2.51-4.74,2.96-9.89,2.58-19.79,2.69-29.53-.86-1.22-.45-2.36-1.15-4.14-2.03Z" fill="#fff"/><path d="M50.4,336.89c1.31-6.32,33.78-29.31,43.5-31.07-2.25,2.33-4.18,4.33-6.1,6.33-3.67,3.83-7.01,8.08-11.1,11.38-4.61,3.72-9.85,6.71-14.94,9.8-2.1,1.27-4.5,2.1-6.84,2.89-1.35.46-2.86.44-4.52.67Z" fill="#fff"/><path d="M246.03,256.28c-1.67.32-3.33.75-5.01.96-6.46.79-13.06.94-19.37,2.38-9.57,2.19-18.96,5.23-28.4,7.96-3.54,1.02-7.02,2.22-10.54,3.3-.69.21-1.45.22-2.38.35c5.64-8.32,59.06-21.02,65.7-14.95Z" fill="#fff"/><path d="M129.38,224.39c16.84-4.23,33.99-6.62,51.21-8.59.06.2.12.4.18.6-.81.22-1.61.49-2.44.65-8.49,1.63-16.98,3.3-25.48,4.85-6.82,1.24-13.65,2.37-20.49,3.48-.95.15-1.95-.07-2.93-.12-.02-.29-.03-.58-.05-.87Z" fill="#fff"/><path d="M258.54,231.9c13.5-.45,26.86-3.56,40.44-1.93-13.38,2.56-26.92,2.29-40.44,1.93Z" fill="#fff"/><path d="M215.33,225.31c18.27-5.41,36.86-4.74,55.5-3.12-18.54.46-37.23-1.92-55.5,3.12Z" fill="#fff"/><path d="M383.95,258.27c-4.63,1.57-11.77.79-14.52-1.56c5.03-.93,9.46-.2,14.52,1.56Z" fill="#fff"/><path d="M87.65,281.54c-4.4,1.72-8.8,3.43-13.21,5.15.86-2.82,8.69-6.08,12.86-6.09.12.31.23.62.35.94Z" fill="#fff"/><path d="M153.24,279.38c3.26-1.36,6.53-2.72,9.79-4.08.16.38.32.75.48,1.13-3.27,1.38-6.54,2.76-9.8,4.14-.15-.4-.31-.79-.47-1.19Z" fill="#fff"/><path d="M190.49,198.09c-4.37-.15-8.73-.29-13.1-.44.01-.33.03-.66.04-.99c4.36.17,8.73.33,13.09.5c0,.31-.01.62-.03.93Z" fill="#fff"/><path d="M303.27,225.51c-3.7-.26-7.41-.52-11.11-.78.02-.31.04-.62.06-.93c3.71.24,7.41.49,11.12.73-.03.33-.05.66-.07.98Z" fill="#fff"/><path d="M328.46,229.28c-2.69-.13-5.38-.27-8.07-.4.02-.34.03-.69.05-1.03c2.69.13,5.38.26,8.07.39-.01.35-.03.7-.05,1.04Z" fill="#fff"/><path d="M139.84,283.41c-2.2,1.08-4.39,2.16-6.59,3.25-.17-.35-.34-.69-.52-1.04c2.21-1.06,4.42-2.12,6.62-3.18.16.33.33.65.49.97Z" fill="#fff"/><path d="M366.78,238.44c-1.92-.13-3.85-.26-5.77-.4.01-.28.02-.56.03-.84c1.93.08,3.85.16,5.78.25-.01.33-.02.66-.04.99Z" fill="#fff"/></g></g><g id="eNZnr3yBRAk101" opacity="0"><g><path d="M296.4,228.7c4.77-.91,9.55-1.83,14.32-2.73c8.94-1.68,17.83-3.56,26.08-7.57c1.59-.77,3.06-1.9,4.4-3.08c1.85-1.63,1.88-3.23-.33-4.29-3.91-1.87-7.97-3.6-12.15-4.7-4.53-1.2-9.27-1.62-13.92-2.4-.81-.14-1.59-.37-2.39-.57-.05-.26-.1-.52-.16-.78c1.64-.68,3.22-1.64,4.93-1.99c12.53-2.57,25.19-3.23,37.86-1.61c6.43.82,12.78,2.32,19.09,3.85c2.54.61,5.34,1.87,5.55,5.02.2,3-2.34,4.64-4.63,5.63-5.81,2.5-11.65,5.13-17.73,6.7-10.11,2.62-20.42,4.44-30.63,6.62-.56.12-1.08.45-1.63.64-1.28.45-2.55,1.16-3.86,1.24-4,.26-8.01.23-12.02.4-3.51.15-7.02.44-10.53.59-.73.03-1.47-.25-2.21-.38c0-.2-.02-.39-.04-.59Z" fill="#fff"/><path d="M135.85,225.8c-.72.3-1.43.62-2.15.9-6.94,2.7-13.93,5.28-20.79,8.17-2.15.91-4.13,2.46-5.87,4.07-1.92,1.76-1.61,3.75.8,4.65c2.77,1.03,5.76,1.92,8.68,2.04c7.52.33,15.06.24,22.59.24c4.13,0,8.26-.16,12.39-.25.09.34.18.67.26,1.01-1.23.56-2.42,1.22-3.69,1.67-8.57,3-17.51,4.2-26.46,5.17-12.1,1.31-24.26,2.23-36.44,1.37-3.48-.25-7.01-.81-10.35-1.79-4.45-1.3-5.01-4.26-1.52-7.34c4.96-4.38,10.86-7.27,17.06-9.3c10.09-3.31,20.25-6.44,30.51-9.19c4.76-1.27,9.8-1.46,14.72-2.14.08.24.17.48.26.72Z" fill="#fff"/><path d="M228.97,255.15c1.86-.26,3.71-.72,5.57-.73c8.31-.06,16.63-.29,24.92.09c10.25.46,20.48,1.34,30.7,2.31c2.84.27,5.58,1.54,8.36,2.35-.05.42-.11.85-.16,1.27-2.39.07-4.8.39-7.17.18-11.6-1-23.16-2.35-34.77-3.15-8.19-.57-16.42-.44-24.63-.66-.88-.02-1.76-.23-2.65-.35-.06-.43-.12-.87-.17-1.31Z" fill="#fff"/><path d="M428.7,293.6c-4.41,1.98-22.65-1.9-25.64-5.33c3.52-2.02,21.71,1.68,25.64,5.33Z" fill="#fff"/><path d="M168.48,240.26c18.24-7.93,37.22-13.41,56.74-17.07-19.53,3.61-37.39,12.85-56.74,17.07Z" fill="#fff"/><path d="M50.33,338.34c7.03-6.52,15.24-10.95,24.38-13.77-7.03,6.51-15.35,10.77-24.38,13.77Z" fill="#fff"/><path d="M155.48,196.79c9.77-.2,19.55-.87,29.25.89-9.77.41-19.54.63-29.25-.89Z" fill="#fff"/><path d="M182.88,165.77c-4,.72-6.48-.05-8.03-2.32c2.91-.33,5.32.26,8.03,2.32Z" fill="#fff"/><path d="M143.36,222.01c3.58-.5,7.17-.99,10.75-1.49.04.24.07.48.11.73-3.59.5-7.19.99-10.78,1.49-.02-.24-.05-.49-.08-.73Z" fill="#fff"/><path d="M288.11,231.14c-2.84.03-5.69.06-8.53.08-.01-.34-.01-.68-.02-1.02c2.82-.02,5.65-.04,8.47-.06.03.34.05.67.08,1Z" fill="#fff"/><path d="M383.17,258.21c-2.56-.38-5.13-.77-7.69-1.15.05-.36.11-.71.16-1.07c2.56.39,5.12.78,7.68,1.16-.05.35-.1.7-.15,1.06Z" fill="#fff"/><path d="M82.66,283.94c-2.35.9-4.69,1.8-7.04,2.71-.12-.31-.24-.63-.36-.94c2.35-.88,4.71-1.75,7.06-2.63.12.28.23.57.34.86Z" fill="#fff"/><path d="M260.46,216.98c-4.73.65-9.45,1.31-14.18,1.96-.01-.09-.03-.18-.04-.27c4.7-.65,9.39-1.3,14.09-1.95.05.09.09.17.13.26Z" fill="#fff"/><path d="M165.55,275.57c-2.03.96-4.07,1.92-6.1,2.88-.15-.31-.3-.62-.45-.93c2.05-.94,4.09-1.87,6.14-2.81.13.29.27.58.41.86Z" fill="#fff"/></g></g><g id="eNZnr3yBRAk117" opacity="0"><g><path d="M198.04,230.78c-10.22,3.9-20.45,7.8-30.67,11.7.12.38.23.75.35,1.13c15.18-3.18,30.37-6.35,45.55-9.53.09.21.19.42.28.62-.57.32-1.11.8-1.72.94-13.09,3.1-26.18,6.23-39.3,9.21-6.02,1.37-12.24,1.98-18.12,3.75-5.2,1.57-10,4.44-15.1,6.43-6.63,2.58-13.36,4.88-20.08,7.22-1.41.49-2.95.61-4.63.42c6.58-4.74,14.21-7.38,21.41-10.94-17.36,1.42-34.66,3.87-52.01.8-.07-.25-.15-.5-.22-.76.98-.48,1.93-1.08,2.96-1.41c9.43-3.04,19.07-3.79,28.95-3.4c8.45.33,16.93-.25,25.4-.47c2.14-.06,4.27-.4,6.41-.46c7.22-.2,13.47-3.73,20.12-5.86c7-2.25,13.95-4.68,20.93-7c3.07-1.02,6.16-1.96,9.24-2.93.1.19.18.37.25.54Z" fill="#fff"/><path d="M239.04,209.29c1.5-.53,2.54-1.1,3.65-1.27c16.95-2.61,33.84-5.9,50.88-7.52c16.08-1.53,32.33-1.71,48.51-1.64c7.97.03,15.96,1.81,23.88,3.16c2.13.36,4.29,1.77,5.98,3.23c1.86,1.62,1.31,3.39-1.08,3.9-9.89,2.1-19.59,3.23-29.5-1-5.47-2.33-11.72-3.27-17.72-3.88-26.52-2.71-52.71.62-78.83,4.86-1.52.25-3.06.42-4.59.59-.21.01-.45-.16-1.18-.43Z" fill="#fff"/><path d="M352.03,262.15c-1.71.24-3.43.71-5.14.67-10.19-.25-20.41-.25-30.56-1.02-15.62-1.18-31.21-2.89-46.8-4.45-2.22-.22-4.39-.86-6.58-1.3.04-.34.08-.68.11-1.02c2.91.07,5.82.15,8.74.21c17.89.37,35.77.75,53.66,1.1c8.18.16,16.22,1.2,24.06,3.58.91.27,1.72.85,2.58,1.28-.03.32-.05.64-.07.95Z" fill="#fff"/><path d="M172.33,197.87c-18.94-.64-37.83,4.23-57.42,1.02c4.03-2.69,50.38-3.49,57.42-1.02Z" fill="#fff"/><path d="M80.46,242.13c6.5-3.19,13.05-4.17,20-4.84-2.21,4.02-15.3,7.24-20,4.84Z" fill="#fff"/><path d="M291.63,210.28c-12.8,3.78-25.3,5.6-37.75,7.71c4.81-2.46,34.53-8.72,37.75-7.71Z" fill="#fff"/><path d="M354.31,219.45c-2.79,2.67-15.18,4.37-18.98,2.61c5.55-2.8,14.37-4.51,18.98-2.61Z" fill="#fff"/><path d="M180.61,165.13c-6.41.38-12.76.61-18.78-2.05c6.38-.26,12.72-.2,18.78,2.05Z" fill="#fff"/></g></g><g id="eNZnr3yBRAk127" opacity="0"><g><path d="M289.22,209.08c4.1-1.34,8.24-2.59,12.3-4.04c10.97-3.9,22.01-7.66,31.93-13.93c2.01-1.27,3.89-2.83,5.63-4.46c1.97-1.85,1.86-3.84-.57-4.99-2.89-1.37-6.02-2.44-9.17-3.05-3.43-.67-6.99-.65-10.5-.95-.81-.07-1.62-.21-2.43-.32-.1-.23-.19-.46-.29-.68.96-.71,1.81-1.7,2.88-2.1c6.02-2.2,11.99-4.66,18.18-6.27c9.68-2.51,19.61-3.34,29.6-2.36c2.71.27,5.47.76,8.03,1.65c4.29,1.49,5.05,4.57,2.01,7.92-1.71,1.88-3.72,3.58-5.84,4.99-8.61,5.74-18.11,9.77-27.77,13.26-11.67,4.22-23.51,7.99-35.34,11.74-5.05,1.6-10.26,2.68-15.42,3.93-1.01.24-2.08.19-3.13.27-.03-.19-.06-.4-.1-.61Z" fill="#fff"/><path d="M124,200.83c-4.47,1.07-8.98,1.99-13.4,3.25-3.52,1-7.02,2.2-10.34,3.74-1.26.58-2.65,2.31-2.71,3.58-.05,1.06,1.54,2.8,2.76,3.22c5.15,1.79,10.35,3.66,15.69,4.65c7.81,1.45,15.76,2.2,23.65,3.21c3.5.45,7.01.77,10.51,1.19.45.05.88.33,1.32.51.02.28.04.57.06.85-1.52.21-3.05.42-4.57.63-11.96,1.7-23.96,1.28-35.89.15-11.83-1.12-23.61-2.83-35.37-4.57-3.25-.48-6.48-1.71-9.47-3.13-1.68-.8-3.56-2.47-4.07-4.14-.71-2.36,1.72-3.72,3.5-4.84c5.17-3.23,11.01-4.65,16.9-5.88c11.52-2.41,23.11-4.11,34.92-3.9c2.17.04,4.34.36,6.52.55-.01.31-.01.62-.01.93Z" fill="#fff"/><path d="M383.91,258.02c-1.26.4-2.5.91-3.78,1.17-12.2,2.46-24.56,2.36-36.91,2.01-8.91-.26-17.8-.85-26.7-1.4-2.08-.13-4.13-.7-6.2-1.06c0-.26,0-.51.01-.77c1.01-.14,2.01-.4,3.02-.4c13.41,0,26.74-1.01,39.88-3.69c9.32-1.9,18.39-.96,27.41,1.56c1.17.33,2.23,1.04,3.34,1.58-.02.33-.05.67-.07,1Z" fill="#fff"/><path d="M81.18,280.63c2.02-1.36,3.96-2.84,6.06-4.06c16.31-9.51,33.61-16.92,51.1-23.92c2.22-.89,4.54-1.6,6.66-2.68c1.13-.57,1.79-2.07,2.93-2.61c2.24-1.09,4.66-1.69,7.24-.4-6.63,3.22-13.27,6.18-19.65,9.62-9.12,4.9-18.13,10.02-27.04,15.3-7.6,4.51-15.74,7.51-24.26,9.62-.85.21-1.79.06-2.68.08-.13-.33-.24-.64-.36-.95Z" fill="#fff"/><path d="M138.45,160.52c11.67.33,23.3.94,34.64,3.92-3.39,2.31-31.34-.87-34.64-3.92Z" fill="#fff"/><path d="M213.41,212.88c18.31-1.8,36.1-7.02,54.46-8.51-3.15,1.93-51.75,9.49-54.46,8.51Z" fill="#fff"/><path d="M237.32,231.11c-15.55,3.05-31.16,6.12-46.99,9.22c3.54-3.07,41.75-10.43,46.99-9.22Z" fill="#fff"/><path d="M138.89,98.1c3.85-1.5,9.77.35,11.83,3.58.68,1.06.84,1.87-.73,2.23-4.07.91-9.45-1.81-11.1-5.81Z" fill="#fff"/><path d="M130.01,197.3c4.31.15,8.61.31,13.57.48-2.55,1.83-11.21,1.68-13.59.25.01-.24.02-.48.02-.73Z" fill="#fff"/><path d="M94.61,241.79c-3.94.54-7.87,1.09-12.17,1.68c2.88-2.25,9.37-3.46,12.08-2.45.03.25.06.51.09.77Z" fill="#fff"/><path d="M343.91,219.84c3.54-1.74,7.27-1.72,11.09-.87-3.56,1.5-7.25,1.64-11.09.87Z" fill="#fff"/><path d="M251.94,203.18c5.95-2.14,11.9-4.27,17.85-6.41.09.25.18.5.27.75-5.94,2.16-11.88,4.32-17.82,6.48-.11-.28-.21-.55-.3-.82Z" fill="#fff"/><path d="M287.23,202.56c3.2-.44,6.41-.89,9.61-1.33.02.15.04.31.06.46-3.19.44-6.38.88-9.57,1.32-.03-.15-.06-.3-.1-.45Z" fill="#fff"/><path d="M273.06,213.33c2.14-.45,4.28-.91,6.42-1.36.04.25.09.51.13.76-2.16.3-4.33.6-6.49.9-.02-.1-.04-.2-.06-.3Z" fill="#fff"/><path d="M166.63,244.47c2.17-.58,4.35-1.16,6.52-1.74.07.25.13.5.2.75-2.18.57-4.35,1.14-6.53,1.71-.06-.24-.12-.48-.19-.72Z" fill="#fff"/></g></g><g id="eNZnr3yBRAk144" opacity="0"><g><path d="M239.95,193.83c5.59-2.95,11.18-5.9,16.78-8.85.13.23.27.45.4.68-1.37.85-2.74,1.69-4.11,2.54.06.14.13.29.19.43c3.07-.97,6.12-2.03,9.22-2.9c11.87-3.33,23.67-6.97,35.66-9.78c12.74-2.98,25.64-5.39,38.54-7.6c9.2-1.58,18.55-2.33,27.9-1.11c2.08.27,4.21.93,6.06,1.9c2.36,1.23,2.58,4.84.29,5.97-7.75,3.8-15.85,6.47-24.69,5.65-.67-.06-1.38-.27-1.96-.6-7.1-4.03-14.87-3.59-22.56-3.25-14.54.65-28.71,3.68-42.73,7.36-11.92,3.13-23.74,6.66-35.61,9.99-.99.28-2.05.3-3.08.44-.1-.29-.2-.58-.3-.87Z" fill="#fff"/><path d="M212.91,222.64c-1.42.2-2.83.47-4.26.58-15.98,1.14-31.94,2.65-47.94,3.24-12.9.47-25.85.12-38.75-.42-13.86-.58-27.68-1.88-41.19-5.38-.95-.25-1.87-.61-3.52-1.16c1.23-.48,1.71-.76,2.23-.85c9.39-1.77,18.71-1.09,28.1.37c9.89,1.54,19.82,3.02,29.78,3.74c12.02.87,24.1,1.34,36.14,1.18c12.32-.16,24.64-1.29,36.95-2c.8-.05,1.6-.09,2.4-.13.02.27.04.55.06.83Z" fill="#fff"/><path d="M158.85,164.65c-3.36-.06-6.73-.13-10.09-.18-8.9-.12-17.8-.16-26.7-.35-6.97-.15-13.82-1.15-20.3-3.93-.73-.31-1.39-.78-2.08-1.17.04-.22.08-.44.11-.65c1.04-.14,2.09-.46,3.12-.4c12.72.73,25.45,1.41,38.16,2.35c4.85.36,9.66,1.27,14.46,2.07c1.22.2,2.36.92,3.54,1.4-.07.28-.14.57-.22.86Z" fill="#fff"/><path d="M355.26,255.79c2.44-1.25,4.43-1.83,5.86-3.08c6.21-5.43,13.32-4.29,20.45-3.08c2.43.41,4.85,1.04,7.19,1.8.96.31,1.71,1.25,2.56,1.91-.87.72-1.64,1.89-2.62,2.09-4.94,1.03-9.91,2.29-14.91,2.53-5.24.25-10.53-.55-15.79-.97-.71-.06-1.38-.59-2.74-1.2Z" fill="#fff"/><path d="M72.74,287.88c10.86-8.56,22.79-15.14,36.13-19.13.21.26.42.53.63.79-5.41,4.51-10.38,9.76-16.34,13.34-5.93,3.56-12.61,6.34-19.85,6.27-.19-.42-.38-.84-.57-1.27Z" fill="#fff"/><path d="M119.57,97.94c.63-.53.69-.63.76-.63c8.65-.63,17.24-.3,25.68,1.9.65.17,1.28.53,1.8.96.42.34.94.96.88,1.37-.05.4-.78.97-1.24,1.01-8.48.71-16.94.98-25.07-2.14-1.04-.4-1.79-1.55-2.81-2.47Z" fill="#fff"/><path d="M259.1,200.97c16.09-6.13,31.25-14.57,47.92-19.25-15.34,7.99-31.47,14.01-47.92,19.25Z" fill="#fff"/><path d="M278.59,230.6c-17.54,2.37-34.49.22-51.32,1.66c3.62-1.97,47.57-3.46,51.32-1.66Z" fill="#fff"/><path d="M167.22,219.2c17.92-4.2,36.19-5.23,54.42-6.59-18.3.99-36.07,6.26-54.42,6.59Z" fill="#fff"/><path d="M90.01,208.59c-1.3.63-2.58,1.76-3.89,1.8-4.77.16-9.56-.02-14.33-.14-.69-.02-1.38-.45-2.15-.72c1.89-2.48,15.6-3.5,20.37-.94Z" fill="#fff"/><path d="M348.68,190.33c-6.1,4.32-12.74,4.8-19.28,6.38c1.75-3.06,14.17-7.29,19.28-6.38Z" fill="#fff"/><path d="M128.21,197.7c2.75.13,5.5.25,8.26.38-.02.34-.03.68-.05,1.03-2.77-.12-5.55-.24-8.32-.37.03-.35.07-.7.11-1.04Z" fill="#fff"/><path d="M90.74,242.82c-2.24.31-4.48.62-6.72.93-.02-.12-.05-.23-.07-.35c2.24-.31,4.48-.62,6.72-.93.02.12.05.23.07.35Z" fill="#fff"/></g></g><g id="eNZnr3yBRAk159" opacity="0"><g><path d="M357.85,119.05c1.33-1.36,2.54-2.86,3.99-4.07c7.4-6.17,15.97-10.29,24.84-13.81c10.08-4,20.4-7.17,31.33-7.68c3.67-.17,7.37.03,11.03.33c1.66.14,3.37.75,4.88,1.5c3.08,1.53,3.89,4.16,2.42,7.63-2.06,4.88-5.85,8.42-9.68,11.87-9.81,8.82-20.83,15.98-32.23,22.48-16.52,9.41-33.15,18.67-50.06,27.34-11.72,6.01-24,10.95-36.04,16.33-1.05.47-2.22.67-3.33.99-.11-.22-.21-.44-.32-.66.95-.56,1.88-1.16,2.86-1.66c17.82-9.03,35.65-18.09,52.19-29.35c6.56-4.47,12.55-9.78,18.78-14.74.73-.58,1.37-1.3,1.98-2.02c4.45-5.24,2.75-10.69-4.09-11.97-4.77-.89-9.7-.92-14.57-1.33-1.17-.1-2.33-.2-3.5-.31-.16-.28-.32-.58-.48-.87Z" fill="#fff"/><path d="M153.29,200.96c-.63.14-1.27.45-1.87.38-7.57-.82-15.26-1.13-22.68-2.69-9-1.9-17.88-4.55-26.62-7.44-10.56-3.49-20.99-7.41-31.33-11.51-3.02-1.2-5.78-3.4-8.21-5.62-3.36-3.06-2.9-6.39.87-8.99c1.25-.86,2.66-1.7,4.11-2.05c11.5-2.76,23.12-4.13,34.93-2.31c2.02.31,4,.93,5.98,1.49.77.22,1.46.7,2.19,1.06c0,.25,0,.5.01.74-1.49.43-2.97.87-4.46,1.3-3.29.96-6.66,1.72-9.85,2.93-5.25,2-6.02,5.91-1.5,9.18c4.2,3.03,8.77,5.84,13.59,7.66c11.05,4.17,22.35,7.71,33.56,11.44c3,1,6.09,1.75,9.12,2.67.78.24,1.5.7,2.24,1.05-.03.24-.06.48-.08.71Z" fill="#fff"/><path d="M87.84,94.86c1.79-.25,3.03-.65,4.23-.55c12.11.97,24.23,1.91,36.32,3.11c2.66.27,5.27,1.42,7.81,2.39.7.27,1.11,1.33,1.65,2.03-.74.45-1.48,1.31-2.22,1.3-5.47-.03-10.98.1-16.41-.46-8.15-.83-16.27-2.07-24.36-3.39-2.55-.39-5.09-1.42-7.02-4.43Z" fill="#fff"/><path d="M116.87,229.57c1.03-.46,2.01-1.08,3.09-1.36c5.22-1.36,10.41-3,15.72-3.85c19.98-3.21,40-6.15,60-9.18.24-.04.5.02.84.48-3.37.59-6.76,1.12-10.11,1.79-10.51,2.07-21.09,3.86-31.49,6.37-10.72,2.6-21.34,5.57-32.38,6.52-1.82.16-3.66.03-5.5.03-.06-.27-.12-.54-.17-.8Z" fill="#fff"/><path d="M324.86,226.22c-24.11,4.11-48.45,4.84-72.84,4.88-.03-.21-.07-.43-.1-.64.68-.13,1.35-.28,2.03-.37.68-.08,1.37-.1,2.05-.13c15.84-.69,31.56-2.52,47.27-4.64c6.63-.9,13.45-.42,20.19-.53.45-.01.91.27,1.37.41.01.34.02.68.03,1.02Z" fill="#fff"/><path d="M273.02,183.78c-8.03,6.47-57.79,18.16-65.76,15.21c1.52-.35,2.51-.63,3.51-.79c8.71-1.43,17.49-2.5,26.1-4.38c6.75-1.48,13.26-4.02,19.92-5.99c4.84-1.43,9.74-2.69,14.62-4c.42-.12.9-.04,1.61-.05Z" fill="#fff"/><path d="M368.39,249.23c7.35-.95,14.56-.36,22.06,1.72-3.24,2.25-18.41,1.08-22.06-1.72Z" fill="#fff"/><path d="M74.14,290.09c2.84-3.46,16.94-9.17,21.82-8.79-7.22,4.33-14.3,7.09-21.82,8.79Z" fill="#fff"/><path d="M191.24,223.9c14.3-1.46,28.6-2.91,42.9-4.37.03.3.06.61.09.91-14.3,1.48-28.6,2.95-42.9,4.43-.03-.33-.06-.65-.09-.97Z" fill="#fff"/><path d="M276.27,175.98c-8.01,4.19-16.03,8.39-24.04,12.58-.18-.35-.36-.69-.55-1.04c8-4.21,16-8.42,23.99-12.63.2.36.4.73.6,1.09Z" fill="#fff"/><path d="M113.74,160.08c5.25-.95,10.08.14,14.62,2.71-5.21.93-10.06-.13-14.62-2.71Z" fill="#fff"/><path d="M84.93,211.09c-4.34.01-8.67.01-13.01.02c0-.36-.01-.72-.01-1.08c4.33-.79,8.67-1.51,13.05-.1-.01.38-.02.77-.03,1.16Z" fill="#fff"/><path d="M338.24,191.64c3.7-.96,7.39-1.91,11.09-2.87.09.33.18.67.27,1-3.47,1.78-7.19,2.66-11.07,2.95-.1-.36-.19-.72-.29-1.08Z" fill="#fff"/><path d="M303.2,176.94c-3.57,1.2-7.14,2.4-10.71,3.59-.14-.41-.28-.83-.42-1.24c3.57-1.16,7.14-2.32,10.71-3.47.14.37.28.74.42,1.12Z" fill="#fff"/><path d="M293.7,187.74c-3.51,1.42-7.02,2.83-10.52,4.25-.13-.32-.26-.63-.39-.95c3.51-1.42,7.01-2.84,10.52-4.26.13.32.26.64.39.96Z" fill="#fff"/></g></g><g id="eNZnr3yBRAk176" opacity="0"><g><path d="M395.97,123.11c-3,.53-5.38-.37-7.82-2.29-1.91-1.49-4.49-2.55-6.9-2.9-8.27-1.2-16.44.19-24.49,1.98-25.06,5.57-48.78,15.01-72.3,25.04-10.48,4.47-21.06,8.69-31.6,13.02-.47.19-.98.4-1.47.43-.55.03-1.12-.15-1.68-.24.1-.63-.02-1.49.35-1.85c1.21-1.18,2.45-2.5,3.95-3.18c21.45-9.74,42.75-19.85,64.5-28.89c16.68-6.94,33.82-12.82,50.96-18.56c13.33-4.47,26.97-8.03,41.02-9.54c3.73-.4,7.54-.34,11.29-.14c2.91.16,6.2.59,7.28,3.84c1.12,3.41-.73,6.39-2.93,8.85-1.28,1.43-2.99,2.66-4.75,3.47-7.75,3.6-15.59,7.04-23.4,10.5-.62.28-1.34.32-2.01.46Z" fill="#fff"/><path d="M116.06,102.65c-9.18.14-17.75.2-26.31.43-4.96.13-9.92.52-14.88.81-11.13.67-21.39-2.11-30.87-7.84-.91-.55-1.46-1.71-2.18-2.58c1.08-.37,2.14-1,3.24-1.07c15.53-.96,31,.21,46.43,1.72c6.71.66,13.36,1.99,19.99,3.25c1.7.32,3.3,1.41,4.81,2.35.62.38.91,1.3,1.34,1.97-.68.42-1.36.83-1.57.96Z" fill="#fff"/><path d="M79.8,180.86c2.16.03,4.34-.08,6.49.12c9.58.87,18.45,4.34,27.43,7.48c20.57,7.19,41.61,12.64,63.14,16.01c11.89,1.87,23.87,3.12,35.81,4.68.5.07.97.37,1.79.71-16.64,4.22-122.69-18.21-134.66-29Z" fill="#fff"/><path d="M88.37,239.94c1.36-.74,2.64-1.7,4.08-2.17c8.38-2.73,16.71-5.67,25.22-7.91c9.43-2.47,19.03-4.31,28.57-6.32c2.92-.61,5.92-.85,8.88-1.26.06.21.11.43.17.64-3.19.88-6.43,1.6-9.56,2.66-10.35,3.52-20.73,6.98-30.97,10.83-7.56,2.84-15.35,4.13-23.32,4.69-.95.07-1.92-.26-2.88-.41-.06-.25-.13-.5-.19-.75Z" fill="#fff"/><path d="M356.77,217.58c-4.67,4.61-54.24,12.4-66.54,10.69-.04-.24-.08-.48-.12-.72c3.77-.52,7.58-.8,11.29-1.61c10.2-2.22,20.38-4.52,30.51-7.05c7.39-1.84,14.82-2.76,22.41-2.06.77.08,1.52.46,2.45.75Z" fill="#fff"/><path d="M320.04,149.64c-18.48,12.59-37.93,23.47-57.9,33.43c1.63-2.64,54.77-33.55,57.9-33.43Z" fill="#fff"/><path d="M155.84,198.45c22.25-2.61,44.5,1.7,66.75-.39-5.48,2.69-60.68,2.98-66.75.39Z" fill="#fff"/><path d="M360.94,152.78c8.48-5.79,16.71-12.11,27.27-13.81-7.72,7.27-17.45,10.63-27.27,13.81Z" fill="#fff"/><path d="M64.97,166.54c1.89-.06,3.82-.34,5.68-.12c3.63.43,7.24,1.07,10.83,1.76c1.02.2,2.16.55,1.78,2.22-.33,1.47-1.17,1.83-2.39,1.6-4.58-.89-9.17-1.78-13.72-2.82-.88-.2-1.61-1.04-2.42-1.59.08-.35.16-.7.24-1.05Z" fill="#fff"/><path d="M230.04,220.2c13.67-2.5,27.35-4.99,41.02-7.49.09.3.18.6.28.89-.67.31-1.31.77-2.02.9-6.89,1.27-13.78,2.57-20.7,3.68-6.15.98-12.33,1.73-18.5,2.59-.03-.2-.06-.39-.08-.57Z" fill="#fff"/><path d="M122.81,98.47c3.55-.37,6.09.75,7.26,3.09-2.71.89-5.76-.35-7.26-3.09Z" fill="#fff"/><path d="M121.95,162.99c-3.15-.67-6.31-1.35-9.46-2.02c2.53-1.68,7.11-.77,9.61,1.28-.05.25-.1.49-.15.74Z" fill="#fff"/><path d="M296.52,178.65c-2.45.73-4.9,1.47-7.34,2.2-.08-.26-.17-.52-.25-.78c2.45-.79,4.9-1.57,7.36-2.36.07.31.15.63.23.94Z" fill="#fff"/><path d="M73.24,210.63c2.05.01,4.1.01,6.14.02c0,.26.01.52.01.78-2.03.05-4.06.11-6.1.16-.01-.32-.03-.64-.05-.96Z" fill="#fff"/></g></g><g id="eNZnr3yBRAk192" opacity="0"><g><path d="M316.47,149.35c7.7-5.37,15.43-10.7,23.08-16.13c7.57-5.37,15.07-10.85,22.6-16.27-.13-.22-.26-.43-.39-.65-1.2.27-2.39.54-3.59.81-.1-.16-.2-.32-.3-.48c1.18-.9,2.27-1.99,3.57-2.65c3.12-1.6,6.47-2.78,9.48-4.54c3-1.76,5.84-3.88,8.53-6.1c10.65-8.79,21.14-17.78,30.08-28.36c2.75-3.25,5.25-6.78,7.35-10.47c2.38-4.18,1.94-8.76-.33-12.83-.99-1.77-3.07-3.23-4.98-4.12-3.33-1.55-6.89-2.61-10.39-3.77-2.97-.98-3.52-1.88-1.54-4.33c2.89-3.59,5.93-7.15,9.35-10.21c12.25-10.95,26.58-18.09,42.44-22.2c6.51-1.69,13.1-1.67,19.62-.04c8.11,2.02,10.82,7.33,7.78,15.17-2.91,7.51-8.01,13.55-13.31,19.42-10.95,12.15-23.34,22.75-36.32,32.6-17.53,13.3-35.17,26.49-53.17,39.15s-36.41,24.76-55.72,35.39c-1.08.6-2.26,1.02-3.4,1.52-.15-.31-.29-.61-.44-.91Z" fill="#fff"/><path d="M132.33,173.66c-1.28-.09-2.6-.04-3.85-.29-11.99-2.38-23.51-6.33-34.76-10.98-17.4-7.2-34.82-14.41-51.85-22.44-8.93-4.21-17.25-9.86-25.42-15.47-3.55-2.44-6.4-6.18-8.92-9.78-2.4-3.43-2.08-7.34.55-10.8.5-.66,1.17-1.34,1.91-1.66c14.29-6.26,28.81-8.15,43.64-1.95c1.73.73,3.18,2.15,4.75,3.25-1.5,1.14-2.92,2.39-4.51,3.39-2.39,1.51-4.99,2.69-7.33,4.27-3.87,2.63-4.94,6.3-2.45,10.25c1.98,3.14,4.52,6.07,7.32,8.5c8.41,7.3,18.1,12.73,28.08,17.51c16.23,7.78,32.64,15.19,48.95,22.79c1.46.68,2.8,1.6,4.2,2.41-.1.34-.21.67-.31,1Z" fill="#fff"/><path d="M300.97,134.47c-.79.7-1.47,1.61-2.38,2.08-6.99,3.62-13.89,7.42-21.06,10.65-10.31,4.64-20.74,9.01-31.25,13.18-11.82,4.69-24.01,8.2-36.7,9.65-2.25.26-4.59-.11-6.86-.4-.7-.09-1.3-.9-1.95-1.38.6-.53,1.12-1.38,1.8-1.53c3.26-.72,6.54-1.34,9.84-1.84c17.09-2.6,33.19-8.25,48.92-15.3c11.87-5.32,24.02-10.03,36.07-14.98.99-.41,2.09-.56,3.14-.82.14.22.28.46.43.69Z" fill="#fff"/><path d="M189.78,199.87c-4.05.16-8.11.29-12.16.48-7.53.35-15.06.64-22.57,1.14-10.68.71-21.34,1.8-32.03,2.3-5.36.25-10.77-.44-16.15-.77-.97-.06-1.91-.49-2.86-.74-.02-.24-.05-.49-.07-.73c1.22-.36,2.43-.96,3.67-1.05c9.91-.69,19.82-1.49,29.75-1.86c10.18-.37,20.38-.4,30.57-.37c7.26.02,14.53.39,21.79.6.02.33.04.67.06,1Z" fill="#fff"/><path d="M331.61,220.87c9.74-7.6,29.28-11.87,34.15-7.61-3.15,4.18-26.97,9.58-34.15,7.61Z" fill="#fff"/><path d="M82.08,245.33c3.48-4.65,25.35-11.89,32.47-10.63-4.56,2.85-7.33,7.34-12.25,8.49-6.45,1.53-12.94,3.71-20.22,2.14Z" fill="#fff"/><path d="M317.69,201.84c-21.97,7.59-44.72,11.9-67.58,15.75-.06-.23-.13-.45-.19-.68c1.02-.27,2.03-.56,3.05-.82c10.71-2.67,21.42-5.33,32.13-8.01c9.62-2.4,19.23-4.83,28.87-7.18c1.14-.28,2.38-.11,3.58-.15.04.37.09.73.14,1.09Z" fill="#fff"/><path d="M78.77,101.77c-1.19.17-2.31.48-3.42.44-5.5-.19-10.6-1.84-15.33-4.59-.66-.38-1.03-1.24-1.54-1.88.78-.38,1.56-1.07,2.35-1.08c6.2-.15,11.71,2.09,16.93,5.2.28.17.52.45.71.72.14.2.14.47.3,1.19Z" fill="#fff"/><path d="M236.45,207.32c-14.6,5.06-29.3,2.89-43.99.64c14.67.84,29.38,3.34,43.99-.64Z" fill="#fff"/><path d="M343.34,118.1c-5.16,4.28-11.1,7-17.73,9.06c1.05-3.03,13.34-9.3,17.73-9.06Z" fill="#fff"/><path d="M391.38,137.45c-5.58,3.46-10.88,6.2-17.19,7.91c1.85-3.34,12.99-8.45,17.19-7.91Z" fill="#fff"/><path d="M67.64,169.45c4.55-.87,8.82-.16,12.8,2.16-4.57,1.2-8.7-.39-12.8-2.16Z" fill="#fff"/><path d="M291.01,165.34c4.18-2.4,8.37-4.8,12.55-7.21.22.39.45.78.67,1.17-4.18,2.42-8.35,4.83-12.53,7.25-.22-.4-.45-.81-.69-1.21Z" fill="#fff"/><path d="M396.76,109.7c3.07-1.49,6.14-2.98,9.22-4.47.2.41.39.81.59,1.22-3.08,1.47-6.16,2.94-9.25,4.41-.18-.39-.37-.77-.56-1.16Z" fill="#fff"/><path d="M128.06,102.1c-1.51-.77-3.02-1.54-4.52-2.31.21-.42.43-.83.64-1.25c1.5.78,3.01,1.56,4.51,2.33-.21.41-.42.82-.63,1.23Z" fill="#fff"/></g></g><g id="eNZnr3yBRAk209" opacity="0"><g><path d="M472.62,17.74c-.08.7-.01,2.04-.39,3.24-1.8,5.7-4.15,11.17-8.81,15.14-8.47,7.2-17.78,13.13-28,17.55-.55.24-1.12.43-1.69.61-4.96,1.5-6.61.64-7.64-4.43-.65-3.18-2.3-5.6-5.26-6.42-4.08-1.13-8.35-2.24-12.54-2.22-12.55.06-24.54,3.33-36.49,7.02-30.93,9.56-60,23.56-89.48,36.63-5.63,2.5-11.47,4.57-17.31,6.54-1.51.51-3.39-.09-5.11-.18.32-1.78.28-3.73,1.03-5.31c1.55-3.32,4.56-5.27,7.75-6.88c10.87-5.5,21.69-11.1,32.64-16.43c26.08-12.71,52.73-24.12,80-34.03c20-7.27,40.12-14.26,61.2-17.77c6.21-1.03,12.61-1.08,18.94-1.2c2.22-.04,4.55.84,6.67,1.68c2.53,1,4.02,3.08,4.49,6.46Z" fill="#fff"/><path d="M35.83,133.14c2.31.22,4.68.22,6.94.71c10.38,2.27,19.92,6.69,29.34,11.47c29.72,15.07,60.56,27.41,92.26,37.66c14.11,4.56,28.38,8.48,42.95,11.25.91.17,1.77.63,2.65.96-.05.31-.1.63-.15.94-1.78-.12-3.57-.1-5.32-.38-20.37-3.26-39.9-9.72-59.49-15.89-32.39-10.21-64.2-21.96-94.63-37.18-4.21-2.11-8.29-4.49-12.44-6.73-.89-.48-1.81-.91-2.72-1.36.2-.47.4-.96.61-1.45Z" fill="#fff"/><path d="M224.07,166.74c-1.21.46-2.39,1.2-3.63,1.32-8.51.87-17.03,2.12-25.57,2.25-11.21.18-22.45-.45-33.66-.93-6.72-.29-13.23-1.83-19.52-4.25-.58-.22-1.08-.66-1.61-1c.03-.31.06-.61.1-.92c2.9-.09,5.83-.46,8.7-.23c11.62.93,23.22,2.03,34.83,3.09c11.05,1.01,22.08,1.19,33.1-.48c2.28-.35,4.64-.16,6.96-.23.1.46.2.92.3,1.38Z" fill="#fff"/><path d="M143.88,201.05c-4.48.62-9,1.01-13.43,1.91-7.97,1.61-15.97,3.19-23.78,5.4-7.19,2.03-14.38,2.07-21.66,1.62-2.66-.16-5.29-.67-7.93-1.03-.05-.41-.1-.83-.15-1.24c2.08-.75,4.11-1.81,6.25-2.2c7.33-1.32,14.68-2.81,22.08-3.47c11.34-1.01,22.74-1.39,34.12-1.99c1.48-.08,2.98.15,4.47.23.01.26.02.52.03.77Z" fill="#fff"/><path d="M284.03,209.2c4.34-1.43,8.75-2.7,13.02-4.31c10.4-3.93,20.66-8.25,31.14-11.95c6.5-2.3,13.29-3.79,19.98-5.55.94-.25,2.03.08,3.15.75-21.28,10.83-44.17,16.31-67.04,21.82-.09-.25-.17-.5-.25-.76Z" fill="#fff"/><path d="M32.66,118.46c-.83.04-1.71.31-2.43.07-5.6-1.83-11.16-3.74-16.73-5.66-.47-.16-.96-.47-1.28-.84-.85-.98-1.62-2.04-2.42-3.07c1.25-.33,2.59-1.13,3.73-.91c4.78.93,9.58,1.92,14.21,3.38c4.11,1.3,4.32,2.01,4.92,7.03Z" fill="#fff"/><path d="M384.91,102.78c3.98-5.12,27.1-23.24,32.55-22.38-1.38,5.35-25.88,20.73-32.55,22.38Z" fill="#fff"/><path d="M281.81,190.98c-17.2,8.58-35.11,15.04-54.15,18.09c18.9-3.48,35.74-13.14,54.15-18.09Z" fill="#fff"/><path d="M71.52,101.23c-5.96-.01-10.63-2.16-15.42-4.8c3.47-2.27,12.55.45,15.42,4.8Z" fill="#fff"/><path d="M346.33,213.53c6.18-2.23,12.57-2.06,18.95-2-2.32,2.28-15.46,3.64-18.95,2Z" fill="#fff"/><path d="M84.2,246.25c6.2-2.95,12.77-4.19,19.61-4.14-6.22,2.86-12.84,3.84-19.61,4.14Z" fill="#fff"/><path d="M321.42,126.99c4.39-2.15,8.78-4.3,13.17-6.45-.73,2.97-7.69,6.57-12.69,7.32-.17-.3-.32-.59-.48-.87Z" fill="#fff"/><path d="M357.92,115.53c3.16-1.63,6.33-3.26,9.49-4.88.18.34.37.69.55,1.03-3.14,1.72-6.28,3.44-9.42,5.15-.2-.43-.41-.87-.62-1.3Z" fill="#fff"/><path d="M392.07,136.66c-2.81,1.14-5.62,2.29-8.44,3.43-.14-.36-.29-.71-.43-1.07c2.81-1.15,5.62-2.3,8.43-3.45.14.36.29.72.44,1.09Z" fill="#fff"/><path d="M306.17,157.91c-2.63,1.53-5.26,3.07-7.88,4.6-.17-.29-.34-.57-.51-.86c2.6-1.52,5.21-3.04,7.81-4.56.19.27.38.54.58.82Z" fill="#fff"/><path d="M238.91,160.79c2.08-.83,4.16-1.66,6.24-2.49.16.39.32.78.48,1.16-2.09.85-4.18,1.69-6.28,2.54-.14-.4-.29-.81-.44-1.21Z" fill="#fff"/><path d="M76.82,172.53c-2.31-.44-4.63-.89-6.94-1.33.06-.31.12-.63.17-.94c2.3.42,4.59.85,6.89,1.27-.04.33-.08.66-.12,1Z" fill="#fff"/><path d="M262.91,152.18c-1.54.83-3.08,1.65-4.63,2.48-.18-.31-.35-.61-.53-.92c1.53-.9,3.05-1.79,4.58-2.69.19.38.38.75.58,1.13Z" fill="#fff"/></g></g><g id="eNZnr3yBRAk229" opacity="0"><g><path d="M201.62,110.95c-3.9.54-7.79,1.45-11.69,1.48-2.53.02-5.24-.9-7.57-2.03-3.22-1.56-3.22-4.6-.09-6.29c2.08-1.12,4.41-1.88,6.71-2.45c17.31-4.25,34.87-7.63,51.88-12.84c13.46-4.13,26.22-10.54,39.32-15.84c15.89-6.43,31.81-12.77,47.73-19.13c1.03-.41,2.12-.76,3.21-.91.85-.11,1.75.14,2.63.23-.32.92-.38,2.15-1.02,2.71-3.17,2.74-6.2,5.82-9.82,7.82-8.01,4.43-16.18,8.65-24.57,12.32-18.21,7.97-36.47,15.88-54.96,23.17-13.47,5.3-27.45,9.26-41.76,11.76Z" fill="#fff"/><path d="M180.94,169.65c-2.44.04-4.89.18-7.33.12-13.78-.35-27.57-.82-41.35-1.11-6.24-.13-12.55.63-18.71-.08-6.58-.76-13.02-2.75-19.51-4.3-.87-.21-1.61-.99-2.4-1.5.03-.28.07-.56.1-.85c1.43-.28,2.86-.84,4.28-.8c9.58.24,19.2.24,28.74,1.03c16.64,1.37,33.23,3.22,49.84,4.95c2.21.23,4.37.98,6.55,1.49-.08.34-.15.69-.21,1.05Z" fill="#fff"/><path d="M344.76,163.3c-29.46,15.65-60.44,27.74-91.72,39.14-.11-.26-.23-.53-.34-.79c5.24-2.18,10.54-4.22,15.7-6.58c14.4-6.57,28.7-13.36,43.12-19.89c9.2-4.17,18.54-8.04,27.83-12.01.93-.4,1.97-.57,2.98-.77.65-.13,1.32-.11,1.99-.16.15.34.3.7.44,1.06Z" fill="#fff"/><path d="M72.72,211.29c9.77-4.71,20.08-6.16,30.99-4.53-3.6,2.86-5.76,7.67-11.46,7.35-5.11-.29-10.25-.17-15.37-.43-1.43-.07-2.83-.81-4.25-1.24.04-.38.07-.76.09-1.15Z" fill="#fff"/><path d="M326.41,194.94c3.05-1.8,6.27-3.38,9.12-5.46c6.89-5.03,14.53-7.96,22.96-8.85c1.25-.13,2.54.07,3.94.73-10.99,7.22-22.73,12.24-35.62,14.35-.13-.25-.26-.51-.4-.77Z" fill="#fff"/><path d="M238.13,192.86c-1.69.79-3.33,1.71-5.08,2.34-6.18,2.22-12.58,2.36-19.05,1.85-10.39-.82-20.41-3.37-30.35-6.31-.87-.26-1.67-.73-2.51-1.1.06-.22.11-.44.17-.66c2.74.58,5.48,1.2,8.23,1.72c8.32,1.56,16.6,3.35,24.97,4.51c7.06.98,13.98-.58,20.73-2.77.82-.27,1.72-.26,2.59-.38.1.26.2.53.3.8Z" fill="#fff"/><path d="M362.94,47.04c1.47-4.61,17.36-14.16,22.51-13.67-.73,4.36-17.08,14.41-22.51,13.67Z" fill="#fff"/><path d="M401.21,89.46c5.8-4.94,11.87-9.46,19.51-11.51-5.49,5.39-11.76,9.57-18.77,12.64-.25-.39-.49-.76-.74-1.13Z" fill="#fff"/><path d="M399.77,36.66c4.17-5.53,9.66-9.12,16.28-11.02-4.18,5.48-9.54,9.24-16.28,11.02Z" fill="#fff"/><path d="M14.08,113.01c4.37-1.24,14.24,1.99,16.43,5.24-3.24,1.29-13.98-2.04-16.43-5.24Z" fill="#fff"/><path d="M450.34,25.81c-3.53,3.69-7.4,5.83-11.95,7.52c1.12-2.98,8.13-7.45,11.95-7.52Z" fill="#fff"/><path d="M65.13,100.62c-2.89-1.02-5.79-2.04-8.68-3.06.13-.37.26-.74.38-1.11c3.19.15,6.17.97,8.74,3.02-.14.39-.29.77-.44,1.15Z" fill="#fff"/><path d="M328.64,124.71c-2.38,1.23-4.76,2.46-7.14,3.69-.21-.4-.41-.81-.62-1.21c2.39-1.23,4.79-2.45,7.18-3.68.19.39.39.8.58,1.2Z" fill="#fff"/><path d="M161.51,183.71c-3.04-.82-6.07-1.65-9.11-2.47.09-.33.17-.66.26-.99c3.03.82,6.06,1.64,9.08,2.46-.07.33-.15.66-.23,1Z" fill="#fff"/><path d="M133.9,174.34c-2.22-.62-4.44-1.23-6.66-1.85.09-.35.19-.69.29-1.04c2.22.62,4.44,1.24,6.66,1.85-.11.35-.2.7-.29,1.04Z" fill="#fff"/><path d="M80.92,153.26c2.11.62,4.22,1.24,6.33,1.86-.07.27-.15.54-.22.81-2.13-.57-4.26-1.14-6.39-1.71.1-.33.19-.64.28-.96Z" fill="#fff"/></g></g><g id="eNZnr3yBRAk247" opacity="0"><g><path d="M195.77,111.17c-15.05,2.49-30.24,2.23-45.42,2.15-9.18-.05-18.36-.08-27.53-.36-9.81-.3-18.81-3.57-27.41-8.08-.53-.28-1.04-.62-1.49-1.01-1.69-1.47-1.54-2.83.64-3.23c3.35-.61,6.82-1.19,10.19-.97c13.95.89,27.9,1.91,41.82,3.21c20.15,1.89,40.24,2.21,60.3-1.05c3.22-.52,6.62-.03,9.92.25.78.07,2.06,1.2,2.06,1.83-.01.89-.8,2.21-1.6,2.59-2.4,1.11-4.9,2.17-7.48,2.67-4.62.89-9.33,1.36-14,2Z" fill="#fff"/><path d="M297.88,182.76c2-1.07,3.95-2.22,5.99-3.19c20.05-9.58,39.28-20.62,58.13-32.35c7.95-4.95,16.28-9.14,25.19-12.08c1.95-.64,4.01-.91,6.03-1.36.18.36.37.72.55,1.08-1.22,1.03-2.32,2.27-3.68,3.06-9.79,5.65-19.37,11.75-29.51,16.69-19.94,9.72-40.19,18.79-60.33,28.11-.66.31-1.43.37-2.15.55-.08-.18-.15-.35-.22-.51Z" fill="#fff"/><path d="M131.89,167.09c-5.44.49-10.93.69-16.32,1.54-5.39.86-10.78,2.05-15.97,3.71-3.61,1.16-7.1,1.25-10.61.55-5.19-1.03-10.31-2.4-15.43-3.72-.92-.24-1.71-.97-3.23-1.87c1.63-.88,2.64-1.83,3.74-1.96c6.79-.79,13.59-1.91,20.4-1.95c9.84-.05,19.7.63,29.54,1.21c2.71.16,5.39,1.06,8.08,1.62-.07.3-.13.59-.2.87Z" fill="#fff"/><path d="M225.05,195.24c2.5-.71,4.98-1.44,7.49-2.11c9.11-2.42,17.34-6.8,25.53-11.3c9.52-5.24,19-10.55,28.53-15.75c1.27-.69,2.77-.98,4.16-1.45.1.19.21.39.31.58-.61.52-1.17,1.12-1.83,1.56-15.45,10.28-31.76,18.93-49.07,25.62-3.97,1.53-8.2,2.4-12.34,3.47-.87.22-1.85,0-2.79-.02.01-.2.01-.4.01-.6Z" fill="#fff"/><path d="M376.44,37.86c-4.77,6.46-11.45,8.52-18.29,11.03.94-4.12,12.79-11.28,18.29-11.03Z" fill="#fff"/><path d="M243.96,97.02c-.44-.17-1.15-.23-1.26-.51-.17-.47-.17-1.3.14-1.6c2.79-2.83,6.29-4.38,10.16-4.91c1.58-.21,1.92,1.14,1.01,2.21-.85,1-2,1.89-3.2,2.41-2.19.95-4.5,1.6-6.85,2.4Z" fill="#fff"/><path d="M95.86,213.28c-6.79,1.39-13.61,1.68-20.47.79c3.32-2.19,16.99-2.65,20.47-.79Z" fill="#fff"/><path d="M362.61,180.03c-5.9,3.14-12.17,5.05-18.92,5.26c5.76-3.59,12.24-4.74,18.92-5.26Z" fill="#fff"/><path d="M399.43,36.16c3.11-4.56,7.44-7.3,12.69-8.69-3.36,4.16-7.7,6.91-12.69,8.69Z" fill="#fff"/><path d="M272.17,84.82c.69-2.72,4.76-6.17,7.28-6.28c1.73-.08,1.55.94,1.07,2.02-.97,2.19-5.52,4.57-8.35,4.26Z" fill="#fff"/><path d="M422.92,76.64c-3.58,2.05-7.15,4.09-10.73,6.14-.17-.29-.34-.59-.51-.88c3.12-2.83,6.79-4.73,10.66-6.26.2.33.39.67.58,1Z" fill="#fff"/><path d="M17.3,114.81c3.37,1.08,6.75,2.15,10.12,3.23-.13.42-.26.84-.39,1.26-3.37-1.04-6.74-2.09-10.11-3.13.13-.45.25-.91.38-1.36Z" fill="#fff"/><path d="M445.38,28.01c-1.68,1.08-3.36,2.15-5.03,3.23-.15-.23-.29-.46-.44-.68c1.68-1.07,3.36-2.15,5.04-3.22.15.21.29.44.43.67Z" fill="#fff"/></g></g><g id="eNZnr3yBRAk262" opacity="0"><g><path d="M41.52,97.99c11.29.58,22.6.85,33.85,1.82c18.19,1.57,36.35,3.49,54.49,5.48c5.77.63,11.49,1.82,17.17,3.06c1.46.32,2.67,1.81,4,2.76-1.51.48-3.02,1.37-4.53,1.37-14.39.04-28.79-.23-43.18-.06-8.13.09-16.29.5-24.37,1.36-10.75,1.14-20.78-1.34-30.63-5.04-3.51-1.32-6.9-3.01-10.18-4.83-1.08-.6-1.64-2.15-2.43-3.27c1.17-.59,2.3-1.26,3.51-1.74.7-.28,1.52-.24,2.28-.35-.01-.18.01-.37.02-.56Z" fill="#fff"/><path d="M254.75,184.05c3.51-2.07,7.07-4.08,10.54-6.24c15.35-9.55,30.75-19.03,46-28.74c12.21-7.77,24.16-15.97,36.39-23.7c4.4-2.78,9.28-4.78,13.99-7.06c1.04-.5,2.23-.69,3.36-1.02.17.22.34.44.5.67-.9.87-1.7,1.88-2.72,2.58-9.05,6.18-17.91,12.69-27.26,18.37-19.62,11.93-39.46,23.51-59.32,35.05-6.35,3.69-13.05,6.8-19.6,10.15-.51.26-1.11.34-1.66.5-.08-.19-.15-.37-.22-.56Z" fill="#fff"/><path d="M357.68,151.79c1.5-1.18,2.98-2.38,4.5-3.53c8.01-6.02,15.92-12.19,24.09-17.98c6.27-4.44,13.42-7.21,20.79-9.32c1.23-.35,2.56-.38,3.84-.56.17.32.34.64.51.96-1.04,1.12-1.91,2.5-3.15,3.3-8.55,5.55-17.01,11.26-25.83,16.34-6.73,3.87-13.94,6.9-20.96,10.26-1.09.52-2.3.79-3.45,1.18-.12-.22-.23-.43-.34-.65Z" fill="#fff"/><path d="M79.92,166.58c4.28.72,9.31,1.53,14.33,2.42c1.88.33,1.6,1.72,1.18,2.99-.29.88-1.05,1.7-1.07,2.56-.06,3.05-1.91,3.5-4.26,3.05-5.43-1.06-10.85-2.22-16.24-3.44-1.06-.24-2.08-.82-3-1.41-1.79-1.15-1.75-2.3.21-3.11c2.6-1.07,5.31-1.86,8.85-3.06Z" fill="#fff"/><path d="M357.2,48.16c2.67-4.37,6.51-6.12,11.01-7.21-.68,3.16-7.13,7.48-11.01,7.21Z" fill="#fff"/><path d="M186.9,110.99c-2.78.37-5.34-.9-5.15-2.27.09-.62,1.07-1.44,1.77-1.59c2.07-.44,4.72.83,4.58,2.13-.07.75-.97,1.42-1.2,1.73Z" fill="#fff"/><path d="M242.04,96.37c.39-2.51,2.21-3.62,5.07-3.1-.41,2.44-2.38,3.65-5.07,3.1Z" fill="#fff"/><path d="M276.27,81.23c-.71,2.69-2.29,3.42-4.86,3.74.79-2.64,2.31-3.44,4.86-3.74Z" fill="#fff"/><path d="M406.12,30.87c-1.78,1.29-3.56,2.58-5.34,3.87-.2-.27-.39-.55-.59-.82c1.79-1.28,3.58-2.55,5.38-3.83.18.27.36.52.55.78Z" fill="#fff"/></g></g><g id="eNZnr3yBRAk273" opacity="0"><g><path d="M85.67,110.1c-3.44.48-6.9.88-10.33,1.44-6.68,1.1-13.4,2.11-19.44,5.48-1.27.71-2.66,1.33-3.69,2.31-2.45,2.32-5.24,2.63-8.34,2-8.26-1.67-16.26-4.1-23.64-8.29-.74-.42-1.47-.89-2.14-1.42-2.04-1.6-2.19-3.38.04-4.73c2.07-1.26,4.5-2.44,6.85-2.62c8.18-.62,16.4-1.12,24.59-1.02c7.78.09,15.58.74,23.32,1.6c3.68.41,7.26,1.82,10.84,2.9.81.24,1.46,1,2.18,1.52-.08.28-.16.55-.24.83Z" fill="#fff"/><path d="M309.07,151.84c3.94-2.7,7.93-5.33,11.81-8.11c15.59-11.21,31.23-22.34,46.67-33.75c11.71-8.66,22.94-17.97,34.78-26.44c5.59-4,12.07-6.76,18.2-9.97c1.05-.55,2.38-.58,3.58-.85.21.26.41.53.62.79-.92,1.19-1.65,2.62-2.79,3.54-7,5.65-13.96,11.37-21.2,16.71-22.86,16.83-46.77,32.07-70.95,46.92-5.7,3.5-11.44,6.93-17.18,10.35-1,.6-2.13.99-3.19,1.47-.12-.22-.23-.44-.35-.66Z" fill="#fff"/><path d="M412.56,119.66c-8.29,5.77-17.48,9.62-27.29,12.14c7.97-6.4,17.18-10.2,26.69-13.38.2.41.4.82.6,1.24Z" fill="#fff"/><path d="M73.41,174.25c6.62-.85,13-.06,19.06,2.76-6.6.78-12.93-.29-19.06-2.76Z" fill="#fff"/><path d="M112.18,105.76c1.99.8,3.99,1.59,5.98,2.39-2.53,1.3-4.91.41-6.38-1.72.14-.23.27-.45.4-.67Z" fill="#fff"/></g></g><g id="eNZnr3yBRAk280" opacity="0"><g><path d="M382.34,101.2c.51-.61.96-1.27,1.54-1.81c11.19-10.48,22.33-21.01,33.6-31.4c6.92-6.37,14.85-11.27,23.52-14.94c1.25-.53,2.58-.98,3.91-1.21c1.74-.3,2.35.67,1.41,2.08-1.03,1.56-2.21,3.1-3.62,4.31-7.01,6.02-13.93,12.19-21.25,17.82-8.82,6.77-17.97,13.12-27.09,19.49-2.86,2-6.07,3.5-9.15,5.18-.78.43-1.66.68-2.49,1.01-.12-.19-.25-.36-.38-.53Z" fill="#fff"/><path d="M49.07,128.8c-1.8-.07-3.17.06-4.46-.2-8.12-1.62-15.92-4.11-23.02-8.51-.29-.18-.65-.31-.86-.56-1.07-1.35-3-2.83-2.88-4.09.13-1.3,2.23-2.45,3.55-3.58c3.5-3,7.52-2.29,11.47-1.4c3,.68,5.99,1.49,8.9,2.49c4.27,1.46,5.12,2.91,5.16,7.41.01,1.35.3,2.71.63,4.03.33,1.31.87,2.57,1.51,4.41Z" fill="#fff"/></g></g><g id="eNZnr3yBRAk284" opacity="0"><g><path d="M417.63,68.64c8.97-8.88,19.54-15.18,31.63-20.38-1.57,5.26-26.13,20.89-31.63,20.38Z" fill="#fff"/><path d="M23.84,121.66c3.9-1.97,20.39,2.34,23.78,6.22-3,2.12-21.15-2.63-23.78-6.22Z" fill="#fff"/></g></g><script><![CDATA[!function(t,e){"object"==typeof exports&&"undefined"!=typeof module?module.exports=e():"function"==typeof define&&define.amd?define(e):((t="undefined"!=typeof globalThis?globalThis:t||self).__SVGATOR_PLAYER__=t.__SVGATOR_PLAYER__||{},t.__SVGATOR_PLAYER__["91c80d77"]=e())}(this,(function(){"use strict";function t(t,e){var n=Object.keys(t);if(Object.getOwnPropertySymbols){var r=Object.getOwnPropertySymbols(t);e&&(r=r.filter((function(e){return Object.getOwnPropertyDescriptor(t,e).enumerable}))),n.push.apply(n,r)}return n}function e(e){for(var n=1;n<arguments.length;n++){var r=null!=arguments[n]?arguments[n]:{};n%2?t(Object(r),!0).forEach((function(t){u(e,t,r[t])})):Object.getOwnPropertyDescriptors?Object.defineProperties(e,Object.getOwnPropertyDescriptors(r)):t(Object(r)).forEach((function(t){Object.defineProperty(e,t,Object.getOwnPropertyDescriptor(r,t))}))}return e}function n(t){return(n="function"==typeof Symbol&&"symbol"==typeof Symbol.iterator?function(t){return typeof t}:function(t){return t&&"function"==typeof Symbol&&t.constructor===Symbol&&t!==Symbol.prototype?"symbol":typeof t})(t)}function r(t,e){if(!(t instanceof e))throw new TypeError("Cannot call a class as a function")}function i(t,e){for(var n=0;n<e.length;n++){var r=e[n];r.enumerable=r.enumerable||!1,r.configurable=!0,"value"in r&&(r.writable=!0),Object.defineProperty(t,r.key,r)}}function o(t,e,n){return e&&i(t.prototype,e),n&&i(t,n),t}function u(t,e,n){return e in t?Object.defineProperty(t,e,{value:n,enumerable:!0,configurable:!0,writable:!0}):t[e]=n,t}function a(t){return(a=Object.setPrototypeOf?Object.getPrototypeOf:function(t){return t.__proto__||Object.getPrototypeOf(t)})(t)}function s(t,e){return(s=Object.setPrototypeOf||function(t,e){return t.__proto__=e,t})(t,e)}function l(){if("undefined"==typeof Reflect||!Reflect.construct)return!1;if(Reflect.construct.sham)return!1;if("function"==typeof Proxy)return!0;try{return Boolean.prototype.valueOf.call(Reflect.construct(Boolean,[],(function(){}))),!0}catch(t){return!1}}function f(t,e,n){return(f=l()?Reflect.construct:function(t,e,n){var r=[null];r.push.apply(r,e);var i=new(Function.bind.apply(t,r));return n&&s(i,n.prototype),i}).apply(null,arguments)}function c(t,e){if(e&&("object"==typeof e||"function"==typeof e))return e;if(void 0!==e)throw new TypeError("Derived constructors may only return object or undefined");return function(t){if(void 0===t)throw new ReferenceError("this hasn't been initialised - super() hasn't been called");return t}(t)}function h(t,e,n){return(h="undefined"!=typeof Reflect&&Reflect.get?Reflect.get:function(t,e,n){var r=function(t,e){for(;!Object.prototype.hasOwnProperty.call(t,e)&&null!==(t=a(t)););return t}(t,e);if(r){var i=Object.getOwnPropertyDescriptor(r,e);return i.get?i.get.call(n):i.value}})(t,e,n||t)}function v(t){return function(t){if(Array.isArray(t))return y(t)}(t)||function(t){if("undefined"!=typeof Symbol&&null!=t[Symbol.iterator]||null!=t["@@iterator"])return Array.from(t)}(t)||function(t,e){if(!t)return;if("string"==typeof t)return y(t,e);var n=Object.prototype.toString.call(t).slice(8,-1);"Object"===n&&t.constructor&&(n=t.constructor.name);if("Map"===n||"Set"===n)return Array.from(t);if("Arguments"===n||/^(?:Ui|I)nt(?:8|16|32)(?:Clamped)?Array$/.test(n))return y(t,e)}(t)||function(){throw new TypeError("Invalid attempt to spread non-iterable instance.\nIn order to be iterable, non-array objects must have a [Symbol.iterator]() method.")}()}function y(t,e){(null==e||e>t.length)&&(e=t.length);for(var n=0,r=new Array(e);n<e;n++)r[n]=t[n];return r}Number.isInteger||(Number.isInteger=function(t){return"number"==typeof t&&isFinite(t)&&Math.floor(t)===t}),Number.EPSILON||(Number.EPSILON=2220446049250313e-31);var d=g(Math.pow(10,-6));function g(t){var e=arguments.length>1&&void 0!==arguments[1]?arguments[1]:6;if(Number.isInteger(t))return t;var n=Math.pow(10,e);return Math.round((+t+Number.EPSILON)*n)/n}function p(t,e){var n=arguments.length>2&&void 0!==arguments[2]?arguments[2]:d;return Math.abs(t-e)<n}var m=Math.PI/180;function b(t){return t}function k(t,e,n){var r=1-n;return 3*n*r*(t*r+e*n)+n*n*n}function w(){var t=arguments.length>0&&void 0!==arguments[0]?arguments[0]:0,e=arguments.length>1&&void 0!==arguments[1]?arguments[1]:0,n=arguments.length>2&&void 0!==arguments[2]?arguments[2]:1,r=arguments.length>3&&void 0!==arguments[3]?arguments[3]:1;return t<0||t>1||n<0||n>1?null:p(t,e)&&p(n,r)?b:function(i){if(i<=0)return t>0?i*e/t:0===e&&n>0?i*r/n:0;if(i>=1)return n<1?1+(i-1)*(r-1)/(n-1):1===n&&t<1?1+(i-1)*(e-1)/(t-1):1;for(var o,u=0,a=1;u<a;){var s=k(t,n,o=(u+a)/2);if(p(i,s))break;s<i?u=o:a=o}return k(e,r,o)}}function x(){return 1}function A(t){return 1===t?1:0}function _(){var t=arguments.length>0&&void 0!==arguments[0]?arguments[0]:1,e=arguments.length>1&&void 0!==arguments[1]?arguments[1]:0;if(1===t){if(0===e)return A;if(1===e)return x}var n=1/t;return function(t){return t>=1?1:(t+=e*n)-t%n}}var O=Math.sin,S=Math.cos,E=Math.acos,P=Math.asin,M=Math.tan,j=Math.atan2,B=Math.PI/180,T=180/Math.PI,I=Math.sqrt,R=function(){function t(){var e=arguments.length>0&&void 0!==arguments[0]?arguments[0]:1,n=arguments.length>1&&void 0!==arguments[1]?arguments[1]:0,i=arguments.length>2&&void 0!==arguments[2]?arguments[2]:0,o=arguments.length>3&&void 0!==arguments[3]?arguments[3]:1,u=arguments.length>4&&void 0!==arguments[4]?arguments[4]:0,a=arguments.length>5&&void 0!==arguments[5]?arguments[5]:0;r(this,t),this.m=[e,n,i,o,u,a],this.i=null,this.w=null,this.s=null}return o(t,[{key:"determinant",get:function(){var t=this.m;return t[0]*t[3]-t[1]*t[2]}},{key:"isIdentity",get:function(){if(null===this.i){var t=this.m;this.i=1===t[0]&&0===t[1]&&0===t[2]&&1===t[3]&&0===t[4]&&0===t[5]}return this.i}},{key:"point",value:function(t,e){var n=this.m;return{x:n[0]*t+n[2]*e+n[4],y:n[1]*t+n[3]*e+n[5]}}},{key:"translateSelf",value:function(){var t=arguments.length>0&&void 0!==arguments[0]?arguments[0]:0,e=arguments.length>1&&void 0!==arguments[1]?arguments[1]:0;if(!t&&!e)return this;var n=this.m;return n[4]+=n[0]*t+n[2]*e,n[5]+=n[1]*t+n[3]*e,this.w=this.s=this.i=null,this}},{key:"rotateSelf",value:function(){var t=arguments.length>0&&void 0!==arguments[0]?arguments[0]:0;if(t%=360){var e=O(t*=B),n=S(t),r=this.m,i=r[0],o=r[1];r[0]=i*n+r[2]*e,r[1]=o*n+r[3]*e,r[2]=r[2]*n-i*e,r[3]=r[3]*n-o*e,this.w=this.s=this.i=null}return this}},{key:"scaleSelf",value:function(){var t=arguments.length>0&&void 0!==arguments[0]?arguments[0]:1,e=arguments.length>1&&void 0!==arguments[1]?arguments[1]:1;if(1!==t||1!==e){var n=this.m;n[0]*=t,n[1]*=t,n[2]*=e,n[3]*=e,this.w=this.s=this.i=null}return this}},{key:"skewSelf",value:function(t,e){if(e%=360,(t%=360)||e){var n=this.m,r=n[0],i=n[1],o=n[2],u=n[3];t&&(t=M(t*B),n[2]+=r*t,n[3]+=i*t),e&&(e=M(e*B),n[0]+=o*e,n[1]+=u*e),this.w=this.s=this.i=null}return this}},{key:"resetSelf",value:function(){var t=arguments.length>0&&void 0!==arguments[0]?arguments[0]:1,e=arguments.length>1&&void 0!==arguments[1]?arguments[1]:0,n=arguments.length>2&&void 0!==arguments[2]?arguments[2]:0,r=arguments.length>3&&void 0!==arguments[3]?arguments[3]:1,i=arguments.length>4&&void 0!==arguments[4]?arguments[4]:0,o=arguments.length>5&&void 0!==arguments[5]?arguments[5]:0,u=this.m;return u[0]=t,u[1]=e,u[2]=n,u[3]=r,u[4]=i,u[5]=o,this.w=this.s=this.i=null,this}},{key:"recomposeSelf",value:function(){var t=arguments.length>0&&void 0!==arguments[0]?arguments[0]:null,e=arguments.length>1&&void 0!==arguments[1]?arguments[1]:null,n=arguments.length>2&&void 0!==arguments[2]?arguments[2]:null,r=arguments.length>3&&void 0!==arguments[3]?arguments[3]:null,i=arguments.length>4&&void 0!==arguments[4]?arguments[4]:null;return this.isIdentity||this.resetSelf(),t&&(t.x||t.y)&&this.translateSelf(t.x,t.y),e&&this.rotateSelf(e),n&&(n.x&&this.skewSelf(n.x,0),n.y&&this.skewSelf(0,n.y)),!r||1===r.x&&1===r.y||this.scaleSelf(r.x,r.y),i&&(i.x||i.y)&&this.translateSelf(i.x,i.y),this}},{key:"decompose",value:function(){var t=arguments.length>0&&void 0!==arguments[0]?arguments[0]:0,e=arguments.length>1&&void 0!==arguments[1]?arguments[1]:0,n=this.m,r=n[0]*n[0]+n[1]*n[1],i=[[n[0],n[1]],[n[2],n[3]]],o=I(r);if(0===o)return{origin:{x:g(n[4]),y:g(n[5])},translate:{x:g(t),y:g(e)},scale:{x:0,y:0},skew:{x:0,y:0},rotate:0};i[0][0]/=o,i[0][1]/=o;var u=n[0]*n[3]-n[1]*n[2]<0;u&&(o=-o);var a=i[0][0]*i[1][0]+i[0][1]*i[1][1];i[1][0]-=i[0][0]*a,i[1][1]-=i[0][1]*a;var s=I(i[1][0]*i[1][0]+i[1][1]*i[1][1]);if(0===s)return{origin:{x:g(n[4]),y:g(n[5])},translate:{x:g(t),y:g(e)},scale:{x:g(o),y:0},skew:{x:0,y:0},rotate:0};i[1][0]/=s,i[1][1]/=s,a/=s;var l=0;return i[1][1]<0?(l=E(i[1][1])*T,i[0][1]<0&&(l=360-l)):l=P(i[0][1])*T,u&&(l=-l),a=j(a,I(i[0][0]*i[0][0]+i[0][1]*i[0][1]))*T,u&&(a=-a),{origin:{x:g(n[4]),y:g(n[5])},translate:{x:g(t),y:g(e)},scale:{x:g(o),y:g(s)},skew:{x:g(a),y:0},rotate:g(l)}}},{key:"clone",value:function(){var t=this.m;return new this.constructor(t[0],t[1],t[2],t[3],t[4],t[5])}},{key:"toString",value:function(){var t=arguments.length>0&&void 0!==arguments[0]?arguments[0]:" ";if(null===this.s){var e=this.m.map((function(t){return g(t)}));1===e[0]&&0===e[1]&&0===e[2]&&1===e[3]?this.s="translate("+e[4]+t+e[5]+")":this.s="matrix("+e.join(t)+")"}return this.s}}],[{key:"create",value:function(t){return t?Array.isArray(t)?f(this,v(t)):t instanceof this?t.clone():(new this).recomposeSelf(t.origin,t.rotate,t.skew,t.scale,t.translate):new this}}]),t}();function N(t,e,n){return t>=.5?n:e}function F(t,e,n){return 0===t||e===n?e:t*(n-e)+e}function C(t,e,n){var r=F(t,e,n);return r<=0?0:r}function L(t,e,n){var r=F(t,e,n);return r<=0?0:r>=1?1:r}function D(t,e,n){return 0===t?e:1===t?n:{x:F(t,e.x,n.x),y:F(t,e.y,n.y)}}function q(t,e,n){return 0===t?e:1===t?n:{x:C(t,e.x,n.x),y:C(t,e.y,n.y)}}function V(t,e,n){var r=function(t,e,n){return Math.round(F(t,e,n))}(t,e,n);return r<=0?0:r>=255?255:r}function z(t,e,n){return 0===t?e:1===t?n:{r:V(t,e.r,n.r),g:V(t,e.g,n.g),b:V(t,e.b,n.b),a:F(t,null==e.a?1:e.a,null==n.a?1:n.a)}}function Y(t,e,n){var r=e.length;if(r!==n.length)return N(t,e,n);for(var i=new Array(r),o=0;o<r;o++)i[o]=F(t,e[o],n[o]);return i}function G(t,e){for(var n=[],r=0;r<t;r++)n.push(e);return n}function U(t,e){if(--e<=0)return t;var n=(t=Object.assign([],t)).length;do{for(var r=0;r<n;r++)t.push(t[r])}while(--e>0);return t}var $,W=function(){function t(e){r(this,t),this.list=e,this.length=e.length}return o(t,[{key:"setAttribute",value:function(t,e){for(var n=this.list,r=0;r<this.length;r++)n[r].setAttribute(t,e)}},{key:"removeAttribute",value:function(t){for(var e=this.list,n=0;n<this.length;n++)e[n].removeAttribute(t)}},{key:"style",value:function(t,e){for(var n=this.list,r=0;r<this.length;r++)n[r].style[t]=e}}]),t}(),H=/-./g,Q=function(t,e){return e.toUpperCase()};function X(t){return"function"==typeof t?t:N}function J(t){return t?"function"==typeof t?t:Array.isArray(t)?function(t){var e=arguments.length>1&&void 0!==arguments[1]?arguments[1]:b;if(!Array.isArray(t))return e;switch(t.length){case 1:return _(t[0])||e;case 2:return _(t[0],t[1])||e;case 4:return w(t[0],t[1],t[2],t[3])||e}return e}(t,null):function(t,e){var n=arguments.length>2&&void 0!==arguments[2]?arguments[2]:b;switch(t){case"linear":return b;case"steps":return _(e.steps||1,e.jump||0)||n;case"bezier":case"cubic-bezier":return w(e.x1||0,e.y1||0,e.x2||0,e.y2||0)||n}return n}(t.type,t.value,null):null}function K(t,e,n){var r=arguments.length>3&&void 0!==arguments[3]&&arguments[3],i=e.length-1;if(t<=e[0].t)return r?[0,0,e[0].v]:e[0].v;if(t>=e[i].t)return r?[i,1,e[i].v]:e[i].v;var o,u=e[0],a=null;for(o=1;o<=i;o++){if(!(t>e[o].t)){a=e[o];break}u=e[o]}return null==a?r?[i,1,e[i].v]:e[i].v:u.t===a.t?r?[o,1,a.v]:a.v:(t=(t-u.t)/(a.t-u.t),u.e&&(t=u.e(t)),r?[o,t,n(t,u.v,a.v)]:n(t,u.v,a.v))}function Z(t,e){var n=arguments.length>2&&void 0!==arguments[2]?arguments[2]:null;return t&&t.length?"function"!=typeof e?null:("function"!=typeof n&&(n=null),function(r){var i=K(r,t,e);return null!=i&&n&&(i=n(i)),i}):null}function tt(t,e){return t.t-e.t}function et(t,e,r,i,o){var u,a="@"===r[0],s="#"===r[0],l=$[r],f=N;switch(a?(u=r.substr(1),r=u.replace(H,Q)):s&&(r=r.substr(1)),n(l)){case"function":if(f=l(i,o,K,J,r,a,e,t),s)return f;break;case"string":f=Z(i,X(l));break;case"object":if((f=Z(i,X(l.i),l.f))&&"function"==typeof l.u)return l.u(e,f,r,a,t)}return f?function(t,e,n){if(arguments.length>3&&void 0!==arguments[3]&&arguments[3])return t instanceof W?function(r){return t.style(e,n(r))}:function(r){return t.style[e]=n(r)};if(Array.isArray(e)){var r=e.length;return function(i){var o=n(i);if(null==o)for(var u=0;u<r;u++)t[u].removeAttribute(e);else for(var a=0;a<r;a++)t[a].setAttribute(e,o)}}return function(r){var i=n(r);null==i?t.removeAttribute(e):t.setAttribute(e,i)}}(e,r,f,a):null}function nt(t,e,r,i){if(!i||"object"!==n(i))return null;var o=null,u=null;return Array.isArray(i)?u=function(t){if(!t||!t.length)return null;for(var e=0;e<t.length;e++)t[e].e&&(t[e].e=J(t[e].e));return t.sort(tt)}(i):(u=i.keys,o=i.data||null),u?et(t,e,r,u,o):null}function rt(t,e,n){if(!n)return null;var r=[];for(var i in n)if(n.hasOwnProperty(i)){var o=nt(t,e,i,n[i]);o&&r.push(o)}return r.length?r:null}function it(t,e){if(!e.settings.duration||e.settings.duration<0)return null;var n,r,i,o,u,a=function(t,e){if(!e)return null;var n=[];if(Array.isArray(e))for(var r=e.length,i=0;i<r;i++){var o=e[i];if(2===o.length){var u=null;if("string"==typeof o[0])u=t.getElementById(o[0]);else if(Array.isArray(o[0])){u=[];for(var a=0;a<o[0].length;a++)if("string"==typeof o[0][a]){var s=t.getElementById(o[0][a]);s&&u.push(s)}u=u.length?1===u.length?u[0]:new W(u):null}if(u){var l=rt(t,u,o[1]);l&&(n=n.concat(l))}}}else for(var f in e)if(e.hasOwnProperty(f)){var c=t.getElementById(f);if(c){var h=rt(t,c,e[f]);h&&(n=n.concat(h))}}return n.length?n:null}(t,e.elements);return a?(n=a,r=e.settings,i=r.duration,o=n.length,u=null,function(t,e){var a=r.iterations||1/0,s=(r.alternate&&a%2==0)^r.direction>0?i:0,l=t%i,f=1+(t-l)/i;e*=r.direction,r.alternate&&f%2==0&&(e=-e);var c=!1;if(f>a)l=s,c=!0,-1===r.fill&&(l=r.direction>0?0:i);else if(e<0&&(l=i-l),l===u)return!1;u=l;for(var h=0;h<o;h++)n[h](l);return c}):null}function ot(t,e){if($=e,!t||!t.root||!Array.isArray(t.animations))return null;var n=function(t){for(var e=document.getElementsByTagName("svg"),n=0;n<e.length;n++)if(e[n].id===t.root&&!e[n].svgatorAnimation)return e[n].svgatorAnimation=!0,e[n];return null}(t);if(!n)return null;var r=t.animations.map((function(t){return it(n,t)})).filter((function(t){return!!t}));return r.length?{svg:n,animations:r,animationSettings:t.animationSettings,options:t.options||void 0}:null}function ut(t){return+("0x"+(t.replace(/[^0-9a-fA-F]+/g,"")||27))}function at(t,e,n){return!t||!n||e>t.length?t:t.substring(0,e)+at(t.substring(e+1),n,n)}function st(t){var e=arguments.length>1&&void 0!==arguments[1]?arguments[1]:27;return!t||t%e?t%e:st(t/e,e)}function lt(t,e,n){if(t&&t.length){var r=ut(n),i=ut(e),o=st(r)+5,u=at(t,st(r,5),o);return u=u.replace(/\x7c$/g,"==").replace(/\x2f$/g,"="),u=function(t,e,n){var r=+("0x"+t.substring(0,4));t=t.substring(4);for(var i=e%r+n%27,o=[],u=0;u<t.length;u+=2)if("|"!==t[u]){var a=+("0x"+t[u]+t[u+1])-i;o.push(a)}else{var s=+("0x"+t.substring(u+1,u+1+4))-i;u+=3,o.push(s)}return String.fromCharCode.apply(String,o)}(u=(u=atob(u)).replace(/[\x41-\x5A]/g,""),i,r),u=JSON.parse(u)}}var ft=[{key:"alternate",def:!1},{key:"fill",def:1},{key:"iterations",def:0},{key:"direction",def:1},{key:"speed",def:1},{key:"fps",def:100}],ct=function(){function t(e,n){var i=this,o=arguments.length>2&&void 0!==arguments[2]?arguments[2]:null;r(this,t),this._id=0,this._running=!1,this._rollingBack=!1,this._animations=e,this._settings=n,(!o||o<"2022-05-02")&&delete this._settings.speed,ft.forEach((function(t){i._settings[t.key]=i._settings[t.key]||t.def})),this.duration=n.duration,this.offset=n.offset||0,this.rollbackStartOffset=0}return o(t,[{key:"alternate",get:function(){return this._settings.alternate}},{key:"fill",get:function(){return this._settings.fill}},{key:"iterations",get:function(){return this._settings.iterations}},{key:"direction",get:function(){return this._settings.direction}},{key:"speed",get:function(){return this._settings.speed}},{key:"fps",get:function(){return this._settings.fps}},{key:"maxFiniteDuration",get:function(){return this.iterations>0?this.iterations*this.duration:this.duration}},{key:"_apply",value:function(t){for(var e=arguments.length>1&&void 0!==arguments[1]?arguments[1]:{},n=this._animations,r=n.length,i=0,o=0;o<r;o++)e[o]?i++:(e[o]=n[o](t,1),e[o]&&i++);return i}},{key:"_rollback",value:function(t){var e=this,n=1/0,r=null;this.rollbackStartOffset=t,this._rollingBack=!0,this._running=!0;this._id=window.requestAnimationFrame((function i(o){if(e._rollingBack){null==r&&(r=o);var u=Math.round(t-(o-r)*e.speed);if(u>e.duration&&n!==1/0){var a=!!e.alternate&&u/e.duration%2>1,s=u%e.duration;u=(s+=a?e.duration:0)||e.duration}var l=(e.fps?1e3/e.fps:0)*e.speed,f=Math.max(0,u);f<n-l&&(e.offset=f,n=f,e._apply(f));var c=e.iterations>0&&-1===e.fill&&u>=e.maxFiniteDuration;(u<=0||e.offset<u||c)&&e.stop(),e._id=window.requestAnimationFrame(i)}}))}},{key:"_start",value:function(){var t=this,e=arguments.length>0&&void 0!==arguments[0]?arguments[0]:0,n=-1/0,r=null,i={};this._running=!0;var o=function o(u){null==r&&(r=u);var a=Math.round((u-r)*t.speed+e),s=(t.fps?1e3/t.fps:0)*t.speed;if(a>n+s&&!t._rollingBack&&(t.offset=a,n=a,t._apply(a,i)===t._animations.length))return void t.pause(!0);t._id=window.requestAnimationFrame(o)};this._id=window.requestAnimationFrame(o)}},{key:"_pause",value:function(){this._id&&window.cancelAnimationFrame(this._id),this._running=!1}},{key:"play",value:function(){if(!this._running)return this._rollingBack?this._rollback(this.offset):this._start(this.offset)}},{key:"stop",value:function(){this._pause(),this.offset=0,this.rollbackStartOffset=0,this._rollingBack=!1,this._apply(0)}},{key:"reachedToEnd",value:function(){return this.iterations>0&&this.offset>=this.iterations*this.duration}},{key:"restart",value:function(){var t=arguments.length>0&&void 0!==arguments[0]&&arguments[0];this.stop(t),this.play(t)}},{key:"pause",value:function(){this._pause()}},{key:"reverse",value:function(){this.direction=-this.direction}}],[{key:"build",value:function(t,e){delete t.animationSettings,t.options=lt(t.options,t.root,"91c80d77"),t.animations.map((function(e){e.settings=lt(e.s,t.root,"91c80d77"),delete e.s,t.animationSettings||(t.animationSettings=e.settings)}));var n=t.version;if(!(t=ot(t,e)))return null;var r=t.options||{},i=new this(t.animations,t.animationSettings,n);return{el:t.svg,options:r,player:i}}},{key:"push",value:function(t){return this.build(t)}},{key:"init",value:function(){var t=this,e=window.__SVGATOR_PLAYER__&&window.__SVGATOR_PLAYER__["91c80d77"];Array.isArray(e)&&e.splice(0).forEach((function(e){return t.build(e)}))}}]),t}();!function(){for(var t=0,e=["ms","moz","webkit","o"],n=0;n<e.length&&!window.requestAnimationFrame;++n)window.requestAnimationFrame=window[e[n]+"RequestAnimationFrame"],window.cancelAnimationFrame=window[e[n]+"CancelAnimationFrame"]||window[e[n]+"CancelRequestAnimationFrame"];window.requestAnimationFrame||(window.requestAnimationFrame=function(e){var n=Date.now(),r=Math.max(0,16-(n-t)),i=window.setTimeout((function(){e(n+r)}),r);return t=n+r,i},window.cancelAnimationFrame=window.clearTimeout)}();var ht=function(t,e){var n=!1,r=null;return function(i){n&&clearTimeout(n),n=setTimeout((function(){return function(){for(var i=0,o=window.innerHeight,u=0,a=window.innerWidth,s=t.parentNode;s instanceof Element;){var l=window.getComputedStyle(s);if("visible"!==l.overflowY||"visible"!==l.overflowX){var f=s.getBoundingClientRect();"visible"!==l.overflowY&&(i=Math.max(i,f.top),o=Math.min(o,f.bottom)),"visible"!==l.overflowX&&(u=Math.max(u,f.left),a=Math.min(a,f.right))}if(s===s.parentNode)break;s=s.parentNode}n=!1;var c=t.getBoundingClientRect(),h=Math.min(c.height,Math.max(0,i-c.top)),v=Math.min(c.height,Math.max(0,c.bottom-o)),y=Math.min(c.width,Math.max(0,u-c.left)),d=Math.min(c.width,Math.max(0,c.right-a)),g=(c.height-h-v)/c.height,p=(c.width-y-d)/c.width,m=Math.round(g*p*100);null!==r&&r===m||(r=m,e(m))}()}),100)}},vt=function(){function t(e,n,i){r(this,t),n=Math.max(1,n||1),n=Math.min(n,100),this.el=e,this._handlers=[],this.onThresholdChange=i&&i.call?i:function(){},this.thresholdPercent=n||1,this.currentVisibility=null,this.visibilityCalculator=ht(e,this.onVisibilityUpdate.bind(this)),this.bindScrollWatchers(),this.visibilityCalculator()}return o(t,[{key:"bindScrollWatchers",value:function(){for(var t=this.el.parentNode;t&&(this._handlers.push({element:t,event:"scroll",handler:this.visibilityCalculator}),t.addEventListener("scroll",this.visibilityCalculator),t!==t.parentNode&&t!==document);)t=t.parentNode}},{key:"onVisibilityUpdate",value:function(t){var e=this.currentVisibility>=this.thresholdPercent,n=t>=this.thresholdPercent;if(null===this.currentVisibility||e!==n)return this.currentVisibility=t,void this.onThresholdChange(n);this.currentVisibility=t}},{key:"destruct",value:function(){this._handlers.forEach((function(t){t.element.removeEventListener(t.event,t.handler)}))}}]),t}();function yt(t){return g(t)+""}function dt(t){var e=arguments.length>1&&void 0!==arguments[1]?arguments[1]:" ";return t&&t.length?t.map(yt).join(e):""}function gt(t){return yt(t.x)+","+yt(t.y)}function pt(t){if(!t)return"transparent";if(null==t.a||t.a>=1){var e=function(t){return 1===(t=parseInt(t).toString(16)).length?"0"+t:t},n=function(t){return t.charAt(0)===t.charAt(1)},r=e(t.r),i=e(t.g),o=e(t.b);return n(r)&&n(i)&&n(o)&&(r=r.charAt(0),i=i.charAt(0),o=o.charAt(0)),"#"+r+i+o}return"rgba("+t.r+","+t.g+","+t.b+","+t.a+")"}function mt(t){return t?"url(#"+t+")":"none"}var bt={f:null,i:q,u:function(t,e){return function(n){var r=e(n);t.setAttribute("rx",yt(r.x)),t.setAttribute("ry",yt(r.y))}}},kt={f:null,i:function(t,e,n){return 0===t?e:1===t?n:{width:C(t,e.width,n.width),height:C(t,e.height,n.height)}},u:function(t,e){return function(n){var r=e(n);t.setAttribute("width",yt(r.width)),t.setAttribute("height",yt(r.height))}}};Object.freeze({M:2,L:2,Z:0,H:1,V:1,C:6,Q:4,T:2,S:4,A:7});var wt={},xt=null;function At(t){var e=function(){if(xt)return xt;if("object"!==("undefined"==typeof document?"undefined":n(document))||!document.createElementNS)return{};var t=document.createElementNS("http://www.w3.org/2000/svg","svg");return t&&t.style?(t.style.position="absolute",t.style.opacity="0.01",t.style.zIndex="-9999",t.style.left="-9999px",t.style.width="1px",t.style.height="1px",xt={svg:t}):{}}().svg;if(!e)return function(t){return null};var r=document.createElementNS(e.namespaceURI,"path");r.setAttributeNS(null,"d",t),r.setAttributeNS(null,"fill","none"),r.setAttributeNS(null,"stroke","none"),e.appendChild(r);var i=r.getTotalLength();return function(t){var e=r.getPointAtLength(i*t);return{x:e.x,y:e.y}}}function _t(t){return wt[t]?wt[t]:wt[t]=At(t)}function Ot(t,e,n,r){if(!t||!r)return!1;var i=["M",t.x,t.y];if(e&&n&&(i.push("C"),i.push(e.x),i.push(e.y),i.push(n.x),i.push(n.y)),e?!n:n){var o=e||n;i.push("Q"),i.push(o.x),i.push(o.y)}return e||n||i.push("L"),i.push(r.x),i.push(r.y),i.join(" ")}function St(t,e,n,r){var i=arguments.length>4&&void 0!==arguments[4]?arguments[4]:1,o=Ot(t,e,n,r),u=_t(o);try{return u(i)}catch(t){return null}}function Et(t,e,n){return t+(e-t)*n}function Pt(t,e,n){var r=arguments.length>3&&void 0!==arguments[3]&&arguments[3],i={x:Et(t.x,e.x,n),y:Et(t.y,e.y,n)};return r&&(i.a=Mt(t,e)),i}function Mt(t,e){return Math.atan2(e.y-t.y,e.x-t.x)}function jt(t,e,n,r){var i=1-r;return i*i*t+2*i*r*e+r*r*n}function Bt(t,e,n,r){return 2*(1-r)*(e-t)+2*r*(n-e)}function Tt(t,e,n,r){var i=arguments.length>4&&void 0!==arguments[4]&&arguments[4],o=St(t,e,null,n,r);return o||(o={x:jt(t.x,e.x,n.x,r),y:jt(t.y,e.y,n.y,r)}),i&&(o.a=It(t,e,n,r)),o}function It(t,e,n,r){return Math.atan2(Bt(t.y,e.y,n.y,r),Bt(t.x,e.x,n.x,r))}function Rt(t,e,n,r,i){var o=i*i;return i*o*(r-t+3*(e-n))+3*o*(t+n-2*e)+3*i*(e-t)+t}function Nt(t,e,n,r,i){var o=1-i;return 3*(o*o*(e-t)+2*o*i*(n-e)+i*i*(r-n))}function Ft(t,e,n,r,i){var o=arguments.length>5&&void 0!==arguments[5]&&arguments[5],u=St(t,e,n,r,i);return u||(u={x:Rt(t.x,e.x,n.x,r.x,i),y:Rt(t.y,e.y,n.y,r.y,i)}),o&&(u.a=Ct(t,e,n,r,i)),u}function Ct(t,e,n,r,i){return Math.atan2(Nt(t.y,e.y,n.y,r.y,i),Nt(t.x,e.x,n.x,r.x,i))}function Lt(t,e,n){var r=arguments.length>3&&void 0!==arguments[3]&&arguments[3];if(qt(e)){if(Vt(n))return Tt(e,n.start,n,t,r)}else if(qt(n)){if(zt(e))return Tt(e,e.end,n,t,r)}else{if(zt(e))return Vt(n)?Ft(e,e.end,n.start,n,t,r):Tt(e,e.end,n,t,r);if(Vt(n))return Tt(e,n.start,n,t,r)}return Pt(e,n,t,r)}function Dt(t,e,n){var r=Lt(t,e,n,!0);return r.a=function(t){return arguments.length>1&&void 0!==arguments[1]&&arguments[1]?t+Math.PI:t}(r.a)/m,r}function qt(t){return!t.type||"corner"===t.type}function Vt(t){return null!=t.start&&!qt(t)}function zt(t){return null!=t.end&&!qt(t)}var Yt=new R;var Gt={f:function(t){return t?t.join(" "):""},i:function(t,e,r){if(0===t)return e;if(1===t)return r;var i=e.length;if(i!==r.length)return N(t,e,r);for(var o,u=new Array(i),a=0;a<i;a++){if((o=n(e[a]))!==n(r[a]))return N(t,e,r);if("number"===o)u[a]=F(t,e[a],r[a]);else{if(e[a]!==r[a])return N(t,e,r);u[a]=e[a]}}return u}},Ut={f:null,i:Y,u:function(t,e){return function(n){var r=e(n);t.setAttribute("x1",yt(r[0])),t.setAttribute("y1",yt(r[1])),t.setAttribute("x2",yt(r[2])),t.setAttribute("y2",yt(r[3]))}}},$t={f:yt,i:F},Wt={f:yt,i:L},Ht={f:function(t){var e=arguments.length>1&&void 0!==arguments[1]?arguments[1]:" ";return t&&t.length>0&&(t=t.map((function(t){return g(t,4)}))),dt(t,e)},i:function(t,e,n){var r,i,o,u=e.length,a=n.length;if(u!==a)if(0===u)e=G(u=a,0);else if(0===a)a=u,n=G(u,0);else{var s=(o=(r=u)*(i=a)/function(t,e){for(var n;e;)n=e,e=t%e,t=n;return t||1}(r,i))<0?-o:o;e=U(e,Math.floor(s/u)),n=U(n,Math.floor(s/a)),u=a=s}for(var l=[],f=0;f<u;f++)l.push(g(C(t,e[f],n[f])));return l}};function Qt(t,e,n){return t.map((function(t){return function(t,e,n){var r=t.v;if(!r||"g"!==r.t||r.s||!r.v||!r.r)return t;var i=n.getElementById(r.r),o=i&&i.querySelectorAll("stop")||[];return r.s=r.v.map((function(t,e){var n=o[e]&&o[e].getAttribute("offset");return{c:t,o:n=g(parseInt(n)/100)}})),delete r.v,t}(t,0,n)}))}var Xt={gt:"gradientTransform",c:{x:"cx",y:"cy"},rd:"r",f:{x:"x1",y:"y1"},to:{x:"x2",y:"y2"}};function Jt(t,e,r,i,o,u,a,s){return Qt(t,0,s),e=function(t,e,n){for(var r,i,o,u=t.length-1,a={},s=0;s<=u;s++)(r=t[s]).e&&(r.e=e(r.e)),r.v&&"g"===(i=r.v).t&&i.r&&(o=n.getElementById(i.r))&&(a[i.r]={e:o,s:o.querySelectorAll("stop")});return a}(t,i,s),function(i){var o=r(i,t,Kt);if(!o)return"none";if("c"===o.t)return pt(o.v);if("g"===o.t){if(!e[o.r])return mt(o.r);var u=e[o.r];return function(t,e){for(var n=t.s,r=n.length;r<e.length;r++){var i=n[n.length-1].cloneNode();i.id=ee(i.id),t.e.appendChild(i),n=t.s=t.e.querySelectorAll("stop")}for(var o=0,u=n.length,a=e.length-1;o<u;o++)n[o].setAttribute("stop-color",pt(e[Math.min(o,a)].c)),n[o].setAttribute("offset",e[Math.min(o,a)].o)}(u,o.s),Object.keys(Xt).forEach((function(t){if(void 0!==o[t])if("object"!==n(Xt[t])){var e,r="gt"===t?(e=o[t],Array.isArray(e)?"matrix("+e.join(" ")+")":""):o[t],i=Xt[t];u.e.setAttribute(i,r)}else Object.keys(Xt[t]).forEach((function(e){if(void 0!==o[t][e]){var n=o[t][e],r=Xt[t][e];u.e.setAttribute(r,n)}}))})),mt(o.r)}return"none"}}function Kt(t,n,r){if(0===t)return n;if(1===t)return r;if(n&&r){var i=n.t;if(i===r.t)switch(n.t){case"c":return{t:i,v:z(t,n.v,r.v)};case"g":if(n.r===r.r){var o={t:i,s:Zt(t,n.s,r.s),r:n.r};return n.gt&&r.gt&&(o.gt=Y(t,n.gt,r.gt)),n.c?(o.c=D(t,n.c,r.c),o.rd=C(t,n.rd,r.rd)):n.f&&(o.f=D(t,n.f,r.f),o.to=D(t,n.to,r.to)),o}}if("c"===n.t&&"g"===r.t||"c"===r.t&&"g"===n.t){var u="c"===n.t?n:r,a="g"===n.t?e({},n):e({},r),s=a.s.map((function(t){return{c:u.v,o:t.o}}));return a.s="c"===n.t?Zt(t,s,a.s):Zt(t,a.s,s),a}}return N(t,n,r)}function Zt(t,e,n){if(e.length===n.length)return e.map((function(e,r){return te(t,e,n[r])}));for(var r=Math.max(e.length,n.length),i=[],o=0;o<r;o++){var u=te(t,e[Math.min(o,e.length-1)],n[Math.min(o,n.length-1)]);i.push(u)}return i}function te(t,e,n){return{o:L(t,e.o,n.o||0),c:z(t,e.c,n.c||{})}}function ee(t){return t.replace(/-fill-([0-9]+)$/,(function(t,e){return"-fill-"+(+e+1)}))}var ne={blur:q,brightness:C,contrast:C,"drop-shadow":function(t,e,n){return 0===t?e:1===t?n:{blur:q(t,e.blur,n.blur),offset:D(t,e.offset,n.offset),color:z(t,e.color,n.color)}},grayscale:C,"hue-rotate":F,invert:C,opacity:C,saturate:C,sepia:C};function re(t,e,n){if(0===t)return e;if(1===t)return n;var r=e.length;if(r!==n.length)return N(t,e,n);for(var i,o=[],u=0;u<r;u++){if(e[u].type!==n[u].type)return e;if(!(i=ne[e[u].type]))return N(t,e,n);o.push({type:e.type,value:i(t,e[u].value,n[u].value)})}return o}var ie={blur:function(t){return t?function(e){t.setAttribute("stdDeviation",gt(e))}:null},brightness:function(t,e,n){return(t=ue(n,e))?function(e){e=yt(e),t.map((function(t){return t.setAttribute("slope",e)}))}:null},contrast:function(t,e,n){return(t=ue(n,e))?function(e){var n=yt((1-e)/2);e=yt(e),t.map((function(t){t.setAttribute("slope",e),t.setAttribute("intercept",n)}))}:null},"drop-shadow":function(t,e,n){var r=n.getElementById(e+"-blur");if(!r)return null;var i=n.getElementById(e+"-offset");if(!i)return null;var o=n.getElementById(e+"-flood");return o?function(t){r.setAttribute("stdDeviation",gt(t.blur)),i.setAttribute("dx",yt(t.offset.x)),i.setAttribute("dy",yt(t.offset.y)),o.setAttribute("flood-color",pt(t.color))}:null},grayscale:function(t){return t?function(e){t.setAttribute("values",dt(function(t){return[.2126+.7874*(t=1-t),.7152-.7152*t,.0722-.0722*t,0,0,.2126-.2126*t,.7152+.2848*t,.0722-.0722*t,0,0,.2126-.2126*t,.7152-.7152*t,.0722+.9278*t,0,0,0,0,0,1,0]}(e)))}:null},"hue-rotate":function(t){return t?function(e){return t.setAttribute("values",yt(e))}:null},invert:function(t,e,n){return(t=ue(n,e))?function(e){e=yt(e)+" "+yt(1-e),t.map((function(t){return t.setAttribute("tableValues",e)}))}:null},opacity:function(t,e,n){return(t=n.getElementById(e+"-A"))?function(e){return t.setAttribute("tableValues","0 "+yt(e))}:null},saturate:function(t){return t?function(e){return t.setAttribute("values",yt(e))}:null},sepia:function(t){return t?function(e){return t.setAttribute("values",dt(function(t){return[.393+.607*(t=1-t),.769-.769*t,.189-.189*t,0,0,.349-.349*t,.686+.314*t,.168-.168*t,0,0,.272-.272*t,.534-.534*t,.131+.869*t,0,0,0,0,0,1,0]}(e)))}:null}};var oe=["R","G","B"];function ue(t,e){var n=oe.map((function(n){return t.getElementById(e+"-"+n)||null}));return-1!==n.indexOf(null)?null:n}var ae={fill:Jt,"fill-opacity":Wt,stroke:Jt,"stroke-opacity":Wt,"stroke-width":$t,"stroke-dashoffset":{f:yt,i:F},"stroke-dasharray":Ht,opacity:Wt,transform:function(t,e,r,i){if(!(t=function(t,e){if(!t||"object"!==n(t))return null;var r=!1;for(var i in t)t.hasOwnProperty(i)&&(t[i]&&t[i].length?(t[i].forEach((function(t){t.e&&(t.e=e(t.e))})),r=!0):delete t[i]);return r?t:null}(t,i)))return null;var o=function(n,i,o){var u=arguments.length>3&&void 0!==arguments[3]?arguments[3]:null;return t[n]?r(i,t[n],o):e&&e[n]?e[n]:u};return e&&e.a&&t.o?function(e){var n=r(e,t.o,Dt);return Yt.recomposeSelf(n,o("r",e,F,0)+n.a,o("k",e,D),o("s",e,D),o("t",e,D)).toString()}:function(t){return Yt.recomposeSelf(o("o",t,Lt,null),o("r",t,F,0),o("k",t,D),o("s",t,D),o("t",t,D)).toString()}},"#filter":function(t,e,n,r,i,o,u,a){if(!e.items||!t||!t.length)return null;var s=function(t,e){var n=(t=t.map((function(t){return t&&ie[t[0]]?(e.getElementById(t[1]),ie[t[0]](e.getElementById(t[1]),t[1],e)):null}))).length;return function(e){for(var r=0;r<n;r++)t[r]&&t[r](e[r].value)}}(e.items,a);return s?(t=function(t,e){return t.map((function(t){return t.e=e(t.e),t}))}(t,r),function(e){s(n(e,t,re))}):null},"#line":Ut,points:{f:dt,i:Y},d:Gt,r:$t,"#size":kt,"#radius":bt,_:function(t,e){if(Array.isArray(t))for(var n=0;n<t.length;n++)this[t[n]]=e;else this[t]=e}},se={currentTime:"offset",duration:"duration",hasEnded:function(){return this.reachedToEnd()},isAlternate:"alternate",isPlaying:"_running",isRollingBack:"_rollingBack",state:function(t,e){return e.isPlaying?e.isRollingBack?"rollback":"playing":e.hasEnded?"ended":"paused"},totalTime:"maxFiniteDuration",iterations:"iterations",direction:"direction",fill:"fill",isReversed:function(t,e){return-1===e.direction},isBackwards:function(t,e){return-1===e.fill},isInfinite:function(t,e){return 0===e.iterations},speed:"speed",fps:"fps"},le={destruct:"destruct",pause:"pause",play:function(t,e){return fe(t,e.hasEnded?"restart":"play",e)},restart:"restart",reverse:function(t,e){return fe(t,"reverse",e,[!0])},seek:"seek",seekBy:"seekBy",seekTo:"seekTo",stop:"stop",toggle:"toggle",togglePlay:"toggle",set:"set"};function fe(t,e,n){var r=arguments.length>3&&void 0!==arguments[3]?arguments[3]:[];return function(){var i,o=Array.prototype.slice.call(arguments);return o.unshift.apply(o,v(r)),(i=t[e]).call.apply(i,[t].concat(v(o))),n}}var ce=function t(e){r(this,t);var n={},i=["on","off"],o={get:function(t,e,r){return se[e]?"function"==typeof se[e]?se[e].call(t,t,r):t[se[e]]:le[e]?"function"==typeof le[e]?le[e].call(t,t,r):fe(t,le[e],r):-1!==i.indexOf(e)?n[e]:"ready"===e?function(t){return t&&t.call(r,r),r}:void 0},set:function(t,e,r){return-1!==i.indexOf(e)&&(n[e]=r)},ownKeys:function(t){return Object.keys(se)},has:function(t,e){return void 0!==se[e]}};if("function"==typeof Proxy)return new Proxy(e,o);var u=Object.keys(se).concat(Object.keys(le)).concat(i),a={};return u.forEach((function(t){var n={enumerable:!1,configurable:!1,get:function(){return o.get(e,t,a)}};-1!==i.indexOf(t)&&(n.set=function(n){return o.set(e,t,n)}),Object.defineProperty(a,t,n)})),a};function he(t){t||(t=this);var e={};this.on=function(t,n){var r=arguments.length>2&&void 0!==arguments[2]&&arguments[2];return"function"==typeof n&&(t.split(/[, ]+/g).forEach((function(t){return e[t]=e[t]||[],r?e[t].unshift(n):e[t].push(n)})),!0)},this.off=function(t,n){for(var r in e)if(e.hasOwnProperty(r)&&r.substr(0,t.length)===t)if(n)for(var i=0;i<e[r].length;i++)e[r][i]===n&&(e[r][i]=null);else e[r]=null},this.trigger=function(){var n,r=Array.prototype.slice.call(arguments),i=r[0],o=r.slice(1);t:for(var u in e)if(e.hasOwnProperty(u)&&e[u]&&(u===i||u.substr(0,i.length+1)===i+"."))for(var a=0;a<e[u].length;a++)if(e[u][a]&&!1===(n=e[u][a].apply(t,o)))break t;return n}}var ve=!0,ye=["iterations","speed","fps","direction","fill","alternate"],de=function(t){!function(t,e){if("function"!=typeof e&&null!==e)throw new TypeError("Super expression must either be null or a function");t.prototype=Object.create(e&&e.prototype,{constructor:{value:t,writable:!0,configurable:!0}}),e&&s(t,e)}(u,t);var e,n,i=(e=u,n=l(),function(){var t,r=a(e);if(n){var i=a(this).constructor;t=Reflect.construct(r,arguments,i)}else t=r.apply(this,arguments);return c(this,t)});function u(t,e){var n,o=arguments.length>2&&void 0!==arguments[2]?arguments[2]:null;return r(this,u),(n=i.call(this,t,e,o))._handlers=[],n}return o(u,[{key:"_adjustOffset",value:function(){var t=arguments.length>0&&void 0!==arguments[0]&&arguments[0],e=this.alternate?2*this.duration:this.duration;if(t){if(!this._rollingBack&&0===this.offset)return void(this.offset=e);this._rollingBack&&(this.offset,this.maxFiniteDuration)}!this._rollingBack||this.rollbackStartOffset<=this.duration?0!==this.iterations&&(this.offset=Math.min(this.offset,this.maxFiniteDuration)):(this.offset=this.rollbackStartOffset-(this.rollbackStartOffset-this.offset)%e,this.rollbackStartOffset=0)}},{key:"reverse",value:function(){var t=arguments.length>0&&void 0!==arguments[0]&&arguments[0];if(!this._running)return this._adjustOffset(t),this._rollingBack=!this._rollingBack,t&&this.play(!1),void this.trigger("reverse",this.offset);this.pause(!1,!1),this._adjustOffset(),this._rollingBack=!this._rollingBack,this.play(!1),this.trigger("reverse",this.offset)}},{key:"play",value:function(){var t=arguments.length>0&&void 0!==arguments[0]?arguments[0]:ve,e=h(a(u.prototype),"play",this).call(this);return t===ve&&this.trigger("play",this.offset),e}},{key:"pause",value:function(){var t=arguments.length>0&&void 0!==arguments[0]&&arguments[0],e=arguments.length>1&&void 0!==arguments[1]?arguments[1]:ve,n=h(a(u.prototype),"pause",this).call(this);return e===ve&&this.trigger(t?"end":"pause",this.offset),n}},{key:"restart",value:function(){var t=h(a(u.prototype),"restart",this).call(this,!1);return this.trigger("restart",this.offset),t}},{key:"stop",value:function(){var t=arguments.length>0&&void 0!==arguments[0]?arguments[0]:ve,e=h(a(u.prototype),"stop",this).call(this);return t===ve&&this.trigger("stop",this.offset),e}},{key:"_apply",value:function(t){var e=this,n=arguments.length>2&&void 0!==arguments[2]?arguments[2]:ve,r=h(a(u.prototype),"_apply",this).call(this,t);if(n===ve){var i=function(){return e.trigger("keyframe",t)};window.requestAnimationFrame(i)}return r}},{key:"seekTo",value:function(t){var e,n,r,i=this._running;i&&this.pause(!1,!1),this.offset=this.iterations>0?(e=t,n=0,r=this.maxFiniteDuration,e<n?n:e>r?r:e):Math.max(t,0),this._apply(this.offset),i&&this.play(!1)}},{key:"seek",value:function(t){return this.seekTo(Math.round(t/100*this.maxFiniteDuration))}},{key:"seekBy",value:function(t){return this.seekTo(this.offset+t)}},{key:"toggle",value:function(){return this._running?this.pause():this.reachedToEnd()?this.restart():this.play()}},{key:"set",value:function(t,e){if(ye.includes(t)){var n=this._running;n&&this.pause(!1,!1),this._settings[t]=e,n?this.play(!1):this._apply(this.offset,{},!1)}}},{key:"destruct",value:function(){var t=this;this.stop(),this._handlers.forEach((function(t){t.element?t.element.removeEventListener(t.event,t.handler):t.callback&&t.callback.call&&t.callback.call()}));var e=function(){},n=Object.getOwnPropertyNames(Object.getPrototypeOf(this));n.push.apply(n,v(Object.getOwnPropertyNames(this))),n.forEach((function(n){"function"==typeof t[n]?t[n]=e:delete t[n]}))}}],[{key:"build",value:function(t){var e=h(a(u),"build",this).call(this,t,ae);if(!e)return null;var n=e.el,r=e.options,i=e.player,o=new ce(i),s=new he(o);o.on=s.on,o.off=s.off,i.trigger=s.trigger;var l=n.svgatorPlayer&&n.svgatorPlayer.ready&&n.svgatorPlayer.ready.call&&n.svgatorPlayer.ready.call();n.svgatorPlayer=o,function(t,e,n){if("click"===n.start){var r=function(){switch(n.click){case"freeze":return!t._running&&t.reachedToEnd()?t.restart():t.toggle();case"restart":return t.offset>0?t.restart():t.play();case"reverse":return t._running?t.reverse():t.reachedToEnd()?1===t.fill?t.reverse(!0):t.restart():t.play();case"none":default:if(t._running)return;return t.reachedToEnd()?t.restart():t.play()}};return t._handlers.push({element:e,event:"click",handler:r}),void e.addEventListener("click",r)}if("hover"===n.start){var i=function(){return t.reachedToEnd()?t.restart():t._rollingBack?t.reverse():t.play()};t._handlers.push({element:e,event:"mouseenter",handler:i}),e.addEventListener("mouseenter",i);var o=function(){switch(n.hover){case"freeze":return t.pause();case"reset":return t.stop();case"reverse":if(t.reverse(),t._running)return;return t.play();case"none":default:return}};return t._handlers.push({element:e,event:"mouseleave",handler:o}),void e.addEventListener("mouseleave",o)}if("scroll"===n.start){var u=new vt(e,n.scroll||25,(function(e){e?t.reachedToEnd()?t.restart():t.play():t.pause()}));return void t._handlers.push({callback:function(){return u.destruct()}})}if("programmatic"===n.start)return;t.play()}(i,n,r),function(t,e,n){var r;"function"==typeof Event?r=new Event("ready"):(r=document.createEvent("Event")).initEvent("ready",!0,!0);if(t.dispatchEvent(r),!n||!n.length)return;n.forEach((function(t){return e.ready(t)}))}(n,n.svgatorPlayer,l)}}]),u}(ct);return de.init(),de}));
(function(s,i,o,w,a,b){(a=document.getElementById(i.root)).svgatorPlayer={ready:(function(a){b=[];return function(c){return c?(b.push(c),a.svgatorPlayer):b}})(a)};w[o]=w[o]||{};w[o][s]=w[o][s]||[];w[o][s].push(i);})('91c80d77',{"root":"eNZnr3yBRAk1","version":"2022-05-04","animations":[{"elements":{"eNZnr3yBRAk2":{"opacity":[{"t":0,"v":0},{"t":10,"v":1},{"t":40,"v":1},{"t":50,"v":0}]},"eNZnr3yBRAk5":{"opacity":[{"t":40,"v":0},{"t":50,"v":1},{"t":80,"v":1},{"t":90,"v":0}]},"eNZnr3yBRAk9":{"opacity":[{"t":80,"v":0},{"t":90,"v":1},{"t":120,"v":1},{"t":130,"v":0}]},"eNZnr3yBRAk13":{"opacity":[{"t":120,"v":0},{"t":130,"v":1},{"t":160,"v":1},{"t":170,"v":0}]},"eNZnr3yBRAk18":{"opacity":[{"t":160,"v":0},{"t":170,"v":1},{"t":200,"v":1},{"t":210,"v":0}]},"eNZnr3yBRAk25":{"opacity":[{"t":200,"v":0},{"t":210,"v":1},{"t":240,"v":1},{"t":250,"v":0}]},"eNZnr3yBRAk34":{"opacity":[{"t":240,"v":0},{"t":250,"v":1},{"t":280,"v":1},{"t":290,"v":0}]},"eNZnr3yBRAk49":{"opacity":[{"t":280,"v":0},{"t":290,"v":1},{"t":320,"v":1},{"t":330,"v":0}]},"eNZnr3yBRAk63":{"opacity":[{"t":320,"v":0},{"t":330,"v":1},{"t":360,"v":1},{"t":370,"v":0}]},"eNZnr3yBRAk73":{"opacity":[{"t":360,"v":0},{"t":370,"v":1},{"t":400,"v":1},{"t":410,"v":0}]},"eNZnr3yBRAk85":{"opacity":[{"t":400,"v":0},{"t":410,"v":1},{"t":440,"v":1},{"t":450,"v":0}]},"eNZnr3yBRAk101":{"opacity":[{"t":440,"v":0},{"t":450,"v":1},{"t":480,"v":1},{"t":490,"v":0}]},"eNZnr3yBRAk117":{"opacity":[{"t":480,"v":0},{"t":490,"v":1},{"t":520,"v":1},{"t":530,"v":0}]},"eNZnr3yBRAk127":{"opacity":[{"t":520,"v":0},{"t":530,"v":1},{"t":560,"v":1},{"t":570,"v":0}]},"eNZnr3yBRAk144":{"opacity":[{"t":560,"v":0},{"t":570,"v":1},{"t":600,"v":1},{"t":610,"v":0}]},"eNZnr3yBRAk159":{"opacity":[{"t":600,"v":0},{"t":610,"v":1},{"t":640,"v":1},{"t":650,"v":0}]},"eNZnr3yBRAk176":{"opacity":[{"t":640,"v":0},{"t":650,"v":1},{"t":680,"v":1},{"t":690,"v":0}]},"eNZnr3yBRAk192":{"opacity":[{"t":680,"v":0},{"t":690,"v":1},{"t":720,"v":1},{"t":730,"v":0}]},"eNZnr3yBRAk209":{"opacity":[{"t":720,"v":0},{"t":730,"v":1},{"t":760,"v":1},{"t":770,"v":0}]},"eNZnr3yBRAk229":{"opacity":[{"t":760,"v":0},{"t":770,"v":1},{"t":800,"v":1},{"t":810,"v":0}]},"eNZnr3yBRAk247":{"opacity":[{"t":800,"v":0},{"t":810,"v":1},{"t":840,"v":1},{"t":850,"v":0}]},"eNZnr3yBRAk262":{"opacity":[{"t":840,"v":0},{"t":850,"v":1},{"t":880,"v":1},{"t":890,"v":0}]},"eNZnr3yBRAk273":{"opacity":[{"t":880,"v":0},{"t":890,"v":1},{"t":920,"v":1},{"t":930,"v":0}]},"eNZnr3yBRAk280":{"opacity":[{"t":920,"v":0},{"t":930,"v":1},{"t":960,"v":1},{"t":970,"v":0}]},"eNZnr3yBRAk284":{"opacity":[{"t":960,"v":0},{"t":970,"v":1},{"t":1000,"v":1},{"t":1010,"v":0}]}},"s":"MDKA1MzkwMzc3OPThhODc3Njg5DN2U4NDgzMzdKDNGY0NjQ1NDGY0NTQxSTM3USTc5N2U4NzdhHNzhTODk3ZTgN0ODMzNzRmNDPY0MTM3N2U4OXTdhODc3Njg5VWDdlODQ4MzgI4Mzc0ZjQ2NDKEzNzdiN2U4MWTgxMzc0ZjQ2TNDEzNzc2ODEB4OTdhODc4M0Jc3Njg5N2EzNMzRmN2I3NjgxTODg3YTQxMzcH4OEE4NUw3YTWdhNzkzNzRmNRDY5Mg|"}],"options":"MDIAxMDgyMjk3YATdiNjhINzlBWN2IyOTQxMjlGQNzM3NjY4NmYIyOVg4NA|"},'__SVGATOR_PLAYER__',window)]]></script></svg>