<svg id="esE0GYc2mKf1" xmlns="http://www.w3.org/2000/svg" xmlns:xlink="http://www.w3.org/1999/xlink" viewBox="0 0 134 372" shape-rendering="geometricPrecision" text-rendering="geometricPrecision"><defs><linearGradient id="esE0GYc2mKf2-fill" x1="10" y1="0" x2="10" y2="39" spreadMethod="pad" gradientUnits="userSpaceOnUse" gradientTransform="translate(0 0)"><stop id="esE0GYc2mKf2-fill-0" offset="0%" stop-color="#d4c5e9"/><stop id="esE0GYc2mKf2-fill-1" offset="56.25%" stop-color="#dae5e4"/><stop id="esE0GYc2mKf2-fill-2" offset="100%" stop-color="#d4c5e9"/></linearGradient><linearGradient id="esE0GYc2mKf3-fill" x1="162.5" y1="0" x2="162.5" y2="23" spreadMethod="pad" gradientUnits="userSpaceOnUse" gradientTransform="translate(0 0)"><stop id="esE0GYc2mKf3-fill-0" offset="0%" stop-color="#d4c5e9"/><stop id="esE0GYc2mKf3-fill-1" offset="13.0208%" stop-color="#816a92"/><stop id="esE0GYc2mKf3-fill-2" offset="51.0417%" stop-color="#5a3a79"/><stop id="esE0GYc2mKf3-fill-3" offset="86.4583%" stop-color="#ab96c3"/><stop id="esE0GYc2mKf3-fill-4" offset="100%" stop-color="#d4c5e9"/></linearGradient><linearGradient id="esE0GYc2mKf4-fill" x1="48.5" y1="0" x2="48.5" y2="23" spreadMethod="pad" gradientUnits="userSpaceOnUse" gradientTransform="translate(0 0)"><stop id="esE0GYc2mKf4-fill-0" offset="0%" stop-color="#d4c5e9"/><stop id="esE0GYc2mKf4-fill-1" offset="13.0208%" stop-color="#816a92"/><stop id="esE0GYc2mKf4-fill-2" offset="51.0417%" stop-color="#5a3a79"/><stop id="esE0GYc2mKf4-fill-3" offset="86.4583%" stop-color="#ab96c3"/><stop id="esE0GYc2mKf4-fill-4" offset="100%" stop-color="#d4c5e9"/></linearGradient><linearGradient id="esE0GYc2mKf8-fill" x1="14.5" y1="0" x2="14.5" y2="39" spreadMethod="pad" gradientUnits="userSpaceOnUse" gradientTransform="translate(0 0)"><stop id="esE0GYc2mKf8-fill-0" offset="0%" stop-color="#d4c5e9"/><stop id="esE0GYc2mKf8-fill-1" offset="56.25%" stop-color="#dae5e4"/><stop id="esE0GYc2mKf8-fill-2" offset="100%" stop-color="#d4c5e9"/></linearGradient></defs><rect width="20" height="39" rx="0" ry="0" transform="matrix(0 1 1 0 95 0)" fill="url(#esE0GYc2mKf2-fill)"/><rect width="325" height="23" rx="0" ry="0" transform="matrix(0 1 1 0 103 23)" fill="url(#esE0GYc2mKf3-fill)"/><rect width="97" height="23" rx="0" ry="0" transform="matrix(-1 0 0 1 97 341)" fill="url(#esE0GYc2mKf4-fill)"/><rect width="325" height="19" rx="0" ry="0" transform="matrix(0 0.953847 1 0 105 23)" fill="#45ff62"/><rect width="97" height="19" rx="0" ry="0" transform="matrix(-1 0 0 1 97 343)" fill="#45ff62"/><rect width="3" height="33" rx="0" ry="0" transform="matrix(0 1 1 0 98 20)" fill="#816a92"/><rect width="29" height="39" rx="0" ry="0" transform="matrix(-1 0 0 1 129 333)" fill="url(#esE0GYc2mKf8-fill)"/><rect width="3" height="33" rx="0" ry="0" transform="matrix(-1 0 0 1 100 336)" fill="#816a92"/></svg>